; NON-PLATED HOLES START AT T1
; THROUGH (PLATED) HOLES START AT T100
M48
INCH
T1C0.125984
T100C0.035433
T101C0.039370
T102C0.015748
T103C0.038000
T104C0.035000
%
T1
X009846Y009826
X001573Y017897
X018105Y017884
T100
X003835Y008836
X003835Y011395
T101
X015835Y007836
X015835Y008836
X018835Y006836
X018835Y010836
X015835Y009836
X018835Y007836
X018835Y008836
X018835Y009836
X015835Y006836
X015835Y010836
T102
X014835Y013836
X010835Y012836
X011335Y005086
X012835Y006836
X011835Y006836
X003835Y005836
X010835Y015336
X010835Y008586
X014835Y015836
X003327Y004090
X013089Y007582
X009335Y005086
X009835Y007586
X009335Y001336
X002835Y013336
X010089Y012344
X010835Y013836
X002581Y002328
X010835Y001582
T103
X006835Y015836
X018585Y001086
X006835Y008836
X000835Y010836
X006835Y012836
X012835Y009836
X006835Y005836
X001085Y002086
X012835Y010836
X000835Y015836
X000835Y008836
X000835Y012836
X000835Y005836
X006835Y014836
X006835Y007836
X006835Y011836
X012835Y008836
X006835Y004836
X001085Y001086
X000835Y014836
X000835Y007836
X018835Y004836
X018585Y002086
X006835Y009836
X000835Y011836
X000835Y004836
X006835Y013836
X006835Y006836
X006835Y010836
X000835Y009836
X000835Y013836
X000835Y006836
X018835Y003836
T104
X018835Y013086
X016835Y003586
X017835Y013086
X018835Y015336
X017835Y015336
X016835Y002586
T00
M30
