G04 MADE WITH FRITZING*
G04 WWW.FRITZING.ORG*
G04 DOUBLE SIDED*
G04 HOLES PLATED*
G04 CONTOUR ON CENTER OF CONTOUR VECTOR*
%ASAXBY*%
%FSLAX23Y23*%
%MOIN*%
%OFA0B0*%
%SFA1.0B1.0*%
%ADD10C,0.075000*%
%ADD11C,0.039370*%
%ADD12C,0.078000*%
%ADD13C,0.070000*%
%ADD14C,0.079370*%
%ADD15R,0.075000X0.075000*%
%ADD16R,0.059055X0.055118*%
%ADD17R,0.051181X0.141823*%
%ADD18R,0.080000X0.026000*%
%ADD19C,0.024000*%
%LNCOPPER1*%
G90*
G70*
G54D10*
X785Y1800D03*
X859Y996D03*
X355Y277D03*
X1682Y144D03*
X951Y294D03*
G54D11*
X284Y1334D03*
X333Y409D03*
X258Y233D03*
X1084Y859D03*
X984Y759D03*
X934Y134D03*
X1284Y684D03*
X1184Y684D03*
X1084Y158D03*
X1309Y758D03*
X934Y509D03*
X384Y584D03*
X1134Y509D03*
G54D12*
X1859Y209D03*
X1859Y109D03*
X109Y209D03*
X109Y109D03*
G54D11*
X1484Y1584D03*
X1484Y1384D03*
X1084Y1384D03*
X1009Y1234D03*
X1084Y1534D03*
X1084Y1284D03*
G54D10*
X1884Y1309D03*
X1784Y1309D03*
X1884Y1534D03*
X1784Y1534D03*
X1684Y259D03*
X1684Y359D03*
G54D12*
X1884Y484D03*
X1884Y384D03*
X1284Y1084D03*
X1284Y984D03*
X1284Y884D03*
G54D13*
X384Y1140D03*
X384Y884D03*
X384Y1140D03*
X384Y884D03*
X384Y1140D03*
X384Y884D03*
G54D14*
X1884Y1084D03*
X1884Y984D03*
X1884Y884D03*
X1884Y784D03*
X1884Y684D03*
X1584Y1084D03*
X1584Y984D03*
X1584Y884D03*
X1584Y784D03*
X1584Y684D03*
G54D12*
X84Y1584D03*
X84Y1484D03*
X84Y1384D03*
X84Y1284D03*
X84Y1184D03*
X84Y1084D03*
X84Y984D03*
X84Y884D03*
X84Y784D03*
X84Y684D03*
X84Y584D03*
X84Y484D03*
X684Y1584D03*
X684Y1484D03*
X684Y1384D03*
X684Y1284D03*
X684Y1184D03*
X684Y1084D03*
X684Y984D03*
X684Y884D03*
X684Y784D03*
X684Y684D03*
X684Y584D03*
X684Y484D03*
G54D15*
X1884Y1309D03*
X1884Y1534D03*
X1684Y259D03*
G54D16*
X1184Y1384D03*
X1184Y1303D03*
X1184Y1584D03*
X1184Y1503D03*
X1384Y1584D03*
X1384Y1503D03*
G54D17*
X1384Y84D03*
X1584Y84D03*
X584Y84D03*
X384Y84D03*
G54D18*
X834Y534D03*
X834Y484D03*
X834Y434D03*
X834Y384D03*
X834Y334D03*
X834Y284D03*
X834Y234D03*
X834Y184D03*
X1220Y184D03*
X1220Y234D03*
X1220Y284D03*
X1220Y334D03*
X1220Y384D03*
X1220Y434D03*
X1220Y484D03*
X1220Y534D03*
X834Y134D03*
X1220Y134D03*
G54D19*
X209Y84D02*
X138Y101D01*
D02*
X364Y84D02*
X209Y84D01*
D02*
X1209Y1158D02*
X884Y1158D01*
D02*
X409Y1584D02*
X292Y1351D01*
D02*
X609Y1733D02*
X409Y1584D01*
D02*
X758Y1734D02*
X609Y1733D01*
D02*
X884Y1584D02*
X758Y1734D01*
D02*
X1262Y1105D02*
X1209Y1158D01*
D02*
X884Y1158D02*
X884Y1584D01*
D02*
X1808Y409D02*
X1710Y369D01*
D02*
X1708Y274D02*
X1858Y368D01*
D02*
X1862Y463D02*
X1808Y409D01*
D02*
X266Y250D02*
X325Y392D01*
D02*
X1829Y104D02*
X1684Y84D01*
D02*
X1684Y84D02*
X1684Y230D01*
D02*
X1684Y230D02*
X1684Y84D01*
D02*
X1684Y84D02*
X1604Y84D01*
D02*
X1209Y58D02*
X833Y58D01*
D02*
X833Y58D02*
X834Y126D01*
D02*
X1364Y81D02*
X1209Y58D01*
D02*
X1404Y84D02*
X1564Y84D01*
D02*
X833Y58D02*
X834Y126D01*
D02*
X604Y82D02*
X833Y58D01*
D02*
X404Y84D02*
X564Y84D01*
D02*
X784Y984D02*
X714Y984D01*
D02*
X784Y684D02*
X784Y984D01*
D02*
X1084Y684D02*
X784Y684D01*
D02*
X1084Y177D02*
X1084Y684D01*
D02*
X1203Y684D02*
X1265Y684D01*
D02*
X997Y772D02*
X1070Y845D01*
D02*
X868Y134D02*
X915Y134D01*
D02*
X784Y1109D02*
X708Y1166D01*
D02*
X1184Y1109D02*
X784Y1109D01*
D02*
X1184Y809D02*
X1184Y1109D01*
D02*
X1291Y765D02*
X1184Y809D01*
D02*
X1884Y1208D02*
X1359Y1209D01*
D02*
X1884Y1280D02*
X1884Y1208D01*
D02*
X1359Y1209D02*
X1208Y1290D01*
D02*
X1359Y384D02*
X1254Y384D01*
D02*
X1334Y434D02*
X1254Y434D01*
D02*
X1509Y834D02*
X1334Y434D01*
D02*
X1562Y762D02*
X1534Y734D01*
D02*
X1534Y734D02*
X1359Y384D01*
D02*
X1553Y884D02*
X1509Y884D01*
D02*
X1509Y884D02*
X1509Y834D01*
D02*
X1459Y834D02*
X1308Y484D01*
D02*
X1459Y984D02*
X1459Y834D01*
D02*
X1284Y534D02*
X1254Y534D01*
D02*
X1553Y984D02*
X1459Y984D01*
D02*
X1308Y484D02*
X1254Y484D01*
D02*
X1409Y834D02*
X1284Y534D01*
D02*
X1553Y1084D02*
X1409Y1084D01*
D02*
X1409Y1084D02*
X1409Y834D01*
D02*
X1609Y508D02*
X1434Y234D01*
D02*
X1759Y508D02*
X1609Y508D01*
D02*
X1434Y234D02*
X1254Y234D01*
D02*
X1853Y884D02*
X1758Y884D01*
D02*
X1758Y884D02*
X1759Y508D01*
D02*
X1409Y284D02*
X1254Y284D01*
D02*
X1584Y558D02*
X1409Y284D01*
D02*
X1709Y558D02*
X1584Y558D01*
D02*
X1853Y984D02*
X1708Y984D01*
D02*
X1708Y984D02*
X1709Y558D01*
D02*
X1534Y608D02*
X1384Y334D01*
D02*
X1384Y334D02*
X1254Y334D01*
D02*
X1659Y609D02*
X1534Y608D01*
D02*
X1853Y1084D02*
X1659Y1084D01*
D02*
X1659Y1084D02*
X1659Y609D01*
D02*
X759Y633D02*
X1033Y633D01*
D02*
X1033Y633D02*
X1034Y384D01*
D02*
X709Y667D02*
X759Y633D01*
D02*
X1034Y384D02*
X868Y384D01*
D02*
X799Y484D02*
X714Y484D01*
D02*
X1459Y184D02*
X1254Y184D01*
D02*
X1634Y458D02*
X1459Y184D01*
D02*
X1784Y459D02*
X1634Y458D01*
D02*
X1809Y484D02*
X1784Y459D01*
D02*
X1853Y784D02*
X1809Y784D01*
D02*
X1809Y784D02*
X1809Y484D01*
D02*
X759Y184D02*
X799Y184D01*
D02*
X433Y234D02*
X759Y184D01*
D02*
X434Y634D02*
X433Y234D01*
D02*
X908Y533D02*
X920Y522D01*
D02*
X114Y584D02*
X365Y584D01*
D02*
X868Y533D02*
X908Y533D01*
D02*
X984Y584D02*
X984Y433D01*
D02*
X714Y584D02*
X984Y584D01*
D02*
X984Y433D02*
X868Y434D01*
D02*
X1134Y134D02*
X1134Y490D01*
D02*
X1185Y134D02*
X1134Y134D01*
D02*
X208Y858D02*
X284Y858D01*
D02*
X284Y858D02*
X584Y708D01*
D02*
X184Y784D02*
X310Y784D01*
D02*
X310Y784D02*
X534Y684D01*
D02*
X184Y708D02*
X358Y708D01*
D02*
X358Y708D02*
X484Y659D01*
D02*
X160Y634D02*
X434Y634D01*
D02*
X759Y333D02*
X799Y333D01*
D02*
X759Y284D02*
X799Y284D01*
D02*
X759Y234D02*
X799Y234D01*
D02*
X584Y384D02*
X759Y333D01*
D02*
X534Y333D02*
X759Y284D01*
D02*
X484Y284D02*
X759Y234D01*
D02*
X105Y962D02*
X208Y858D01*
D02*
X584Y708D02*
X584Y384D01*
D02*
X105Y862D02*
X184Y784D01*
D02*
X534Y684D02*
X534Y333D01*
D02*
X108Y765D02*
X184Y708D01*
D02*
X484Y659D02*
X484Y284D01*
D02*
X109Y667D02*
X160Y634D01*
D02*
X1160Y1384D02*
X1103Y1384D01*
D02*
X1402Y1481D02*
X1471Y1398D01*
D02*
X1284Y1534D02*
X1284Y1584D01*
D02*
X1284Y1584D02*
X1208Y1584D01*
D02*
X1360Y1510D02*
X1284Y1534D01*
D02*
X1465Y1584D02*
X1408Y1584D01*
D02*
X584Y1484D02*
X398Y1165D01*
D02*
X234Y1284D02*
X114Y1284D01*
D02*
X363Y1160D02*
X234Y1284D01*
D02*
X653Y1484D02*
X584Y1484D01*
D02*
X1009Y1253D02*
X1009Y1584D01*
D02*
X1009Y1584D02*
X1160Y1584D01*
D02*
X1358Y1209D02*
X1208Y1290D01*
D02*
X1314Y884D02*
X1359Y884D01*
D02*
X1359Y884D02*
X1358Y1209D01*
D02*
X1160Y1298D02*
X1102Y1287D01*
D02*
X1160Y1510D02*
X1102Y1528D01*
G36*
X44Y1922D02*
X44Y1862D01*
X170Y1862D01*
X170Y1860D01*
X1826Y1860D01*
X1826Y1858D01*
X1834Y1858D01*
X1834Y1856D01*
X1838Y1856D01*
X1838Y1854D01*
X1844Y1854D01*
X1844Y1852D01*
X1846Y1852D01*
X1846Y1850D01*
X1850Y1850D01*
X1850Y1848D01*
X1854Y1848D01*
X1854Y1846D01*
X1856Y1846D01*
X1856Y1844D01*
X1858Y1844D01*
X1858Y1842D01*
X1860Y1842D01*
X1860Y1840D01*
X1862Y1840D01*
X1862Y1838D01*
X1864Y1838D01*
X1864Y1836D01*
X1866Y1836D01*
X1866Y1834D01*
X1868Y1834D01*
X1868Y1832D01*
X1870Y1832D01*
X1870Y1828D01*
X1872Y1828D01*
X1872Y1826D01*
X1874Y1826D01*
X1874Y1822D01*
X1876Y1822D01*
X1876Y1818D01*
X1878Y1818D01*
X1878Y1812D01*
X1880Y1812D01*
X1880Y1806D01*
X1882Y1806D01*
X1882Y1796D01*
X1884Y1796D01*
X1884Y1780D01*
X1882Y1780D01*
X1882Y1770D01*
X1880Y1770D01*
X1880Y1764D01*
X1878Y1764D01*
X1878Y1758D01*
X1876Y1758D01*
X1876Y1754D01*
X1874Y1754D01*
X1874Y1750D01*
X1872Y1750D01*
X1872Y1748D01*
X1870Y1748D01*
X1870Y1744D01*
X1868Y1744D01*
X1868Y1742D01*
X1866Y1742D01*
X1866Y1740D01*
X1864Y1740D01*
X1864Y1738D01*
X1862Y1738D01*
X1862Y1736D01*
X1860Y1736D01*
X1860Y1734D01*
X1858Y1734D01*
X1858Y1732D01*
X1856Y1732D01*
X1856Y1730D01*
X1854Y1730D01*
X1854Y1728D01*
X1850Y1728D01*
X1850Y1726D01*
X1848Y1726D01*
X1848Y1724D01*
X1844Y1724D01*
X1844Y1722D01*
X1840Y1722D01*
X1840Y1720D01*
X1834Y1720D01*
X1834Y1718D01*
X1826Y1718D01*
X1826Y1716D01*
X1812Y1716D01*
X1812Y1714D01*
X1922Y1714D01*
X1922Y1922D01*
X44Y1922D01*
G37*
D02*
G36*
X44Y1862D02*
X44Y1716D01*
X148Y1716D01*
X148Y1718D01*
X138Y1718D01*
X138Y1720D01*
X132Y1720D01*
X132Y1722D01*
X128Y1722D01*
X128Y1724D01*
X124Y1724D01*
X124Y1726D01*
X120Y1726D01*
X120Y1728D01*
X116Y1728D01*
X116Y1730D01*
X114Y1730D01*
X114Y1732D01*
X110Y1732D01*
X110Y1734D01*
X108Y1734D01*
X108Y1736D01*
X106Y1736D01*
X106Y1738D01*
X104Y1738D01*
X104Y1740D01*
X102Y1740D01*
X102Y1742D01*
X100Y1742D01*
X100Y1746D01*
X98Y1746D01*
X98Y1748D01*
X96Y1748D01*
X96Y1752D01*
X94Y1752D01*
X94Y1756D01*
X92Y1756D01*
X92Y1760D01*
X90Y1760D01*
X90Y1764D01*
X88Y1764D01*
X88Y1770D01*
X86Y1770D01*
X86Y1780D01*
X84Y1780D01*
X84Y1798D01*
X86Y1798D01*
X86Y1808D01*
X88Y1808D01*
X88Y1814D01*
X90Y1814D01*
X90Y1820D01*
X92Y1820D01*
X92Y1824D01*
X94Y1824D01*
X94Y1826D01*
X96Y1826D01*
X96Y1830D01*
X98Y1830D01*
X98Y1832D01*
X100Y1832D01*
X100Y1836D01*
X102Y1836D01*
X102Y1838D01*
X104Y1838D01*
X104Y1840D01*
X106Y1840D01*
X106Y1842D01*
X108Y1842D01*
X108Y1844D01*
X110Y1844D01*
X110Y1846D01*
X112Y1846D01*
X112Y1848D01*
X116Y1848D01*
X116Y1850D01*
X118Y1850D01*
X118Y1852D01*
X122Y1852D01*
X122Y1854D01*
X126Y1854D01*
X126Y1856D01*
X130Y1856D01*
X130Y1858D01*
X136Y1858D01*
X136Y1860D01*
X144Y1860D01*
X144Y1862D01*
X44Y1862D01*
G37*
D02*
G36*
X178Y1860D02*
X178Y1858D01*
X184Y1858D01*
X184Y1856D01*
X188Y1856D01*
X188Y1854D01*
X192Y1854D01*
X192Y1852D01*
X196Y1852D01*
X196Y1850D01*
X200Y1850D01*
X200Y1848D01*
X202Y1848D01*
X202Y1846D01*
X204Y1846D01*
X204Y1844D01*
X206Y1844D01*
X206Y1842D01*
X208Y1842D01*
X208Y1840D01*
X210Y1840D01*
X210Y1838D01*
X212Y1838D01*
X212Y1836D01*
X214Y1836D01*
X214Y1834D01*
X216Y1834D01*
X216Y1832D01*
X218Y1832D01*
X218Y1828D01*
X220Y1828D01*
X220Y1824D01*
X222Y1824D01*
X222Y1820D01*
X224Y1820D01*
X224Y1816D01*
X226Y1816D01*
X226Y1810D01*
X228Y1810D01*
X228Y1802D01*
X230Y1802D01*
X230Y1776D01*
X228Y1776D01*
X228Y1768D01*
X226Y1768D01*
X226Y1762D01*
X224Y1762D01*
X224Y1758D01*
X222Y1758D01*
X222Y1756D01*
X764Y1756D01*
X764Y1754D01*
X770Y1754D01*
X770Y1752D01*
X772Y1752D01*
X772Y1750D01*
X774Y1750D01*
X774Y1748D01*
X776Y1748D01*
X776Y1746D01*
X778Y1746D01*
X778Y1744D01*
X780Y1744D01*
X780Y1740D01*
X782Y1740D01*
X782Y1738D01*
X784Y1738D01*
X784Y1736D01*
X786Y1736D01*
X786Y1734D01*
X788Y1734D01*
X788Y1732D01*
X790Y1732D01*
X790Y1728D01*
X792Y1728D01*
X792Y1726D01*
X794Y1726D01*
X794Y1724D01*
X796Y1724D01*
X796Y1722D01*
X798Y1722D01*
X798Y1720D01*
X800Y1720D01*
X800Y1716D01*
X802Y1716D01*
X802Y1714D01*
X1810Y1714D01*
X1810Y1716D01*
X1794Y1716D01*
X1794Y1718D01*
X1788Y1718D01*
X1788Y1720D01*
X1782Y1720D01*
X1782Y1722D01*
X1778Y1722D01*
X1778Y1724D01*
X1774Y1724D01*
X1774Y1726D01*
X1770Y1726D01*
X1770Y1728D01*
X1768Y1728D01*
X1768Y1730D01*
X1766Y1730D01*
X1766Y1732D01*
X1762Y1732D01*
X1762Y1734D01*
X1760Y1734D01*
X1760Y1736D01*
X1758Y1736D01*
X1758Y1738D01*
X1756Y1738D01*
X1756Y1740D01*
X1754Y1740D01*
X1754Y1744D01*
X1752Y1744D01*
X1752Y1746D01*
X1750Y1746D01*
X1750Y1750D01*
X1748Y1750D01*
X1748Y1752D01*
X1746Y1752D01*
X1746Y1756D01*
X1744Y1756D01*
X1744Y1760D01*
X1742Y1760D01*
X1742Y1766D01*
X1740Y1766D01*
X1740Y1774D01*
X1738Y1774D01*
X1738Y1802D01*
X1740Y1802D01*
X1740Y1810D01*
X1742Y1810D01*
X1742Y1816D01*
X1744Y1816D01*
X1744Y1820D01*
X1746Y1820D01*
X1746Y1824D01*
X1748Y1824D01*
X1748Y1826D01*
X1750Y1826D01*
X1750Y1830D01*
X1752Y1830D01*
X1752Y1832D01*
X1754Y1832D01*
X1754Y1836D01*
X1756Y1836D01*
X1756Y1838D01*
X1758Y1838D01*
X1758Y1840D01*
X1760Y1840D01*
X1760Y1842D01*
X1762Y1842D01*
X1762Y1844D01*
X1766Y1844D01*
X1766Y1846D01*
X1768Y1846D01*
X1768Y1848D01*
X1770Y1848D01*
X1770Y1850D01*
X1774Y1850D01*
X1774Y1852D01*
X1778Y1852D01*
X1778Y1854D01*
X1782Y1854D01*
X1782Y1856D01*
X1788Y1856D01*
X1788Y1858D01*
X1794Y1858D01*
X1794Y1860D01*
X178Y1860D01*
G37*
D02*
G36*
X222Y1756D02*
X222Y1754D01*
X220Y1754D01*
X220Y1750D01*
X218Y1750D01*
X218Y1748D01*
X216Y1748D01*
X216Y1744D01*
X214Y1744D01*
X214Y1742D01*
X212Y1742D01*
X212Y1740D01*
X210Y1740D01*
X210Y1738D01*
X208Y1738D01*
X208Y1736D01*
X206Y1736D01*
X206Y1734D01*
X204Y1734D01*
X204Y1732D01*
X202Y1732D01*
X202Y1730D01*
X198Y1730D01*
X198Y1728D01*
X194Y1728D01*
X194Y1726D01*
X192Y1726D01*
X192Y1724D01*
X188Y1724D01*
X188Y1722D01*
X182Y1722D01*
X182Y1720D01*
X176Y1720D01*
X176Y1718D01*
X166Y1718D01*
X166Y1716D01*
X552Y1716D01*
X552Y1718D01*
X554Y1718D01*
X554Y1720D01*
X556Y1720D01*
X556Y1722D01*
X560Y1722D01*
X560Y1724D01*
X562Y1724D01*
X562Y1726D01*
X564Y1726D01*
X564Y1728D01*
X568Y1728D01*
X568Y1730D01*
X570Y1730D01*
X570Y1732D01*
X572Y1732D01*
X572Y1734D01*
X576Y1734D01*
X576Y1736D01*
X578Y1736D01*
X578Y1738D01*
X580Y1738D01*
X580Y1740D01*
X584Y1740D01*
X584Y1742D01*
X586Y1742D01*
X586Y1744D01*
X590Y1744D01*
X590Y1746D01*
X592Y1746D01*
X592Y1748D01*
X594Y1748D01*
X594Y1750D01*
X598Y1750D01*
X598Y1752D01*
X602Y1752D01*
X602Y1754D01*
X660Y1754D01*
X660Y1756D01*
X222Y1756D01*
G37*
D02*
G36*
X44Y1716D02*
X44Y1714D01*
X548Y1714D01*
X548Y1716D01*
X44Y1716D01*
G37*
D02*
G36*
X44Y1716D02*
X44Y1714D01*
X548Y1714D01*
X548Y1716D01*
X44Y1716D01*
G37*
D02*
G36*
X44Y1714D02*
X44Y1632D01*
X94Y1632D01*
X94Y1630D01*
X100Y1630D01*
X100Y1628D01*
X106Y1628D01*
X106Y1626D01*
X108Y1626D01*
X108Y1624D01*
X112Y1624D01*
X112Y1622D01*
X114Y1622D01*
X114Y1620D01*
X116Y1620D01*
X116Y1618D01*
X118Y1618D01*
X118Y1616D01*
X120Y1616D01*
X120Y1614D01*
X122Y1614D01*
X122Y1612D01*
X124Y1612D01*
X124Y1610D01*
X126Y1610D01*
X126Y1606D01*
X128Y1606D01*
X128Y1602D01*
X130Y1602D01*
X130Y1594D01*
X132Y1594D01*
X132Y1572D01*
X130Y1572D01*
X130Y1566D01*
X128Y1566D01*
X128Y1562D01*
X126Y1562D01*
X126Y1558D01*
X124Y1558D01*
X124Y1554D01*
X122Y1554D01*
X122Y1552D01*
X120Y1552D01*
X120Y1550D01*
X118Y1550D01*
X118Y1548D01*
X116Y1548D01*
X116Y1546D01*
X114Y1546D01*
X114Y1544D01*
X112Y1544D01*
X112Y1522D01*
X114Y1522D01*
X114Y1520D01*
X116Y1520D01*
X116Y1518D01*
X118Y1518D01*
X118Y1516D01*
X120Y1516D01*
X120Y1514D01*
X122Y1514D01*
X122Y1512D01*
X124Y1512D01*
X124Y1510D01*
X126Y1510D01*
X126Y1506D01*
X128Y1506D01*
X128Y1502D01*
X130Y1502D01*
X130Y1494D01*
X132Y1494D01*
X132Y1472D01*
X130Y1472D01*
X130Y1466D01*
X128Y1466D01*
X128Y1462D01*
X126Y1462D01*
X126Y1458D01*
X124Y1458D01*
X124Y1454D01*
X122Y1454D01*
X122Y1452D01*
X120Y1452D01*
X120Y1450D01*
X118Y1450D01*
X118Y1448D01*
X116Y1448D01*
X116Y1446D01*
X114Y1446D01*
X114Y1444D01*
X112Y1444D01*
X112Y1422D01*
X114Y1422D01*
X114Y1420D01*
X116Y1420D01*
X116Y1418D01*
X118Y1418D01*
X118Y1416D01*
X120Y1416D01*
X120Y1414D01*
X122Y1414D01*
X122Y1412D01*
X124Y1412D01*
X124Y1410D01*
X126Y1410D01*
X126Y1406D01*
X128Y1406D01*
X128Y1402D01*
X130Y1402D01*
X130Y1394D01*
X132Y1394D01*
X132Y1372D01*
X130Y1372D01*
X130Y1366D01*
X128Y1366D01*
X128Y1362D01*
X126Y1362D01*
X126Y1358D01*
X124Y1358D01*
X124Y1354D01*
X122Y1354D01*
X122Y1352D01*
X120Y1352D01*
X120Y1350D01*
X118Y1350D01*
X118Y1348D01*
X116Y1348D01*
X116Y1346D01*
X114Y1346D01*
X114Y1344D01*
X112Y1344D01*
X112Y1322D01*
X114Y1322D01*
X114Y1320D01*
X116Y1320D01*
X116Y1318D01*
X118Y1318D01*
X118Y1316D01*
X120Y1316D01*
X120Y1314D01*
X122Y1314D01*
X122Y1312D01*
X124Y1312D01*
X124Y1310D01*
X126Y1310D01*
X126Y1306D01*
X128Y1306D01*
X128Y1304D01*
X274Y1304D01*
X274Y1306D01*
X270Y1306D01*
X270Y1308D01*
X266Y1308D01*
X266Y1310D01*
X264Y1310D01*
X264Y1312D01*
X262Y1312D01*
X262Y1314D01*
X260Y1314D01*
X260Y1316D01*
X258Y1316D01*
X258Y1320D01*
X256Y1320D01*
X256Y1326D01*
X254Y1326D01*
X254Y1340D01*
X256Y1340D01*
X256Y1346D01*
X258Y1346D01*
X258Y1350D01*
X260Y1350D01*
X260Y1352D01*
X262Y1352D01*
X262Y1354D01*
X264Y1354D01*
X264Y1356D01*
X266Y1356D01*
X266Y1358D01*
X270Y1358D01*
X270Y1360D01*
X272Y1360D01*
X272Y1362D01*
X274Y1362D01*
X274Y1366D01*
X276Y1366D01*
X276Y1370D01*
X278Y1370D01*
X278Y1374D01*
X280Y1374D01*
X280Y1378D01*
X282Y1378D01*
X282Y1382D01*
X284Y1382D01*
X284Y1386D01*
X286Y1386D01*
X286Y1390D01*
X288Y1390D01*
X288Y1394D01*
X290Y1394D01*
X290Y1398D01*
X292Y1398D01*
X292Y1402D01*
X294Y1402D01*
X294Y1406D01*
X296Y1406D01*
X296Y1410D01*
X298Y1410D01*
X298Y1414D01*
X300Y1414D01*
X300Y1418D01*
X302Y1418D01*
X302Y1422D01*
X304Y1422D01*
X304Y1426D01*
X306Y1426D01*
X306Y1428D01*
X308Y1428D01*
X308Y1432D01*
X310Y1432D01*
X310Y1436D01*
X312Y1436D01*
X312Y1440D01*
X314Y1440D01*
X314Y1444D01*
X316Y1444D01*
X316Y1448D01*
X318Y1448D01*
X318Y1452D01*
X320Y1452D01*
X320Y1456D01*
X322Y1456D01*
X322Y1460D01*
X324Y1460D01*
X324Y1464D01*
X326Y1464D01*
X326Y1468D01*
X328Y1468D01*
X328Y1472D01*
X330Y1472D01*
X330Y1476D01*
X332Y1476D01*
X332Y1480D01*
X334Y1480D01*
X334Y1484D01*
X336Y1484D01*
X336Y1488D01*
X338Y1488D01*
X338Y1492D01*
X340Y1492D01*
X340Y1496D01*
X342Y1496D01*
X342Y1500D01*
X344Y1500D01*
X344Y1504D01*
X346Y1504D01*
X346Y1508D01*
X348Y1508D01*
X348Y1512D01*
X350Y1512D01*
X350Y1516D01*
X352Y1516D01*
X352Y1520D01*
X354Y1520D01*
X354Y1524D01*
X356Y1524D01*
X356Y1528D01*
X358Y1528D01*
X358Y1532D01*
X360Y1532D01*
X360Y1536D01*
X362Y1536D01*
X362Y1540D01*
X364Y1540D01*
X364Y1544D01*
X366Y1544D01*
X366Y1548D01*
X368Y1548D01*
X368Y1552D01*
X370Y1552D01*
X370Y1556D01*
X372Y1556D01*
X372Y1560D01*
X374Y1560D01*
X374Y1564D01*
X376Y1564D01*
X376Y1568D01*
X378Y1568D01*
X378Y1572D01*
X380Y1572D01*
X380Y1576D01*
X382Y1576D01*
X382Y1580D01*
X384Y1580D01*
X384Y1584D01*
X386Y1584D01*
X386Y1588D01*
X388Y1588D01*
X388Y1592D01*
X390Y1592D01*
X390Y1596D01*
X392Y1596D01*
X392Y1598D01*
X394Y1598D01*
X394Y1600D01*
X396Y1600D01*
X396Y1602D01*
X398Y1602D01*
X398Y1604D01*
X402Y1604D01*
X402Y1606D01*
X404Y1606D01*
X404Y1608D01*
X406Y1608D01*
X406Y1610D01*
X410Y1610D01*
X410Y1612D01*
X412Y1612D01*
X412Y1614D01*
X414Y1614D01*
X414Y1616D01*
X418Y1616D01*
X418Y1618D01*
X420Y1618D01*
X420Y1620D01*
X422Y1620D01*
X422Y1622D01*
X426Y1622D01*
X426Y1624D01*
X428Y1624D01*
X428Y1626D01*
X430Y1626D01*
X430Y1628D01*
X434Y1628D01*
X434Y1630D01*
X436Y1630D01*
X436Y1632D01*
X438Y1632D01*
X438Y1634D01*
X442Y1634D01*
X442Y1636D01*
X444Y1636D01*
X444Y1638D01*
X446Y1638D01*
X446Y1640D01*
X450Y1640D01*
X450Y1642D01*
X452Y1642D01*
X452Y1644D01*
X454Y1644D01*
X454Y1646D01*
X458Y1646D01*
X458Y1648D01*
X460Y1648D01*
X460Y1650D01*
X464Y1650D01*
X464Y1652D01*
X466Y1652D01*
X466Y1654D01*
X468Y1654D01*
X468Y1656D01*
X472Y1656D01*
X472Y1658D01*
X474Y1658D01*
X474Y1660D01*
X476Y1660D01*
X476Y1662D01*
X480Y1662D01*
X480Y1664D01*
X482Y1664D01*
X482Y1666D01*
X484Y1666D01*
X484Y1668D01*
X488Y1668D01*
X488Y1670D01*
X490Y1670D01*
X490Y1672D01*
X492Y1672D01*
X492Y1674D01*
X496Y1674D01*
X496Y1676D01*
X498Y1676D01*
X498Y1678D01*
X500Y1678D01*
X500Y1680D01*
X504Y1680D01*
X504Y1682D01*
X506Y1682D01*
X506Y1684D01*
X508Y1684D01*
X508Y1686D01*
X512Y1686D01*
X512Y1688D01*
X514Y1688D01*
X514Y1690D01*
X516Y1690D01*
X516Y1692D01*
X520Y1692D01*
X520Y1694D01*
X522Y1694D01*
X522Y1696D01*
X524Y1696D01*
X524Y1698D01*
X528Y1698D01*
X528Y1700D01*
X530Y1700D01*
X530Y1702D01*
X532Y1702D01*
X532Y1704D01*
X536Y1704D01*
X536Y1706D01*
X538Y1706D01*
X538Y1708D01*
X540Y1708D01*
X540Y1710D01*
X544Y1710D01*
X544Y1712D01*
X546Y1712D01*
X546Y1714D01*
X44Y1714D01*
G37*
D02*
G36*
X804Y1714D02*
X804Y1712D01*
X1922Y1712D01*
X1922Y1714D01*
X804Y1714D01*
G37*
D02*
G36*
X804Y1714D02*
X804Y1712D01*
X1922Y1712D01*
X1922Y1714D01*
X804Y1714D01*
G37*
D02*
G36*
X662Y1712D02*
X662Y1710D01*
X614Y1710D01*
X614Y1708D01*
X612Y1708D01*
X612Y1706D01*
X610Y1706D01*
X610Y1704D01*
X606Y1704D01*
X606Y1702D01*
X604Y1702D01*
X604Y1700D01*
X600Y1700D01*
X600Y1698D01*
X598Y1698D01*
X598Y1696D01*
X596Y1696D01*
X596Y1694D01*
X592Y1694D01*
X592Y1692D01*
X590Y1692D01*
X590Y1690D01*
X588Y1690D01*
X588Y1688D01*
X584Y1688D01*
X584Y1686D01*
X582Y1686D01*
X582Y1684D01*
X580Y1684D01*
X580Y1682D01*
X576Y1682D01*
X576Y1680D01*
X574Y1680D01*
X574Y1678D01*
X572Y1678D01*
X572Y1676D01*
X568Y1676D01*
X568Y1674D01*
X566Y1674D01*
X566Y1672D01*
X564Y1672D01*
X564Y1670D01*
X560Y1670D01*
X560Y1668D01*
X558Y1668D01*
X558Y1666D01*
X556Y1666D01*
X556Y1664D01*
X552Y1664D01*
X552Y1662D01*
X550Y1662D01*
X550Y1660D01*
X548Y1660D01*
X548Y1658D01*
X544Y1658D01*
X544Y1656D01*
X542Y1656D01*
X542Y1654D01*
X540Y1654D01*
X540Y1652D01*
X536Y1652D01*
X536Y1650D01*
X534Y1650D01*
X534Y1648D01*
X532Y1648D01*
X532Y1646D01*
X528Y1646D01*
X528Y1644D01*
X526Y1644D01*
X526Y1642D01*
X524Y1642D01*
X524Y1640D01*
X520Y1640D01*
X520Y1638D01*
X518Y1638D01*
X518Y1636D01*
X516Y1636D01*
X516Y1634D01*
X512Y1634D01*
X512Y1632D01*
X694Y1632D01*
X694Y1630D01*
X700Y1630D01*
X700Y1628D01*
X706Y1628D01*
X706Y1626D01*
X708Y1626D01*
X708Y1624D01*
X712Y1624D01*
X712Y1622D01*
X714Y1622D01*
X714Y1620D01*
X716Y1620D01*
X716Y1618D01*
X718Y1618D01*
X718Y1616D01*
X720Y1616D01*
X720Y1614D01*
X722Y1614D01*
X722Y1612D01*
X724Y1612D01*
X724Y1610D01*
X726Y1610D01*
X726Y1606D01*
X728Y1606D01*
X728Y1602D01*
X730Y1602D01*
X730Y1594D01*
X732Y1594D01*
X732Y1572D01*
X730Y1572D01*
X730Y1566D01*
X728Y1566D01*
X728Y1562D01*
X726Y1562D01*
X726Y1558D01*
X724Y1558D01*
X724Y1554D01*
X722Y1554D01*
X722Y1552D01*
X720Y1552D01*
X720Y1550D01*
X718Y1550D01*
X718Y1548D01*
X716Y1548D01*
X716Y1546D01*
X714Y1546D01*
X714Y1544D01*
X712Y1544D01*
X712Y1522D01*
X714Y1522D01*
X714Y1520D01*
X716Y1520D01*
X716Y1518D01*
X718Y1518D01*
X718Y1516D01*
X720Y1516D01*
X720Y1514D01*
X722Y1514D01*
X722Y1512D01*
X724Y1512D01*
X724Y1510D01*
X726Y1510D01*
X726Y1506D01*
X728Y1506D01*
X728Y1502D01*
X730Y1502D01*
X730Y1494D01*
X732Y1494D01*
X732Y1472D01*
X730Y1472D01*
X730Y1466D01*
X728Y1466D01*
X728Y1462D01*
X726Y1462D01*
X726Y1458D01*
X724Y1458D01*
X724Y1454D01*
X722Y1454D01*
X722Y1452D01*
X720Y1452D01*
X720Y1450D01*
X718Y1450D01*
X718Y1448D01*
X716Y1448D01*
X716Y1446D01*
X714Y1446D01*
X714Y1444D01*
X712Y1444D01*
X712Y1422D01*
X714Y1422D01*
X714Y1420D01*
X716Y1420D01*
X716Y1418D01*
X718Y1418D01*
X718Y1416D01*
X720Y1416D01*
X720Y1414D01*
X722Y1414D01*
X722Y1412D01*
X724Y1412D01*
X724Y1410D01*
X726Y1410D01*
X726Y1406D01*
X728Y1406D01*
X728Y1402D01*
X730Y1402D01*
X730Y1394D01*
X732Y1394D01*
X732Y1372D01*
X730Y1372D01*
X730Y1366D01*
X728Y1366D01*
X728Y1362D01*
X726Y1362D01*
X726Y1358D01*
X724Y1358D01*
X724Y1354D01*
X722Y1354D01*
X722Y1352D01*
X720Y1352D01*
X720Y1350D01*
X718Y1350D01*
X718Y1348D01*
X716Y1348D01*
X716Y1346D01*
X714Y1346D01*
X714Y1344D01*
X712Y1344D01*
X712Y1322D01*
X714Y1322D01*
X714Y1320D01*
X716Y1320D01*
X716Y1318D01*
X718Y1318D01*
X718Y1316D01*
X720Y1316D01*
X720Y1314D01*
X722Y1314D01*
X722Y1312D01*
X724Y1312D01*
X724Y1310D01*
X726Y1310D01*
X726Y1306D01*
X728Y1306D01*
X728Y1302D01*
X730Y1302D01*
X730Y1294D01*
X732Y1294D01*
X732Y1272D01*
X730Y1272D01*
X730Y1266D01*
X728Y1266D01*
X728Y1262D01*
X726Y1262D01*
X726Y1258D01*
X724Y1258D01*
X724Y1254D01*
X722Y1254D01*
X722Y1252D01*
X720Y1252D01*
X720Y1250D01*
X718Y1250D01*
X718Y1248D01*
X716Y1248D01*
X716Y1246D01*
X714Y1246D01*
X714Y1244D01*
X712Y1244D01*
X712Y1222D01*
X714Y1222D01*
X714Y1220D01*
X716Y1220D01*
X716Y1218D01*
X718Y1218D01*
X718Y1216D01*
X720Y1216D01*
X720Y1214D01*
X722Y1214D01*
X722Y1212D01*
X724Y1212D01*
X724Y1210D01*
X726Y1210D01*
X726Y1206D01*
X728Y1206D01*
X728Y1202D01*
X730Y1202D01*
X730Y1194D01*
X732Y1194D01*
X732Y1174D01*
X734Y1174D01*
X734Y1172D01*
X736Y1172D01*
X736Y1170D01*
X740Y1170D01*
X740Y1168D01*
X742Y1168D01*
X742Y1166D01*
X744Y1166D01*
X744Y1164D01*
X748Y1164D01*
X748Y1162D01*
X750Y1162D01*
X750Y1160D01*
X752Y1160D01*
X752Y1158D01*
X756Y1158D01*
X756Y1156D01*
X758Y1156D01*
X758Y1154D01*
X760Y1154D01*
X760Y1152D01*
X764Y1152D01*
X764Y1150D01*
X766Y1150D01*
X766Y1148D01*
X768Y1148D01*
X768Y1146D01*
X772Y1146D01*
X772Y1144D01*
X774Y1144D01*
X774Y1142D01*
X776Y1142D01*
X776Y1140D01*
X780Y1140D01*
X780Y1138D01*
X782Y1138D01*
X782Y1136D01*
X786Y1136D01*
X786Y1134D01*
X788Y1134D01*
X788Y1132D01*
X790Y1132D01*
X790Y1130D01*
X864Y1130D01*
X864Y1150D01*
X862Y1150D01*
X862Y1576D01*
X860Y1576D01*
X860Y1578D01*
X858Y1578D01*
X858Y1580D01*
X856Y1580D01*
X856Y1584D01*
X854Y1584D01*
X854Y1586D01*
X852Y1586D01*
X852Y1588D01*
X850Y1588D01*
X850Y1590D01*
X848Y1590D01*
X848Y1592D01*
X846Y1592D01*
X846Y1596D01*
X844Y1596D01*
X844Y1598D01*
X842Y1598D01*
X842Y1600D01*
X840Y1600D01*
X840Y1602D01*
X838Y1602D01*
X838Y1604D01*
X836Y1604D01*
X836Y1608D01*
X834Y1608D01*
X834Y1610D01*
X832Y1610D01*
X832Y1612D01*
X830Y1612D01*
X830Y1614D01*
X828Y1614D01*
X828Y1616D01*
X826Y1616D01*
X826Y1620D01*
X824Y1620D01*
X824Y1622D01*
X822Y1622D01*
X822Y1624D01*
X820Y1624D01*
X820Y1626D01*
X818Y1626D01*
X818Y1628D01*
X816Y1628D01*
X816Y1632D01*
X814Y1632D01*
X814Y1634D01*
X812Y1634D01*
X812Y1636D01*
X810Y1636D01*
X810Y1638D01*
X808Y1638D01*
X808Y1640D01*
X806Y1640D01*
X806Y1644D01*
X804Y1644D01*
X804Y1646D01*
X802Y1646D01*
X802Y1648D01*
X800Y1648D01*
X800Y1650D01*
X798Y1650D01*
X798Y1652D01*
X796Y1652D01*
X796Y1656D01*
X794Y1656D01*
X794Y1658D01*
X792Y1658D01*
X792Y1660D01*
X790Y1660D01*
X790Y1662D01*
X788Y1662D01*
X788Y1664D01*
X786Y1664D01*
X786Y1668D01*
X784Y1668D01*
X784Y1670D01*
X782Y1670D01*
X782Y1672D01*
X780Y1672D01*
X780Y1674D01*
X778Y1674D01*
X778Y1678D01*
X776Y1678D01*
X776Y1680D01*
X774Y1680D01*
X774Y1682D01*
X772Y1682D01*
X772Y1684D01*
X770Y1684D01*
X770Y1686D01*
X768Y1686D01*
X768Y1690D01*
X766Y1690D01*
X766Y1692D01*
X764Y1692D01*
X764Y1694D01*
X762Y1694D01*
X762Y1696D01*
X760Y1696D01*
X760Y1698D01*
X758Y1698D01*
X758Y1702D01*
X756Y1702D01*
X756Y1704D01*
X754Y1704D01*
X754Y1706D01*
X752Y1706D01*
X752Y1708D01*
X750Y1708D01*
X750Y1710D01*
X748Y1710D01*
X748Y1712D01*
X662Y1712D01*
G37*
D02*
G36*
X806Y1712D02*
X806Y1710D01*
X808Y1710D01*
X808Y1708D01*
X810Y1708D01*
X810Y1704D01*
X812Y1704D01*
X812Y1702D01*
X814Y1702D01*
X814Y1700D01*
X816Y1700D01*
X816Y1698D01*
X818Y1698D01*
X818Y1696D01*
X820Y1696D01*
X820Y1692D01*
X822Y1692D01*
X822Y1690D01*
X824Y1690D01*
X824Y1688D01*
X826Y1688D01*
X826Y1686D01*
X828Y1686D01*
X828Y1684D01*
X830Y1684D01*
X830Y1680D01*
X832Y1680D01*
X832Y1678D01*
X834Y1678D01*
X834Y1676D01*
X836Y1676D01*
X836Y1674D01*
X838Y1674D01*
X838Y1672D01*
X840Y1672D01*
X840Y1668D01*
X842Y1668D01*
X842Y1666D01*
X844Y1666D01*
X844Y1664D01*
X846Y1664D01*
X846Y1662D01*
X848Y1662D01*
X848Y1660D01*
X850Y1660D01*
X850Y1656D01*
X852Y1656D01*
X852Y1654D01*
X854Y1654D01*
X854Y1652D01*
X856Y1652D01*
X856Y1650D01*
X858Y1650D01*
X858Y1648D01*
X860Y1648D01*
X860Y1644D01*
X862Y1644D01*
X862Y1642D01*
X864Y1642D01*
X864Y1640D01*
X866Y1640D01*
X866Y1638D01*
X868Y1638D01*
X868Y1636D01*
X870Y1636D01*
X870Y1632D01*
X872Y1632D01*
X872Y1630D01*
X874Y1630D01*
X874Y1628D01*
X876Y1628D01*
X876Y1626D01*
X878Y1626D01*
X878Y1624D01*
X880Y1624D01*
X880Y1620D01*
X1424Y1620D01*
X1424Y1612D01*
X1494Y1612D01*
X1494Y1610D01*
X1498Y1610D01*
X1498Y1608D01*
X1502Y1608D01*
X1502Y1606D01*
X1504Y1606D01*
X1504Y1604D01*
X1506Y1604D01*
X1506Y1602D01*
X1508Y1602D01*
X1508Y1598D01*
X1510Y1598D01*
X1510Y1594D01*
X1512Y1594D01*
X1512Y1586D01*
X1514Y1586D01*
X1514Y1580D01*
X1796Y1580D01*
X1796Y1578D01*
X1802Y1578D01*
X1802Y1576D01*
X1806Y1576D01*
X1806Y1574D01*
X1810Y1574D01*
X1810Y1572D01*
X1812Y1572D01*
X1812Y1570D01*
X1814Y1570D01*
X1814Y1568D01*
X1816Y1568D01*
X1816Y1566D01*
X1836Y1566D01*
X1836Y1580D01*
X1922Y1580D01*
X1922Y1712D01*
X806Y1712D01*
G37*
D02*
G36*
X44Y1632D02*
X44Y1628D01*
X66Y1628D01*
X66Y1630D01*
X74Y1630D01*
X74Y1632D01*
X44Y1632D01*
G37*
D02*
G36*
X510Y1632D02*
X510Y1630D01*
X508Y1630D01*
X508Y1628D01*
X504Y1628D01*
X504Y1626D01*
X502Y1626D01*
X502Y1624D01*
X500Y1624D01*
X500Y1622D01*
X496Y1622D01*
X496Y1620D01*
X494Y1620D01*
X494Y1618D01*
X492Y1618D01*
X492Y1616D01*
X488Y1616D01*
X488Y1614D01*
X486Y1614D01*
X486Y1612D01*
X484Y1612D01*
X484Y1610D01*
X480Y1610D01*
X480Y1608D01*
X478Y1608D01*
X478Y1606D01*
X474Y1606D01*
X474Y1604D01*
X472Y1604D01*
X472Y1602D01*
X470Y1602D01*
X470Y1600D01*
X466Y1600D01*
X466Y1598D01*
X464Y1598D01*
X464Y1596D01*
X462Y1596D01*
X462Y1594D01*
X458Y1594D01*
X458Y1592D01*
X456Y1592D01*
X456Y1590D01*
X454Y1590D01*
X454Y1588D01*
X450Y1588D01*
X450Y1586D01*
X448Y1586D01*
X448Y1584D01*
X446Y1584D01*
X446Y1582D01*
X442Y1582D01*
X442Y1580D01*
X440Y1580D01*
X440Y1578D01*
X438Y1578D01*
X438Y1576D01*
X434Y1576D01*
X434Y1574D01*
X432Y1574D01*
X432Y1572D01*
X430Y1572D01*
X430Y1570D01*
X426Y1570D01*
X426Y1566D01*
X424Y1566D01*
X424Y1562D01*
X422Y1562D01*
X422Y1558D01*
X420Y1558D01*
X420Y1554D01*
X418Y1554D01*
X418Y1550D01*
X416Y1550D01*
X416Y1546D01*
X414Y1546D01*
X414Y1542D01*
X412Y1542D01*
X412Y1538D01*
X410Y1538D01*
X410Y1534D01*
X408Y1534D01*
X408Y1530D01*
X406Y1530D01*
X406Y1526D01*
X404Y1526D01*
X404Y1522D01*
X402Y1522D01*
X402Y1518D01*
X400Y1518D01*
X400Y1514D01*
X398Y1514D01*
X398Y1510D01*
X396Y1510D01*
X396Y1506D01*
X394Y1506D01*
X394Y1502D01*
X392Y1502D01*
X392Y1498D01*
X390Y1498D01*
X390Y1494D01*
X388Y1494D01*
X388Y1490D01*
X386Y1490D01*
X386Y1486D01*
X384Y1486D01*
X384Y1482D01*
X382Y1482D01*
X382Y1478D01*
X380Y1478D01*
X380Y1474D01*
X378Y1474D01*
X378Y1470D01*
X376Y1470D01*
X376Y1466D01*
X374Y1466D01*
X374Y1462D01*
X372Y1462D01*
X372Y1458D01*
X370Y1458D01*
X370Y1454D01*
X368Y1454D01*
X368Y1450D01*
X366Y1450D01*
X366Y1446D01*
X364Y1446D01*
X364Y1442D01*
X362Y1442D01*
X362Y1438D01*
X360Y1438D01*
X360Y1434D01*
X358Y1434D01*
X358Y1430D01*
X356Y1430D01*
X356Y1426D01*
X354Y1426D01*
X354Y1422D01*
X352Y1422D01*
X352Y1418D01*
X350Y1418D01*
X350Y1414D01*
X348Y1414D01*
X348Y1410D01*
X346Y1410D01*
X346Y1406D01*
X344Y1406D01*
X344Y1402D01*
X342Y1402D01*
X342Y1398D01*
X340Y1398D01*
X340Y1394D01*
X338Y1394D01*
X338Y1390D01*
X336Y1390D01*
X336Y1386D01*
X334Y1386D01*
X334Y1382D01*
X332Y1382D01*
X332Y1378D01*
X330Y1378D01*
X330Y1374D01*
X328Y1374D01*
X328Y1370D01*
X326Y1370D01*
X326Y1366D01*
X324Y1366D01*
X324Y1362D01*
X322Y1362D01*
X322Y1358D01*
X320Y1358D01*
X320Y1354D01*
X318Y1354D01*
X318Y1350D01*
X316Y1350D01*
X316Y1346D01*
X314Y1346D01*
X314Y1330D01*
X312Y1330D01*
X312Y1322D01*
X310Y1322D01*
X310Y1318D01*
X308Y1318D01*
X308Y1316D01*
X306Y1316D01*
X306Y1312D01*
X304Y1312D01*
X304Y1310D01*
X300Y1310D01*
X300Y1308D01*
X298Y1308D01*
X298Y1306D01*
X292Y1306D01*
X292Y1304D01*
X640Y1304D01*
X640Y1306D01*
X642Y1306D01*
X642Y1310D01*
X644Y1310D01*
X644Y1314D01*
X646Y1314D01*
X646Y1316D01*
X648Y1316D01*
X648Y1318D01*
X650Y1318D01*
X650Y1320D01*
X652Y1320D01*
X652Y1322D01*
X656Y1322D01*
X656Y1344D01*
X654Y1344D01*
X654Y1346D01*
X650Y1346D01*
X650Y1348D01*
X648Y1348D01*
X648Y1350D01*
X646Y1350D01*
X646Y1354D01*
X644Y1354D01*
X644Y1356D01*
X642Y1356D01*
X642Y1360D01*
X640Y1360D01*
X640Y1364D01*
X638Y1364D01*
X638Y1368D01*
X636Y1368D01*
X636Y1378D01*
X634Y1378D01*
X634Y1388D01*
X636Y1388D01*
X636Y1398D01*
X638Y1398D01*
X638Y1404D01*
X640Y1404D01*
X640Y1406D01*
X642Y1406D01*
X642Y1410D01*
X644Y1410D01*
X644Y1414D01*
X646Y1414D01*
X646Y1416D01*
X648Y1416D01*
X648Y1418D01*
X650Y1418D01*
X650Y1420D01*
X652Y1420D01*
X652Y1422D01*
X656Y1422D01*
X656Y1444D01*
X654Y1444D01*
X654Y1446D01*
X650Y1446D01*
X650Y1448D01*
X648Y1448D01*
X648Y1450D01*
X646Y1450D01*
X646Y1454D01*
X644Y1454D01*
X644Y1456D01*
X642Y1456D01*
X642Y1460D01*
X640Y1460D01*
X640Y1464D01*
X638Y1464D01*
X638Y1468D01*
X636Y1468D01*
X636Y1478D01*
X634Y1478D01*
X634Y1488D01*
X636Y1488D01*
X636Y1498D01*
X638Y1498D01*
X638Y1504D01*
X640Y1504D01*
X640Y1506D01*
X642Y1506D01*
X642Y1510D01*
X644Y1510D01*
X644Y1514D01*
X646Y1514D01*
X646Y1516D01*
X648Y1516D01*
X648Y1518D01*
X650Y1518D01*
X650Y1520D01*
X652Y1520D01*
X652Y1522D01*
X656Y1522D01*
X656Y1544D01*
X654Y1544D01*
X654Y1546D01*
X650Y1546D01*
X650Y1548D01*
X648Y1548D01*
X648Y1550D01*
X646Y1550D01*
X646Y1554D01*
X644Y1554D01*
X644Y1556D01*
X642Y1556D01*
X642Y1560D01*
X640Y1560D01*
X640Y1564D01*
X638Y1564D01*
X638Y1568D01*
X636Y1568D01*
X636Y1578D01*
X634Y1578D01*
X634Y1588D01*
X636Y1588D01*
X636Y1598D01*
X638Y1598D01*
X638Y1604D01*
X640Y1604D01*
X640Y1606D01*
X642Y1606D01*
X642Y1610D01*
X644Y1610D01*
X644Y1614D01*
X646Y1614D01*
X646Y1616D01*
X648Y1616D01*
X648Y1618D01*
X650Y1618D01*
X650Y1620D01*
X652Y1620D01*
X652Y1622D01*
X656Y1622D01*
X656Y1624D01*
X658Y1624D01*
X658Y1626D01*
X662Y1626D01*
X662Y1628D01*
X666Y1628D01*
X666Y1630D01*
X674Y1630D01*
X674Y1632D01*
X510Y1632D01*
G37*
D02*
G36*
X882Y1620D02*
X882Y1618D01*
X884Y1618D01*
X884Y1616D01*
X886Y1616D01*
X886Y1614D01*
X888Y1614D01*
X888Y1612D01*
X890Y1612D01*
X890Y1608D01*
X892Y1608D01*
X892Y1606D01*
X894Y1606D01*
X894Y1604D01*
X896Y1604D01*
X896Y1602D01*
X898Y1602D01*
X898Y1600D01*
X900Y1600D01*
X900Y1596D01*
X902Y1596D01*
X902Y1594D01*
X904Y1594D01*
X904Y1588D01*
X906Y1588D01*
X906Y1204D01*
X1004Y1204D01*
X1004Y1206D01*
X996Y1206D01*
X996Y1208D01*
X994Y1208D01*
X994Y1210D01*
X990Y1210D01*
X990Y1212D01*
X988Y1212D01*
X988Y1214D01*
X986Y1214D01*
X986Y1216D01*
X984Y1216D01*
X984Y1220D01*
X982Y1220D01*
X982Y1224D01*
X980Y1224D01*
X980Y1244D01*
X982Y1244D01*
X982Y1248D01*
X984Y1248D01*
X984Y1252D01*
X986Y1252D01*
X986Y1582D01*
X988Y1582D01*
X988Y1592D01*
X990Y1592D01*
X990Y1596D01*
X992Y1596D01*
X992Y1598D01*
X994Y1598D01*
X994Y1600D01*
X996Y1600D01*
X996Y1602D01*
X1000Y1602D01*
X1000Y1604D01*
X1006Y1604D01*
X1006Y1606D01*
X1144Y1606D01*
X1144Y1620D01*
X882Y1620D01*
G37*
D02*
G36*
X1224Y1620D02*
X1224Y1606D01*
X1286Y1606D01*
X1286Y1604D01*
X1294Y1604D01*
X1294Y1602D01*
X1296Y1602D01*
X1296Y1600D01*
X1298Y1600D01*
X1298Y1598D01*
X1300Y1598D01*
X1300Y1596D01*
X1302Y1596D01*
X1302Y1594D01*
X1304Y1594D01*
X1304Y1588D01*
X1306Y1588D01*
X1306Y1550D01*
X1308Y1550D01*
X1308Y1548D01*
X1314Y1548D01*
X1314Y1546D01*
X1320Y1546D01*
X1320Y1544D01*
X1344Y1544D01*
X1344Y1620D01*
X1224Y1620D01*
G37*
D02*
G36*
X1424Y1612D02*
X1424Y1606D01*
X1466Y1606D01*
X1466Y1608D01*
X1470Y1608D01*
X1470Y1610D01*
X1474Y1610D01*
X1474Y1612D01*
X1424Y1612D01*
G37*
D02*
G36*
X1512Y1580D02*
X1512Y1572D01*
X1510Y1572D01*
X1510Y1568D01*
X1508Y1568D01*
X1508Y1566D01*
X1506Y1566D01*
X1506Y1562D01*
X1504Y1562D01*
X1504Y1560D01*
X1500Y1560D01*
X1500Y1558D01*
X1498Y1558D01*
X1498Y1556D01*
X1492Y1556D01*
X1492Y1554D01*
X1742Y1554D01*
X1742Y1558D01*
X1744Y1558D01*
X1744Y1560D01*
X1746Y1560D01*
X1746Y1564D01*
X1748Y1564D01*
X1748Y1566D01*
X1750Y1566D01*
X1750Y1568D01*
X1752Y1568D01*
X1752Y1570D01*
X1756Y1570D01*
X1756Y1572D01*
X1758Y1572D01*
X1758Y1574D01*
X1762Y1574D01*
X1762Y1576D01*
X1766Y1576D01*
X1766Y1578D01*
X1772Y1578D01*
X1772Y1580D01*
X1512Y1580D01*
G37*
D02*
G36*
X1032Y1562D02*
X1032Y1464D01*
X1144Y1464D01*
X1144Y1492D01*
X1140Y1492D01*
X1140Y1494D01*
X1134Y1494D01*
X1134Y1496D01*
X1126Y1496D01*
X1126Y1498D01*
X1120Y1498D01*
X1120Y1500D01*
X1114Y1500D01*
X1114Y1502D01*
X1108Y1502D01*
X1108Y1504D01*
X1074Y1504D01*
X1074Y1506D01*
X1070Y1506D01*
X1070Y1508D01*
X1066Y1508D01*
X1066Y1510D01*
X1064Y1510D01*
X1064Y1512D01*
X1062Y1512D01*
X1062Y1514D01*
X1060Y1514D01*
X1060Y1516D01*
X1058Y1516D01*
X1058Y1520D01*
X1056Y1520D01*
X1056Y1526D01*
X1054Y1526D01*
X1054Y1540D01*
X1056Y1540D01*
X1056Y1562D01*
X1032Y1562D01*
G37*
D02*
G36*
X1224Y1562D02*
X1224Y1466D01*
X1222Y1466D01*
X1222Y1464D01*
X1344Y1464D01*
X1344Y1492D01*
X1340Y1492D01*
X1340Y1494D01*
X1334Y1494D01*
X1334Y1496D01*
X1326Y1496D01*
X1326Y1498D01*
X1320Y1498D01*
X1320Y1500D01*
X1314Y1500D01*
X1314Y1502D01*
X1308Y1502D01*
X1308Y1504D01*
X1300Y1504D01*
X1300Y1506D01*
X1294Y1506D01*
X1294Y1508D01*
X1288Y1508D01*
X1288Y1510D01*
X1280Y1510D01*
X1280Y1512D01*
X1276Y1512D01*
X1276Y1514D01*
X1272Y1514D01*
X1272Y1516D01*
X1268Y1516D01*
X1268Y1518D01*
X1266Y1518D01*
X1266Y1522D01*
X1264Y1522D01*
X1264Y1526D01*
X1262Y1526D01*
X1262Y1562D01*
X1224Y1562D01*
G37*
D02*
G36*
X1424Y1562D02*
X1424Y1554D01*
X1474Y1554D01*
X1474Y1556D01*
X1470Y1556D01*
X1470Y1558D01*
X1466Y1558D01*
X1466Y1560D01*
X1464Y1560D01*
X1464Y1562D01*
X1424Y1562D01*
G37*
D02*
G36*
X1424Y1554D02*
X1424Y1552D01*
X1740Y1552D01*
X1740Y1554D01*
X1424Y1554D01*
G37*
D02*
G36*
X1424Y1554D02*
X1424Y1552D01*
X1740Y1552D01*
X1740Y1554D01*
X1424Y1554D01*
G37*
D02*
G36*
X1424Y1552D02*
X1424Y1488D01*
X1426Y1488D01*
X1426Y1486D01*
X1774Y1486D01*
X1774Y1488D01*
X1766Y1488D01*
X1766Y1490D01*
X1762Y1490D01*
X1762Y1492D01*
X1758Y1492D01*
X1758Y1494D01*
X1756Y1494D01*
X1756Y1496D01*
X1754Y1496D01*
X1754Y1498D01*
X1750Y1498D01*
X1750Y1500D01*
X1748Y1500D01*
X1748Y1504D01*
X1746Y1504D01*
X1746Y1506D01*
X1744Y1506D01*
X1744Y1510D01*
X1742Y1510D01*
X1742Y1512D01*
X1740Y1512D01*
X1740Y1518D01*
X1738Y1518D01*
X1738Y1524D01*
X1736Y1524D01*
X1736Y1542D01*
X1738Y1542D01*
X1738Y1548D01*
X1740Y1548D01*
X1740Y1552D01*
X1424Y1552D01*
G37*
D02*
G36*
X1816Y1500D02*
X1816Y1498D01*
X1814Y1498D01*
X1814Y1496D01*
X1812Y1496D01*
X1812Y1494D01*
X1808Y1494D01*
X1808Y1492D01*
X1804Y1492D01*
X1804Y1490D01*
X1800Y1490D01*
X1800Y1488D01*
X1794Y1488D01*
X1794Y1486D01*
X1836Y1486D01*
X1836Y1500D01*
X1816Y1500D01*
G37*
D02*
G36*
X1426Y1486D02*
X1426Y1484D01*
X1922Y1484D01*
X1922Y1486D01*
X1426Y1486D01*
G37*
D02*
G36*
X1426Y1486D02*
X1426Y1484D01*
X1922Y1484D01*
X1922Y1486D01*
X1426Y1486D01*
G37*
D02*
G36*
X1428Y1484D02*
X1428Y1482D01*
X1430Y1482D01*
X1430Y1480D01*
X1432Y1480D01*
X1432Y1478D01*
X1434Y1478D01*
X1434Y1476D01*
X1436Y1476D01*
X1436Y1474D01*
X1438Y1474D01*
X1438Y1470D01*
X1440Y1470D01*
X1440Y1468D01*
X1442Y1468D01*
X1442Y1466D01*
X1444Y1466D01*
X1444Y1464D01*
X1446Y1464D01*
X1446Y1462D01*
X1448Y1462D01*
X1448Y1458D01*
X1450Y1458D01*
X1450Y1456D01*
X1452Y1456D01*
X1452Y1454D01*
X1454Y1454D01*
X1454Y1452D01*
X1456Y1452D01*
X1456Y1450D01*
X1458Y1450D01*
X1458Y1446D01*
X1460Y1446D01*
X1460Y1444D01*
X1462Y1444D01*
X1462Y1442D01*
X1464Y1442D01*
X1464Y1440D01*
X1466Y1440D01*
X1466Y1438D01*
X1468Y1438D01*
X1468Y1434D01*
X1470Y1434D01*
X1470Y1432D01*
X1472Y1432D01*
X1472Y1430D01*
X1474Y1430D01*
X1474Y1428D01*
X1476Y1428D01*
X1476Y1426D01*
X1478Y1426D01*
X1478Y1422D01*
X1480Y1422D01*
X1480Y1420D01*
X1482Y1420D01*
X1482Y1418D01*
X1484Y1418D01*
X1484Y1416D01*
X1486Y1416D01*
X1486Y1414D01*
X1488Y1414D01*
X1488Y1412D01*
X1494Y1412D01*
X1494Y1410D01*
X1498Y1410D01*
X1498Y1408D01*
X1502Y1408D01*
X1502Y1406D01*
X1504Y1406D01*
X1504Y1404D01*
X1506Y1404D01*
X1506Y1402D01*
X1508Y1402D01*
X1508Y1398D01*
X1510Y1398D01*
X1510Y1394D01*
X1512Y1394D01*
X1512Y1386D01*
X1514Y1386D01*
X1514Y1380D01*
X1512Y1380D01*
X1512Y1372D01*
X1510Y1372D01*
X1510Y1368D01*
X1508Y1368D01*
X1508Y1366D01*
X1506Y1366D01*
X1506Y1362D01*
X1504Y1362D01*
X1504Y1360D01*
X1500Y1360D01*
X1500Y1358D01*
X1498Y1358D01*
X1498Y1356D01*
X1792Y1356D01*
X1792Y1354D01*
X1798Y1354D01*
X1798Y1352D01*
X1804Y1352D01*
X1804Y1350D01*
X1808Y1350D01*
X1808Y1348D01*
X1810Y1348D01*
X1810Y1346D01*
X1814Y1346D01*
X1814Y1344D01*
X1816Y1344D01*
X1816Y1342D01*
X1836Y1342D01*
X1836Y1356D01*
X1922Y1356D01*
X1922Y1484D01*
X1428Y1484D01*
G37*
D02*
G36*
X1032Y1464D02*
X1032Y1462D01*
X1388Y1462D01*
X1388Y1464D01*
X1032Y1464D01*
G37*
D02*
G36*
X1032Y1464D02*
X1032Y1462D01*
X1388Y1462D01*
X1388Y1464D01*
X1032Y1464D01*
G37*
D02*
G36*
X1032Y1462D02*
X1032Y1420D01*
X1224Y1420D01*
X1224Y1354D01*
X1476Y1354D01*
X1476Y1356D01*
X1470Y1356D01*
X1470Y1358D01*
X1466Y1358D01*
X1466Y1360D01*
X1464Y1360D01*
X1464Y1362D01*
X1462Y1362D01*
X1462Y1364D01*
X1460Y1364D01*
X1460Y1366D01*
X1458Y1366D01*
X1458Y1370D01*
X1456Y1370D01*
X1456Y1376D01*
X1454Y1376D01*
X1454Y1386D01*
X1452Y1386D01*
X1452Y1388D01*
X1450Y1388D01*
X1450Y1390D01*
X1448Y1390D01*
X1448Y1392D01*
X1446Y1392D01*
X1446Y1396D01*
X1444Y1396D01*
X1444Y1398D01*
X1442Y1398D01*
X1442Y1400D01*
X1440Y1400D01*
X1440Y1402D01*
X1438Y1402D01*
X1438Y1404D01*
X1436Y1404D01*
X1436Y1406D01*
X1434Y1406D01*
X1434Y1410D01*
X1432Y1410D01*
X1432Y1412D01*
X1430Y1412D01*
X1430Y1414D01*
X1428Y1414D01*
X1428Y1416D01*
X1426Y1416D01*
X1426Y1418D01*
X1424Y1418D01*
X1424Y1422D01*
X1422Y1422D01*
X1422Y1424D01*
X1420Y1424D01*
X1420Y1426D01*
X1418Y1426D01*
X1418Y1428D01*
X1416Y1428D01*
X1416Y1430D01*
X1414Y1430D01*
X1414Y1434D01*
X1412Y1434D01*
X1412Y1436D01*
X1410Y1436D01*
X1410Y1438D01*
X1408Y1438D01*
X1408Y1440D01*
X1406Y1440D01*
X1406Y1442D01*
X1404Y1442D01*
X1404Y1446D01*
X1402Y1446D01*
X1402Y1448D01*
X1400Y1448D01*
X1400Y1450D01*
X1398Y1450D01*
X1398Y1452D01*
X1396Y1452D01*
X1396Y1454D01*
X1394Y1454D01*
X1394Y1458D01*
X1392Y1458D01*
X1392Y1460D01*
X1390Y1460D01*
X1390Y1462D01*
X1032Y1462D01*
G37*
D02*
G36*
X1032Y1420D02*
X1032Y1412D01*
X1094Y1412D01*
X1094Y1410D01*
X1098Y1410D01*
X1098Y1408D01*
X1102Y1408D01*
X1102Y1406D01*
X1144Y1406D01*
X1144Y1420D01*
X1032Y1420D01*
G37*
D02*
G36*
X1032Y1412D02*
X1032Y1354D01*
X1076Y1354D01*
X1076Y1356D01*
X1070Y1356D01*
X1070Y1358D01*
X1066Y1358D01*
X1066Y1360D01*
X1064Y1360D01*
X1064Y1362D01*
X1062Y1362D01*
X1062Y1364D01*
X1060Y1364D01*
X1060Y1366D01*
X1058Y1366D01*
X1058Y1370D01*
X1056Y1370D01*
X1056Y1376D01*
X1054Y1376D01*
X1054Y1390D01*
X1056Y1390D01*
X1056Y1396D01*
X1058Y1396D01*
X1058Y1400D01*
X1060Y1400D01*
X1060Y1402D01*
X1062Y1402D01*
X1062Y1404D01*
X1064Y1404D01*
X1064Y1406D01*
X1066Y1406D01*
X1066Y1408D01*
X1070Y1408D01*
X1070Y1410D01*
X1074Y1410D01*
X1074Y1412D01*
X1032Y1412D01*
G37*
D02*
G36*
X1104Y1362D02*
X1104Y1360D01*
X1100Y1360D01*
X1100Y1358D01*
X1098Y1358D01*
X1098Y1356D01*
X1092Y1356D01*
X1092Y1354D01*
X1144Y1354D01*
X1144Y1362D01*
X1104Y1362D01*
G37*
D02*
G36*
X1492Y1356D02*
X1492Y1354D01*
X1776Y1354D01*
X1776Y1356D01*
X1492Y1356D01*
G37*
D02*
G36*
X1032Y1354D02*
X1032Y1352D01*
X1144Y1352D01*
X1144Y1354D01*
X1032Y1354D01*
G37*
D02*
G36*
X1032Y1354D02*
X1032Y1352D01*
X1144Y1352D01*
X1144Y1354D01*
X1032Y1354D01*
G37*
D02*
G36*
X1224Y1354D02*
X1224Y1352D01*
X1768Y1352D01*
X1768Y1354D01*
X1224Y1354D01*
G37*
D02*
G36*
X1224Y1354D02*
X1224Y1352D01*
X1768Y1352D01*
X1768Y1354D01*
X1224Y1354D01*
G37*
D02*
G36*
X1032Y1352D02*
X1032Y1312D01*
X1094Y1312D01*
X1094Y1310D01*
X1098Y1310D01*
X1098Y1308D01*
X1102Y1308D01*
X1102Y1306D01*
X1104Y1306D01*
X1104Y1304D01*
X1106Y1304D01*
X1106Y1302D01*
X1108Y1302D01*
X1108Y1298D01*
X1110Y1298D01*
X1110Y1294D01*
X1112Y1294D01*
X1112Y1286D01*
X1114Y1286D01*
X1114Y1280D01*
X1112Y1280D01*
X1112Y1272D01*
X1110Y1272D01*
X1110Y1268D01*
X1108Y1268D01*
X1108Y1266D01*
X1106Y1266D01*
X1106Y1264D01*
X1144Y1264D01*
X1144Y1352D01*
X1032Y1352D01*
G37*
D02*
G36*
X1224Y1352D02*
X1224Y1266D01*
X1222Y1266D01*
X1222Y1264D01*
X1764Y1264D01*
X1764Y1266D01*
X1760Y1266D01*
X1760Y1268D01*
X1758Y1268D01*
X1758Y1270D01*
X1754Y1270D01*
X1754Y1272D01*
X1752Y1272D01*
X1752Y1274D01*
X1750Y1274D01*
X1750Y1276D01*
X1748Y1276D01*
X1748Y1278D01*
X1746Y1278D01*
X1746Y1280D01*
X1744Y1280D01*
X1744Y1284D01*
X1742Y1284D01*
X1742Y1288D01*
X1740Y1288D01*
X1740Y1292D01*
X1738Y1292D01*
X1738Y1300D01*
X1736Y1300D01*
X1736Y1316D01*
X1738Y1316D01*
X1738Y1324D01*
X1740Y1324D01*
X1740Y1328D01*
X1742Y1328D01*
X1742Y1332D01*
X1744Y1332D01*
X1744Y1336D01*
X1746Y1336D01*
X1746Y1338D01*
X1748Y1338D01*
X1748Y1340D01*
X1750Y1340D01*
X1750Y1342D01*
X1752Y1342D01*
X1752Y1344D01*
X1754Y1344D01*
X1754Y1346D01*
X1756Y1346D01*
X1756Y1348D01*
X1760Y1348D01*
X1760Y1350D01*
X1764Y1350D01*
X1764Y1352D01*
X1224Y1352D01*
G37*
D02*
G36*
X1032Y1312D02*
X1032Y1254D01*
X1076Y1254D01*
X1076Y1256D01*
X1070Y1256D01*
X1070Y1258D01*
X1066Y1258D01*
X1066Y1260D01*
X1064Y1260D01*
X1064Y1262D01*
X1062Y1262D01*
X1062Y1264D01*
X1060Y1264D01*
X1060Y1266D01*
X1058Y1266D01*
X1058Y1270D01*
X1056Y1270D01*
X1056Y1276D01*
X1054Y1276D01*
X1054Y1290D01*
X1056Y1290D01*
X1056Y1296D01*
X1058Y1296D01*
X1058Y1300D01*
X1060Y1300D01*
X1060Y1302D01*
X1062Y1302D01*
X1062Y1304D01*
X1064Y1304D01*
X1064Y1306D01*
X1066Y1306D01*
X1066Y1308D01*
X1070Y1308D01*
X1070Y1310D01*
X1074Y1310D01*
X1074Y1312D01*
X1032Y1312D01*
G37*
D02*
G36*
X128Y1304D02*
X128Y1302D01*
X638Y1302D01*
X638Y1304D01*
X128Y1304D01*
G37*
D02*
G36*
X128Y1304D02*
X128Y1302D01*
X638Y1302D01*
X638Y1304D01*
X128Y1304D01*
G37*
D02*
G36*
X130Y1302D02*
X130Y1294D01*
X132Y1294D01*
X132Y1272D01*
X130Y1272D01*
X130Y1266D01*
X128Y1266D01*
X128Y1262D01*
X126Y1262D01*
X126Y1258D01*
X124Y1258D01*
X124Y1254D01*
X122Y1254D01*
X122Y1252D01*
X120Y1252D01*
X120Y1250D01*
X118Y1250D01*
X118Y1248D01*
X116Y1248D01*
X116Y1246D01*
X114Y1246D01*
X114Y1244D01*
X112Y1244D01*
X112Y1222D01*
X114Y1222D01*
X114Y1220D01*
X116Y1220D01*
X116Y1218D01*
X118Y1218D01*
X118Y1216D01*
X120Y1216D01*
X120Y1214D01*
X122Y1214D01*
X122Y1212D01*
X124Y1212D01*
X124Y1210D01*
X126Y1210D01*
X126Y1206D01*
X128Y1206D01*
X128Y1202D01*
X130Y1202D01*
X130Y1194D01*
X132Y1194D01*
X132Y1184D01*
X394Y1184D01*
X394Y1182D01*
X400Y1182D01*
X400Y1180D01*
X404Y1180D01*
X404Y1178D01*
X408Y1178D01*
X408Y1176D01*
X410Y1176D01*
X410Y1174D01*
X412Y1174D01*
X412Y1172D01*
X416Y1172D01*
X416Y1168D01*
X418Y1168D01*
X418Y1166D01*
X420Y1166D01*
X420Y1164D01*
X422Y1164D01*
X422Y1160D01*
X424Y1160D01*
X424Y1156D01*
X426Y1156D01*
X426Y1150D01*
X428Y1150D01*
X428Y1128D01*
X426Y1128D01*
X426Y1122D01*
X424Y1122D01*
X424Y1118D01*
X422Y1118D01*
X422Y1114D01*
X420Y1114D01*
X420Y1112D01*
X418Y1112D01*
X418Y1110D01*
X416Y1110D01*
X416Y1108D01*
X414Y1108D01*
X414Y1106D01*
X412Y1106D01*
X412Y1104D01*
X410Y1104D01*
X410Y1102D01*
X408Y1102D01*
X408Y1100D01*
X404Y1100D01*
X404Y1098D01*
X398Y1098D01*
X398Y1096D01*
X392Y1096D01*
X392Y1094D01*
X636Y1094D01*
X636Y1098D01*
X638Y1098D01*
X638Y1104D01*
X640Y1104D01*
X640Y1106D01*
X642Y1106D01*
X642Y1110D01*
X644Y1110D01*
X644Y1114D01*
X646Y1114D01*
X646Y1116D01*
X648Y1116D01*
X648Y1118D01*
X650Y1118D01*
X650Y1120D01*
X652Y1120D01*
X652Y1122D01*
X656Y1122D01*
X656Y1144D01*
X654Y1144D01*
X654Y1146D01*
X650Y1146D01*
X650Y1148D01*
X648Y1148D01*
X648Y1150D01*
X646Y1150D01*
X646Y1154D01*
X644Y1154D01*
X644Y1156D01*
X642Y1156D01*
X642Y1160D01*
X640Y1160D01*
X640Y1164D01*
X638Y1164D01*
X638Y1168D01*
X636Y1168D01*
X636Y1178D01*
X634Y1178D01*
X634Y1188D01*
X636Y1188D01*
X636Y1198D01*
X638Y1198D01*
X638Y1204D01*
X640Y1204D01*
X640Y1206D01*
X642Y1206D01*
X642Y1210D01*
X644Y1210D01*
X644Y1214D01*
X646Y1214D01*
X646Y1216D01*
X648Y1216D01*
X648Y1218D01*
X650Y1218D01*
X650Y1220D01*
X652Y1220D01*
X652Y1222D01*
X656Y1222D01*
X656Y1244D01*
X654Y1244D01*
X654Y1246D01*
X650Y1246D01*
X650Y1248D01*
X648Y1248D01*
X648Y1250D01*
X646Y1250D01*
X646Y1254D01*
X644Y1254D01*
X644Y1256D01*
X642Y1256D01*
X642Y1260D01*
X640Y1260D01*
X640Y1264D01*
X638Y1264D01*
X638Y1268D01*
X636Y1268D01*
X636Y1278D01*
X634Y1278D01*
X634Y1288D01*
X636Y1288D01*
X636Y1298D01*
X638Y1298D01*
X638Y1302D01*
X130Y1302D01*
G37*
D02*
G36*
X1816Y1274D02*
X1816Y1272D01*
X1812Y1272D01*
X1812Y1270D01*
X1810Y1270D01*
X1810Y1268D01*
X1806Y1268D01*
X1806Y1266D01*
X1804Y1266D01*
X1804Y1264D01*
X1798Y1264D01*
X1798Y1262D01*
X1788Y1262D01*
X1788Y1260D01*
X1836Y1260D01*
X1836Y1274D01*
X1816Y1274D01*
G37*
D02*
G36*
X1106Y1264D02*
X1106Y1262D01*
X1770Y1262D01*
X1770Y1264D01*
X1106Y1264D01*
G37*
D02*
G36*
X1106Y1264D02*
X1106Y1262D01*
X1770Y1262D01*
X1770Y1264D01*
X1106Y1264D01*
G37*
D02*
G36*
X1104Y1262D02*
X1104Y1260D01*
X1780Y1260D01*
X1780Y1262D01*
X1104Y1262D01*
G37*
D02*
G36*
X1100Y1260D02*
X1100Y1258D01*
X1922Y1258D01*
X1922Y1260D01*
X1100Y1260D01*
G37*
D02*
G36*
X1100Y1260D02*
X1100Y1258D01*
X1922Y1258D01*
X1922Y1260D01*
X1100Y1260D01*
G37*
D02*
G36*
X1098Y1258D02*
X1098Y1256D01*
X1092Y1256D01*
X1092Y1254D01*
X1922Y1254D01*
X1922Y1258D01*
X1098Y1258D01*
G37*
D02*
G36*
X1032Y1254D02*
X1032Y1252D01*
X1922Y1252D01*
X1922Y1254D01*
X1032Y1254D01*
G37*
D02*
G36*
X1032Y1254D02*
X1032Y1252D01*
X1922Y1252D01*
X1922Y1254D01*
X1032Y1254D01*
G37*
D02*
G36*
X1034Y1252D02*
X1034Y1248D01*
X1036Y1248D01*
X1036Y1244D01*
X1038Y1244D01*
X1038Y1224D01*
X1036Y1224D01*
X1036Y1220D01*
X1034Y1220D01*
X1034Y1216D01*
X1032Y1216D01*
X1032Y1214D01*
X1030Y1214D01*
X1030Y1212D01*
X1028Y1212D01*
X1028Y1210D01*
X1024Y1210D01*
X1024Y1208D01*
X1022Y1208D01*
X1022Y1206D01*
X1014Y1206D01*
X1014Y1204D01*
X1922Y1204D01*
X1922Y1252D01*
X1034Y1252D01*
G37*
D02*
G36*
X906Y1204D02*
X906Y1202D01*
X1922Y1202D01*
X1922Y1204D01*
X906Y1204D01*
G37*
D02*
G36*
X906Y1204D02*
X906Y1202D01*
X1922Y1202D01*
X1922Y1204D01*
X906Y1204D01*
G37*
D02*
G36*
X906Y1202D02*
X906Y1180D01*
X1214Y1180D01*
X1214Y1178D01*
X1220Y1178D01*
X1220Y1176D01*
X1222Y1176D01*
X1222Y1174D01*
X1224Y1174D01*
X1224Y1172D01*
X1226Y1172D01*
X1226Y1170D01*
X1228Y1170D01*
X1228Y1168D01*
X1230Y1168D01*
X1230Y1166D01*
X1232Y1166D01*
X1232Y1164D01*
X1234Y1164D01*
X1234Y1162D01*
X1236Y1162D01*
X1236Y1160D01*
X1238Y1160D01*
X1238Y1158D01*
X1240Y1158D01*
X1240Y1156D01*
X1242Y1156D01*
X1242Y1154D01*
X1244Y1154D01*
X1244Y1152D01*
X1246Y1152D01*
X1246Y1150D01*
X1248Y1150D01*
X1248Y1148D01*
X1250Y1148D01*
X1250Y1146D01*
X1252Y1146D01*
X1252Y1144D01*
X1254Y1144D01*
X1254Y1142D01*
X1256Y1142D01*
X1256Y1140D01*
X1258Y1140D01*
X1258Y1138D01*
X1260Y1138D01*
X1260Y1136D01*
X1262Y1136D01*
X1262Y1134D01*
X1264Y1134D01*
X1264Y1132D01*
X1896Y1132D01*
X1896Y1130D01*
X1902Y1130D01*
X1902Y1128D01*
X1922Y1128D01*
X1922Y1202D01*
X906Y1202D01*
G37*
D02*
G36*
X132Y1184D02*
X132Y1172D01*
X130Y1172D01*
X130Y1166D01*
X128Y1166D01*
X128Y1162D01*
X126Y1162D01*
X126Y1158D01*
X124Y1158D01*
X124Y1154D01*
X122Y1154D01*
X122Y1152D01*
X120Y1152D01*
X120Y1150D01*
X118Y1150D01*
X118Y1148D01*
X116Y1148D01*
X116Y1146D01*
X114Y1146D01*
X114Y1144D01*
X112Y1144D01*
X112Y1122D01*
X114Y1122D01*
X114Y1120D01*
X116Y1120D01*
X116Y1118D01*
X118Y1118D01*
X118Y1116D01*
X120Y1116D01*
X120Y1114D01*
X122Y1114D01*
X122Y1112D01*
X124Y1112D01*
X124Y1110D01*
X126Y1110D01*
X126Y1106D01*
X128Y1106D01*
X128Y1102D01*
X130Y1102D01*
X130Y1094D01*
X376Y1094D01*
X376Y1096D01*
X368Y1096D01*
X368Y1098D01*
X364Y1098D01*
X364Y1100D01*
X360Y1100D01*
X360Y1102D01*
X358Y1102D01*
X358Y1104D01*
X354Y1104D01*
X354Y1106D01*
X352Y1106D01*
X352Y1108D01*
X350Y1108D01*
X350Y1110D01*
X348Y1110D01*
X348Y1114D01*
X346Y1114D01*
X346Y1116D01*
X344Y1116D01*
X344Y1120D01*
X342Y1120D01*
X342Y1126D01*
X340Y1126D01*
X340Y1134D01*
X338Y1134D01*
X338Y1144D01*
X340Y1144D01*
X340Y1152D01*
X342Y1152D01*
X342Y1158D01*
X344Y1158D01*
X344Y1162D01*
X346Y1162D01*
X346Y1166D01*
X348Y1166D01*
X348Y1168D01*
X350Y1168D01*
X350Y1170D01*
X352Y1170D01*
X352Y1172D01*
X354Y1172D01*
X354Y1174D01*
X356Y1174D01*
X356Y1176D01*
X360Y1176D01*
X360Y1178D01*
X364Y1178D01*
X364Y1180D01*
X368Y1180D01*
X368Y1182D01*
X374Y1182D01*
X374Y1184D01*
X132Y1184D01*
G37*
D02*
G36*
X1294Y1132D02*
X1294Y1130D01*
X1300Y1130D01*
X1300Y1128D01*
X1306Y1128D01*
X1306Y1126D01*
X1308Y1126D01*
X1308Y1124D01*
X1312Y1124D01*
X1312Y1122D01*
X1314Y1122D01*
X1314Y1120D01*
X1316Y1120D01*
X1316Y1118D01*
X1318Y1118D01*
X1318Y1116D01*
X1320Y1116D01*
X1320Y1114D01*
X1322Y1114D01*
X1322Y1112D01*
X1324Y1112D01*
X1324Y1110D01*
X1326Y1110D01*
X1326Y1106D01*
X1328Y1106D01*
X1328Y1102D01*
X1330Y1102D01*
X1330Y1094D01*
X1332Y1094D01*
X1332Y1072D01*
X1330Y1072D01*
X1330Y1066D01*
X1328Y1066D01*
X1328Y1062D01*
X1326Y1062D01*
X1326Y1058D01*
X1324Y1058D01*
X1324Y1054D01*
X1322Y1054D01*
X1322Y1052D01*
X1320Y1052D01*
X1320Y1050D01*
X1318Y1050D01*
X1318Y1048D01*
X1316Y1048D01*
X1316Y1046D01*
X1314Y1046D01*
X1314Y1044D01*
X1312Y1044D01*
X1312Y1022D01*
X1314Y1022D01*
X1314Y1020D01*
X1316Y1020D01*
X1316Y1018D01*
X1318Y1018D01*
X1318Y1016D01*
X1320Y1016D01*
X1320Y1014D01*
X1322Y1014D01*
X1322Y1012D01*
X1324Y1012D01*
X1324Y1010D01*
X1326Y1010D01*
X1326Y1006D01*
X1328Y1006D01*
X1328Y1002D01*
X1330Y1002D01*
X1330Y994D01*
X1332Y994D01*
X1332Y972D01*
X1330Y972D01*
X1330Y966D01*
X1328Y966D01*
X1328Y962D01*
X1326Y962D01*
X1326Y958D01*
X1324Y958D01*
X1324Y954D01*
X1322Y954D01*
X1322Y952D01*
X1320Y952D01*
X1320Y950D01*
X1318Y950D01*
X1318Y948D01*
X1316Y948D01*
X1316Y946D01*
X1314Y946D01*
X1314Y944D01*
X1312Y944D01*
X1312Y922D01*
X1314Y922D01*
X1314Y920D01*
X1316Y920D01*
X1316Y918D01*
X1318Y918D01*
X1318Y916D01*
X1320Y916D01*
X1320Y914D01*
X1322Y914D01*
X1322Y912D01*
X1324Y912D01*
X1324Y910D01*
X1326Y910D01*
X1326Y906D01*
X1328Y906D01*
X1328Y902D01*
X1330Y902D01*
X1330Y894D01*
X1332Y894D01*
X1332Y872D01*
X1330Y872D01*
X1330Y866D01*
X1328Y866D01*
X1328Y862D01*
X1326Y862D01*
X1326Y858D01*
X1324Y858D01*
X1324Y854D01*
X1322Y854D01*
X1322Y852D01*
X1320Y852D01*
X1320Y850D01*
X1318Y850D01*
X1318Y848D01*
X1316Y848D01*
X1316Y846D01*
X1314Y846D01*
X1314Y844D01*
X1312Y844D01*
X1312Y842D01*
X1308Y842D01*
X1308Y840D01*
X1304Y840D01*
X1304Y838D01*
X1300Y838D01*
X1300Y836D01*
X1292Y836D01*
X1292Y834D01*
X1386Y834D01*
X1386Y838D01*
X1388Y838D01*
X1388Y1092D01*
X1390Y1092D01*
X1390Y1096D01*
X1392Y1096D01*
X1392Y1098D01*
X1394Y1098D01*
X1394Y1100D01*
X1396Y1100D01*
X1396Y1102D01*
X1400Y1102D01*
X1400Y1104D01*
X1406Y1104D01*
X1406Y1106D01*
X1540Y1106D01*
X1540Y1108D01*
X1542Y1108D01*
X1542Y1112D01*
X1544Y1112D01*
X1544Y1114D01*
X1546Y1114D01*
X1546Y1116D01*
X1548Y1116D01*
X1548Y1118D01*
X1550Y1118D01*
X1550Y1120D01*
X1552Y1120D01*
X1552Y1122D01*
X1554Y1122D01*
X1554Y1124D01*
X1558Y1124D01*
X1558Y1126D01*
X1560Y1126D01*
X1560Y1128D01*
X1564Y1128D01*
X1564Y1130D01*
X1570Y1130D01*
X1570Y1132D01*
X1294Y1132D01*
G37*
D02*
G36*
X1596Y1132D02*
X1596Y1130D01*
X1602Y1130D01*
X1602Y1128D01*
X1606Y1128D01*
X1606Y1126D01*
X1610Y1126D01*
X1610Y1124D01*
X1614Y1124D01*
X1614Y1122D01*
X1616Y1122D01*
X1616Y1120D01*
X1618Y1120D01*
X1618Y1118D01*
X1620Y1118D01*
X1620Y1116D01*
X1622Y1116D01*
X1622Y1114D01*
X1624Y1114D01*
X1624Y1110D01*
X1626Y1110D01*
X1626Y1106D01*
X1628Y1106D01*
X1628Y1104D01*
X1630Y1104D01*
X1630Y1102D01*
X1650Y1102D01*
X1650Y1104D01*
X1656Y1104D01*
X1656Y1106D01*
X1840Y1106D01*
X1840Y1108D01*
X1842Y1108D01*
X1842Y1112D01*
X1844Y1112D01*
X1844Y1114D01*
X1846Y1114D01*
X1846Y1116D01*
X1848Y1116D01*
X1848Y1118D01*
X1850Y1118D01*
X1850Y1120D01*
X1852Y1120D01*
X1852Y1122D01*
X1854Y1122D01*
X1854Y1124D01*
X1858Y1124D01*
X1858Y1126D01*
X1860Y1126D01*
X1860Y1128D01*
X1864Y1128D01*
X1864Y1130D01*
X1870Y1130D01*
X1870Y1132D01*
X1596Y1132D01*
G37*
D02*
G36*
X1206Y1110D02*
X1206Y834D01*
X1276Y834D01*
X1276Y836D01*
X1268Y836D01*
X1268Y838D01*
X1262Y838D01*
X1262Y840D01*
X1260Y840D01*
X1260Y842D01*
X1256Y842D01*
X1256Y844D01*
X1254Y844D01*
X1254Y846D01*
X1250Y846D01*
X1250Y848D01*
X1248Y848D01*
X1248Y850D01*
X1246Y850D01*
X1246Y854D01*
X1244Y854D01*
X1244Y856D01*
X1242Y856D01*
X1242Y860D01*
X1240Y860D01*
X1240Y864D01*
X1238Y864D01*
X1238Y868D01*
X1236Y868D01*
X1236Y878D01*
X1234Y878D01*
X1234Y888D01*
X1236Y888D01*
X1236Y898D01*
X1238Y898D01*
X1238Y904D01*
X1240Y904D01*
X1240Y906D01*
X1242Y906D01*
X1242Y910D01*
X1244Y910D01*
X1244Y914D01*
X1246Y914D01*
X1246Y916D01*
X1248Y916D01*
X1248Y918D01*
X1250Y918D01*
X1250Y920D01*
X1252Y920D01*
X1252Y922D01*
X1256Y922D01*
X1256Y944D01*
X1254Y944D01*
X1254Y946D01*
X1250Y946D01*
X1250Y948D01*
X1248Y948D01*
X1248Y950D01*
X1246Y950D01*
X1246Y954D01*
X1244Y954D01*
X1244Y956D01*
X1242Y956D01*
X1242Y960D01*
X1240Y960D01*
X1240Y964D01*
X1238Y964D01*
X1238Y968D01*
X1236Y968D01*
X1236Y978D01*
X1234Y978D01*
X1234Y988D01*
X1236Y988D01*
X1236Y998D01*
X1238Y998D01*
X1238Y1004D01*
X1240Y1004D01*
X1240Y1006D01*
X1242Y1006D01*
X1242Y1010D01*
X1244Y1010D01*
X1244Y1014D01*
X1246Y1014D01*
X1246Y1016D01*
X1248Y1016D01*
X1248Y1018D01*
X1250Y1018D01*
X1250Y1020D01*
X1252Y1020D01*
X1252Y1022D01*
X1256Y1022D01*
X1256Y1044D01*
X1254Y1044D01*
X1254Y1046D01*
X1250Y1046D01*
X1250Y1048D01*
X1248Y1048D01*
X1248Y1050D01*
X1246Y1050D01*
X1246Y1054D01*
X1244Y1054D01*
X1244Y1056D01*
X1242Y1056D01*
X1242Y1060D01*
X1240Y1060D01*
X1240Y1064D01*
X1238Y1064D01*
X1238Y1068D01*
X1236Y1068D01*
X1236Y1078D01*
X1234Y1078D01*
X1234Y1102D01*
X1232Y1102D01*
X1232Y1104D01*
X1230Y1104D01*
X1230Y1106D01*
X1228Y1106D01*
X1228Y1108D01*
X1226Y1108D01*
X1226Y1110D01*
X1206Y1110D01*
G37*
D02*
G36*
X132Y1094D02*
X132Y1092D01*
X636Y1092D01*
X636Y1094D01*
X132Y1094D01*
G37*
D02*
G36*
X132Y1094D02*
X132Y1092D01*
X636Y1092D01*
X636Y1094D01*
X132Y1094D01*
G37*
D02*
G36*
X132Y1092D02*
X132Y1072D01*
X130Y1072D01*
X130Y1066D01*
X128Y1066D01*
X128Y1062D01*
X126Y1062D01*
X126Y1058D01*
X124Y1058D01*
X124Y1054D01*
X122Y1054D01*
X122Y1052D01*
X120Y1052D01*
X120Y1050D01*
X118Y1050D01*
X118Y1048D01*
X116Y1048D01*
X116Y1046D01*
X114Y1046D01*
X114Y1044D01*
X112Y1044D01*
X112Y1022D01*
X114Y1022D01*
X114Y1020D01*
X116Y1020D01*
X116Y1018D01*
X118Y1018D01*
X118Y1016D01*
X120Y1016D01*
X120Y1014D01*
X122Y1014D01*
X122Y1012D01*
X124Y1012D01*
X124Y1010D01*
X126Y1010D01*
X126Y1006D01*
X128Y1006D01*
X128Y1002D01*
X130Y1002D01*
X130Y994D01*
X132Y994D01*
X132Y964D01*
X134Y964D01*
X134Y962D01*
X136Y962D01*
X136Y960D01*
X138Y960D01*
X138Y958D01*
X140Y958D01*
X140Y956D01*
X142Y956D01*
X142Y954D01*
X144Y954D01*
X144Y952D01*
X146Y952D01*
X146Y950D01*
X148Y950D01*
X148Y948D01*
X150Y948D01*
X150Y946D01*
X152Y946D01*
X152Y944D01*
X154Y944D01*
X154Y942D01*
X156Y942D01*
X156Y940D01*
X158Y940D01*
X158Y938D01*
X160Y938D01*
X160Y936D01*
X162Y936D01*
X162Y934D01*
X164Y934D01*
X164Y932D01*
X166Y932D01*
X166Y930D01*
X168Y930D01*
X168Y928D01*
X394Y928D01*
X394Y926D01*
X400Y926D01*
X400Y924D01*
X404Y924D01*
X404Y922D01*
X408Y922D01*
X408Y920D01*
X410Y920D01*
X410Y918D01*
X414Y918D01*
X414Y916D01*
X416Y916D01*
X416Y914D01*
X418Y914D01*
X418Y910D01*
X420Y910D01*
X420Y908D01*
X422Y908D01*
X422Y904D01*
X424Y904D01*
X424Y900D01*
X426Y900D01*
X426Y894D01*
X428Y894D01*
X428Y872D01*
X426Y872D01*
X426Y866D01*
X424Y866D01*
X424Y862D01*
X422Y862D01*
X422Y858D01*
X420Y858D01*
X420Y856D01*
X418Y856D01*
X418Y854D01*
X416Y854D01*
X416Y852D01*
X414Y852D01*
X414Y850D01*
X412Y850D01*
X412Y848D01*
X410Y848D01*
X410Y846D01*
X406Y846D01*
X406Y844D01*
X404Y844D01*
X404Y842D01*
X402Y842D01*
X402Y822D01*
X406Y822D01*
X406Y820D01*
X410Y820D01*
X410Y818D01*
X414Y818D01*
X414Y816D01*
X418Y816D01*
X418Y814D01*
X422Y814D01*
X422Y812D01*
X426Y812D01*
X426Y810D01*
X430Y810D01*
X430Y808D01*
X434Y808D01*
X434Y806D01*
X438Y806D01*
X438Y804D01*
X442Y804D01*
X442Y802D01*
X446Y802D01*
X446Y800D01*
X450Y800D01*
X450Y798D01*
X454Y798D01*
X454Y796D01*
X458Y796D01*
X458Y794D01*
X462Y794D01*
X462Y792D01*
X466Y792D01*
X466Y790D01*
X470Y790D01*
X470Y788D01*
X474Y788D01*
X474Y786D01*
X478Y786D01*
X478Y784D01*
X482Y784D01*
X482Y782D01*
X486Y782D01*
X486Y780D01*
X490Y780D01*
X490Y778D01*
X494Y778D01*
X494Y776D01*
X498Y776D01*
X498Y774D01*
X502Y774D01*
X502Y772D01*
X506Y772D01*
X506Y770D01*
X510Y770D01*
X510Y768D01*
X514Y768D01*
X514Y766D01*
X518Y766D01*
X518Y764D01*
X522Y764D01*
X522Y762D01*
X526Y762D01*
X526Y760D01*
X530Y760D01*
X530Y758D01*
X534Y758D01*
X534Y756D01*
X538Y756D01*
X538Y754D01*
X542Y754D01*
X542Y752D01*
X546Y752D01*
X546Y750D01*
X550Y750D01*
X550Y748D01*
X554Y748D01*
X554Y746D01*
X558Y746D01*
X558Y744D01*
X562Y744D01*
X562Y742D01*
X566Y742D01*
X566Y740D01*
X570Y740D01*
X570Y738D01*
X574Y738D01*
X574Y736D01*
X578Y736D01*
X578Y734D01*
X582Y734D01*
X582Y732D01*
X586Y732D01*
X586Y730D01*
X590Y730D01*
X590Y728D01*
X594Y728D01*
X594Y726D01*
X598Y726D01*
X598Y724D01*
X600Y724D01*
X600Y722D01*
X602Y722D01*
X602Y718D01*
X604Y718D01*
X604Y712D01*
X606Y712D01*
X606Y434D01*
X676Y434D01*
X676Y436D01*
X668Y436D01*
X668Y438D01*
X662Y438D01*
X662Y440D01*
X660Y440D01*
X660Y442D01*
X656Y442D01*
X656Y444D01*
X654Y444D01*
X654Y446D01*
X650Y446D01*
X650Y448D01*
X648Y448D01*
X648Y450D01*
X646Y450D01*
X646Y454D01*
X644Y454D01*
X644Y456D01*
X642Y456D01*
X642Y460D01*
X640Y460D01*
X640Y464D01*
X638Y464D01*
X638Y468D01*
X636Y468D01*
X636Y478D01*
X634Y478D01*
X634Y488D01*
X636Y488D01*
X636Y498D01*
X638Y498D01*
X638Y504D01*
X640Y504D01*
X640Y506D01*
X642Y506D01*
X642Y510D01*
X644Y510D01*
X644Y514D01*
X646Y514D01*
X646Y516D01*
X648Y516D01*
X648Y518D01*
X650Y518D01*
X650Y520D01*
X652Y520D01*
X652Y522D01*
X656Y522D01*
X656Y544D01*
X654Y544D01*
X654Y546D01*
X650Y546D01*
X650Y548D01*
X648Y548D01*
X648Y550D01*
X646Y550D01*
X646Y554D01*
X644Y554D01*
X644Y556D01*
X642Y556D01*
X642Y560D01*
X640Y560D01*
X640Y564D01*
X638Y564D01*
X638Y568D01*
X636Y568D01*
X636Y578D01*
X634Y578D01*
X634Y588D01*
X636Y588D01*
X636Y598D01*
X638Y598D01*
X638Y604D01*
X640Y604D01*
X640Y606D01*
X642Y606D01*
X642Y610D01*
X644Y610D01*
X644Y614D01*
X646Y614D01*
X646Y616D01*
X648Y616D01*
X648Y618D01*
X650Y618D01*
X650Y620D01*
X652Y620D01*
X652Y622D01*
X656Y622D01*
X656Y644D01*
X654Y644D01*
X654Y646D01*
X650Y646D01*
X650Y648D01*
X648Y648D01*
X648Y650D01*
X646Y650D01*
X646Y654D01*
X644Y654D01*
X644Y656D01*
X642Y656D01*
X642Y660D01*
X640Y660D01*
X640Y664D01*
X638Y664D01*
X638Y668D01*
X636Y668D01*
X636Y678D01*
X634Y678D01*
X634Y688D01*
X636Y688D01*
X636Y698D01*
X638Y698D01*
X638Y704D01*
X640Y704D01*
X640Y706D01*
X642Y706D01*
X642Y710D01*
X644Y710D01*
X644Y714D01*
X646Y714D01*
X646Y716D01*
X648Y716D01*
X648Y718D01*
X650Y718D01*
X650Y720D01*
X652Y720D01*
X652Y722D01*
X656Y722D01*
X656Y744D01*
X654Y744D01*
X654Y746D01*
X650Y746D01*
X650Y748D01*
X648Y748D01*
X648Y750D01*
X646Y750D01*
X646Y754D01*
X644Y754D01*
X644Y756D01*
X642Y756D01*
X642Y760D01*
X640Y760D01*
X640Y764D01*
X638Y764D01*
X638Y768D01*
X636Y768D01*
X636Y778D01*
X634Y778D01*
X634Y788D01*
X636Y788D01*
X636Y798D01*
X638Y798D01*
X638Y804D01*
X640Y804D01*
X640Y806D01*
X642Y806D01*
X642Y810D01*
X644Y810D01*
X644Y814D01*
X646Y814D01*
X646Y816D01*
X648Y816D01*
X648Y818D01*
X650Y818D01*
X650Y820D01*
X652Y820D01*
X652Y822D01*
X656Y822D01*
X656Y844D01*
X654Y844D01*
X654Y846D01*
X650Y846D01*
X650Y848D01*
X648Y848D01*
X648Y850D01*
X646Y850D01*
X646Y854D01*
X644Y854D01*
X644Y856D01*
X642Y856D01*
X642Y860D01*
X640Y860D01*
X640Y864D01*
X638Y864D01*
X638Y868D01*
X636Y868D01*
X636Y878D01*
X634Y878D01*
X634Y888D01*
X636Y888D01*
X636Y898D01*
X638Y898D01*
X638Y904D01*
X640Y904D01*
X640Y906D01*
X642Y906D01*
X642Y910D01*
X644Y910D01*
X644Y914D01*
X646Y914D01*
X646Y916D01*
X648Y916D01*
X648Y918D01*
X650Y918D01*
X650Y920D01*
X652Y920D01*
X652Y922D01*
X656Y922D01*
X656Y944D01*
X654Y944D01*
X654Y946D01*
X650Y946D01*
X650Y948D01*
X648Y948D01*
X648Y950D01*
X646Y950D01*
X646Y954D01*
X644Y954D01*
X644Y956D01*
X642Y956D01*
X642Y960D01*
X640Y960D01*
X640Y964D01*
X638Y964D01*
X638Y968D01*
X636Y968D01*
X636Y978D01*
X634Y978D01*
X634Y988D01*
X636Y988D01*
X636Y998D01*
X638Y998D01*
X638Y1004D01*
X640Y1004D01*
X640Y1006D01*
X642Y1006D01*
X642Y1010D01*
X644Y1010D01*
X644Y1014D01*
X646Y1014D01*
X646Y1016D01*
X648Y1016D01*
X648Y1018D01*
X650Y1018D01*
X650Y1020D01*
X652Y1020D01*
X652Y1022D01*
X656Y1022D01*
X656Y1044D01*
X654Y1044D01*
X654Y1046D01*
X650Y1046D01*
X650Y1048D01*
X648Y1048D01*
X648Y1050D01*
X646Y1050D01*
X646Y1054D01*
X644Y1054D01*
X644Y1056D01*
X642Y1056D01*
X642Y1060D01*
X640Y1060D01*
X640Y1064D01*
X638Y1064D01*
X638Y1068D01*
X636Y1068D01*
X636Y1078D01*
X634Y1078D01*
X634Y1088D01*
X636Y1088D01*
X636Y1092D01*
X132Y1092D01*
G37*
D02*
G36*
X170Y928D02*
X170Y926D01*
X172Y926D01*
X172Y924D01*
X174Y924D01*
X174Y922D01*
X176Y922D01*
X176Y920D01*
X178Y920D01*
X178Y918D01*
X180Y918D01*
X180Y916D01*
X182Y916D01*
X182Y914D01*
X184Y914D01*
X184Y912D01*
X186Y912D01*
X186Y910D01*
X188Y910D01*
X188Y908D01*
X190Y908D01*
X190Y906D01*
X192Y906D01*
X192Y904D01*
X194Y904D01*
X194Y902D01*
X196Y902D01*
X196Y900D01*
X198Y900D01*
X198Y898D01*
X200Y898D01*
X200Y896D01*
X202Y896D01*
X202Y894D01*
X204Y894D01*
X204Y892D01*
X206Y892D01*
X206Y890D01*
X208Y890D01*
X208Y888D01*
X210Y888D01*
X210Y886D01*
X212Y886D01*
X212Y884D01*
X214Y884D01*
X214Y882D01*
X216Y882D01*
X216Y880D01*
X286Y880D01*
X286Y878D01*
X294Y878D01*
X294Y876D01*
X298Y876D01*
X298Y874D01*
X302Y874D01*
X302Y872D01*
X306Y872D01*
X306Y870D01*
X310Y870D01*
X310Y868D01*
X314Y868D01*
X314Y866D01*
X318Y866D01*
X318Y864D01*
X340Y864D01*
X340Y878D01*
X338Y878D01*
X338Y888D01*
X340Y888D01*
X340Y898D01*
X342Y898D01*
X342Y902D01*
X344Y902D01*
X344Y906D01*
X346Y906D01*
X346Y910D01*
X348Y910D01*
X348Y912D01*
X350Y912D01*
X350Y914D01*
X352Y914D01*
X352Y916D01*
X354Y916D01*
X354Y918D01*
X356Y918D01*
X356Y920D01*
X360Y920D01*
X360Y922D01*
X364Y922D01*
X364Y924D01*
X368Y924D01*
X368Y926D01*
X374Y926D01*
X374Y928D01*
X170Y928D01*
G37*
D02*
G36*
X1206Y834D02*
X1206Y832D01*
X1386Y832D01*
X1386Y834D01*
X1206Y834D01*
G37*
D02*
G36*
X1206Y834D02*
X1206Y832D01*
X1386Y832D01*
X1386Y834D01*
X1206Y834D01*
G37*
D02*
G36*
X1206Y832D02*
X1206Y822D01*
X1212Y822D01*
X1212Y820D01*
X1216Y820D01*
X1216Y818D01*
X1222Y818D01*
X1222Y816D01*
X1226Y816D01*
X1226Y814D01*
X1232Y814D01*
X1232Y812D01*
X1236Y812D01*
X1236Y810D01*
X1242Y810D01*
X1242Y808D01*
X1246Y808D01*
X1246Y806D01*
X1252Y806D01*
X1252Y804D01*
X1256Y804D01*
X1256Y802D01*
X1262Y802D01*
X1262Y800D01*
X1266Y800D01*
X1266Y798D01*
X1270Y798D01*
X1270Y796D01*
X1276Y796D01*
X1276Y794D01*
X1280Y794D01*
X1280Y792D01*
X1286Y792D01*
X1286Y790D01*
X1290Y790D01*
X1290Y788D01*
X1314Y788D01*
X1314Y786D01*
X1320Y786D01*
X1320Y784D01*
X1324Y784D01*
X1324Y782D01*
X1328Y782D01*
X1328Y780D01*
X1330Y780D01*
X1330Y778D01*
X1332Y778D01*
X1332Y776D01*
X1334Y776D01*
X1334Y772D01*
X1336Y772D01*
X1336Y768D01*
X1338Y768D01*
X1338Y766D01*
X1358Y766D01*
X1358Y770D01*
X1360Y770D01*
X1360Y776D01*
X1362Y776D01*
X1362Y780D01*
X1364Y780D01*
X1364Y784D01*
X1366Y784D01*
X1366Y790D01*
X1368Y790D01*
X1368Y794D01*
X1370Y794D01*
X1370Y800D01*
X1372Y800D01*
X1372Y804D01*
X1374Y804D01*
X1374Y808D01*
X1376Y808D01*
X1376Y814D01*
X1378Y814D01*
X1378Y818D01*
X1380Y818D01*
X1380Y824D01*
X1382Y824D01*
X1382Y828D01*
X1384Y828D01*
X1384Y832D01*
X1206Y832D01*
G37*
D02*
G36*
X726Y462D02*
X726Y458D01*
X724Y458D01*
X724Y454D01*
X722Y454D01*
X722Y452D01*
X720Y452D01*
X720Y450D01*
X718Y450D01*
X718Y448D01*
X716Y448D01*
X716Y446D01*
X714Y446D01*
X714Y444D01*
X712Y444D01*
X712Y442D01*
X708Y442D01*
X708Y440D01*
X704Y440D01*
X704Y438D01*
X700Y438D01*
X700Y436D01*
X692Y436D01*
X692Y434D01*
X784Y434D01*
X784Y462D01*
X726Y462D01*
G37*
D02*
G36*
X606Y434D02*
X606Y432D01*
X784Y432D01*
X784Y434D01*
X606Y434D01*
G37*
D02*
G36*
X606Y434D02*
X606Y432D01*
X784Y432D01*
X784Y434D01*
X606Y434D01*
G37*
D02*
G36*
X606Y432D02*
X606Y400D01*
X608Y400D01*
X608Y398D01*
X616Y398D01*
X616Y396D01*
X622Y396D01*
X622Y394D01*
X630Y394D01*
X630Y392D01*
X636Y392D01*
X636Y390D01*
X642Y390D01*
X642Y388D01*
X650Y388D01*
X650Y386D01*
X656Y386D01*
X656Y384D01*
X664Y384D01*
X664Y382D01*
X670Y382D01*
X670Y380D01*
X678Y380D01*
X678Y378D01*
X684Y378D01*
X684Y376D01*
X692Y376D01*
X692Y374D01*
X698Y374D01*
X698Y372D01*
X706Y372D01*
X706Y370D01*
X712Y370D01*
X712Y368D01*
X720Y368D01*
X720Y366D01*
X726Y366D01*
X726Y364D01*
X732Y364D01*
X732Y362D01*
X740Y362D01*
X740Y360D01*
X746Y360D01*
X746Y358D01*
X754Y358D01*
X754Y356D01*
X760Y356D01*
X760Y354D01*
X784Y354D01*
X784Y432D01*
X606Y432D01*
G37*
D02*
G36*
X728Y1108D02*
X728Y1102D01*
X730Y1102D01*
X730Y1094D01*
X732Y1094D01*
X732Y1072D01*
X730Y1072D01*
X730Y1066D01*
X728Y1066D01*
X728Y1062D01*
X726Y1062D01*
X726Y1058D01*
X724Y1058D01*
X724Y1056D01*
X988Y1056D01*
X988Y1054D01*
X1002Y1054D01*
X1002Y1052D01*
X1008Y1052D01*
X1008Y1050D01*
X1014Y1050D01*
X1014Y1048D01*
X1018Y1048D01*
X1018Y1046D01*
X1022Y1046D01*
X1022Y1044D01*
X1024Y1044D01*
X1024Y1042D01*
X1028Y1042D01*
X1028Y1040D01*
X1030Y1040D01*
X1030Y1038D01*
X1032Y1038D01*
X1032Y1036D01*
X1034Y1036D01*
X1034Y1034D01*
X1036Y1034D01*
X1036Y1032D01*
X1038Y1032D01*
X1038Y1030D01*
X1040Y1030D01*
X1040Y1028D01*
X1042Y1028D01*
X1042Y1026D01*
X1044Y1026D01*
X1044Y1022D01*
X1046Y1022D01*
X1046Y1020D01*
X1048Y1020D01*
X1048Y1016D01*
X1050Y1016D01*
X1050Y1012D01*
X1052Y1012D01*
X1052Y1006D01*
X1054Y1006D01*
X1054Y1000D01*
X1056Y1000D01*
X1056Y990D01*
X1058Y990D01*
X1058Y974D01*
X1056Y974D01*
X1056Y964D01*
X1054Y964D01*
X1054Y958D01*
X1052Y958D01*
X1052Y952D01*
X1050Y952D01*
X1050Y948D01*
X1048Y948D01*
X1048Y944D01*
X1046Y944D01*
X1046Y942D01*
X1044Y942D01*
X1044Y938D01*
X1042Y938D01*
X1042Y936D01*
X1040Y936D01*
X1040Y934D01*
X1038Y934D01*
X1038Y932D01*
X1036Y932D01*
X1036Y930D01*
X1034Y930D01*
X1034Y928D01*
X1032Y928D01*
X1032Y926D01*
X1030Y926D01*
X1030Y924D01*
X1028Y924D01*
X1028Y922D01*
X1024Y922D01*
X1024Y920D01*
X1020Y920D01*
X1020Y918D01*
X1016Y918D01*
X1016Y916D01*
X1012Y916D01*
X1012Y914D01*
X1008Y914D01*
X1008Y912D01*
X1000Y912D01*
X1000Y910D01*
X1162Y910D01*
X1162Y1086D01*
X780Y1086D01*
X780Y1088D01*
X774Y1088D01*
X774Y1090D01*
X770Y1090D01*
X770Y1092D01*
X768Y1092D01*
X768Y1094D01*
X766Y1094D01*
X766Y1096D01*
X762Y1096D01*
X762Y1098D01*
X760Y1098D01*
X760Y1100D01*
X758Y1100D01*
X758Y1102D01*
X754Y1102D01*
X754Y1104D01*
X752Y1104D01*
X752Y1106D01*
X748Y1106D01*
X748Y1108D01*
X728Y1108D01*
G37*
D02*
G36*
X724Y1056D02*
X724Y1054D01*
X722Y1054D01*
X722Y1052D01*
X720Y1052D01*
X720Y1050D01*
X718Y1050D01*
X718Y1048D01*
X716Y1048D01*
X716Y1046D01*
X714Y1046D01*
X714Y1044D01*
X712Y1044D01*
X712Y1022D01*
X714Y1022D01*
X714Y1020D01*
X716Y1020D01*
X716Y1018D01*
X718Y1018D01*
X718Y1016D01*
X720Y1016D01*
X720Y1014D01*
X722Y1014D01*
X722Y1012D01*
X724Y1012D01*
X724Y1010D01*
X726Y1010D01*
X726Y1006D01*
X786Y1006D01*
X786Y1004D01*
X794Y1004D01*
X794Y1002D01*
X796Y1002D01*
X796Y1000D01*
X798Y1000D01*
X798Y998D01*
X800Y998D01*
X800Y996D01*
X802Y996D01*
X802Y994D01*
X804Y994D01*
X804Y988D01*
X806Y988D01*
X806Y910D01*
X970Y910D01*
X970Y912D01*
X962Y912D01*
X962Y914D01*
X956Y914D01*
X956Y916D01*
X952Y916D01*
X952Y918D01*
X948Y918D01*
X948Y920D01*
X946Y920D01*
X946Y922D01*
X942Y922D01*
X942Y924D01*
X940Y924D01*
X940Y926D01*
X936Y926D01*
X936Y928D01*
X934Y928D01*
X934Y930D01*
X932Y930D01*
X932Y932D01*
X930Y932D01*
X930Y936D01*
X928Y936D01*
X928Y938D01*
X926Y938D01*
X926Y940D01*
X924Y940D01*
X924Y944D01*
X922Y944D01*
X922Y946D01*
X920Y946D01*
X920Y950D01*
X918Y950D01*
X918Y956D01*
X916Y956D01*
X916Y960D01*
X914Y960D01*
X914Y968D01*
X912Y968D01*
X912Y996D01*
X914Y996D01*
X914Y1004D01*
X916Y1004D01*
X916Y1010D01*
X918Y1010D01*
X918Y1014D01*
X920Y1014D01*
X920Y1018D01*
X922Y1018D01*
X922Y1022D01*
X924Y1022D01*
X924Y1024D01*
X926Y1024D01*
X926Y1026D01*
X928Y1026D01*
X928Y1030D01*
X930Y1030D01*
X930Y1032D01*
X932Y1032D01*
X932Y1034D01*
X934Y1034D01*
X934Y1036D01*
X936Y1036D01*
X936Y1038D01*
X938Y1038D01*
X938Y1040D01*
X942Y1040D01*
X942Y1042D01*
X944Y1042D01*
X944Y1044D01*
X948Y1044D01*
X948Y1046D01*
X952Y1046D01*
X952Y1048D01*
X956Y1048D01*
X956Y1050D01*
X960Y1050D01*
X960Y1052D01*
X968Y1052D01*
X968Y1054D01*
X980Y1054D01*
X980Y1056D01*
X724Y1056D01*
G37*
D02*
G36*
X806Y910D02*
X806Y908D01*
X1162Y908D01*
X1162Y910D01*
X806Y910D01*
G37*
D02*
G36*
X806Y910D02*
X806Y908D01*
X1162Y908D01*
X1162Y910D01*
X806Y910D01*
G37*
D02*
G36*
X806Y908D02*
X806Y888D01*
X1090Y888D01*
X1090Y886D01*
X1096Y886D01*
X1096Y884D01*
X1100Y884D01*
X1100Y882D01*
X1102Y882D01*
X1102Y880D01*
X1104Y880D01*
X1104Y878D01*
X1106Y878D01*
X1106Y876D01*
X1108Y876D01*
X1108Y874D01*
X1110Y874D01*
X1110Y870D01*
X1112Y870D01*
X1112Y860D01*
X1114Y860D01*
X1114Y856D01*
X1112Y856D01*
X1112Y846D01*
X1110Y846D01*
X1110Y844D01*
X1108Y844D01*
X1108Y840D01*
X1106Y840D01*
X1106Y838D01*
X1104Y838D01*
X1104Y836D01*
X1102Y836D01*
X1102Y834D01*
X1098Y834D01*
X1098Y832D01*
X1096Y832D01*
X1096Y830D01*
X1088Y830D01*
X1088Y828D01*
X1162Y828D01*
X1162Y908D01*
X806Y908D01*
G37*
D02*
G36*
X806Y888D02*
X806Y828D01*
X1080Y828D01*
X1080Y830D01*
X1072Y830D01*
X1072Y832D01*
X1068Y832D01*
X1068Y834D01*
X1066Y834D01*
X1066Y836D01*
X1062Y836D01*
X1062Y840D01*
X1060Y840D01*
X1060Y842D01*
X1058Y842D01*
X1058Y846D01*
X1056Y846D01*
X1056Y850D01*
X1054Y850D01*
X1054Y866D01*
X1056Y866D01*
X1056Y872D01*
X1058Y872D01*
X1058Y874D01*
X1060Y874D01*
X1060Y878D01*
X1062Y878D01*
X1062Y880D01*
X1064Y880D01*
X1064Y882D01*
X1068Y882D01*
X1068Y884D01*
X1070Y884D01*
X1070Y886D01*
X1076Y886D01*
X1076Y888D01*
X806Y888D01*
G37*
D02*
G36*
X806Y828D02*
X806Y826D01*
X1162Y826D01*
X1162Y828D01*
X806Y828D01*
G37*
D02*
G36*
X806Y828D02*
X806Y826D01*
X1162Y826D01*
X1162Y828D01*
X806Y828D01*
G37*
D02*
G36*
X806Y826D02*
X806Y788D01*
X990Y788D01*
X990Y786D01*
X996Y786D01*
X996Y784D01*
X1000Y784D01*
X1000Y782D01*
X1002Y782D01*
X1002Y780D01*
X1004Y780D01*
X1004Y778D01*
X1006Y778D01*
X1006Y776D01*
X1008Y776D01*
X1008Y774D01*
X1010Y774D01*
X1010Y770D01*
X1012Y770D01*
X1012Y760D01*
X1014Y760D01*
X1014Y756D01*
X1012Y756D01*
X1012Y746D01*
X1010Y746D01*
X1010Y744D01*
X1008Y744D01*
X1008Y740D01*
X1006Y740D01*
X1006Y738D01*
X1004Y738D01*
X1004Y736D01*
X1002Y736D01*
X1002Y734D01*
X998Y734D01*
X998Y732D01*
X996Y732D01*
X996Y730D01*
X988Y730D01*
X988Y728D01*
X1302Y728D01*
X1302Y730D01*
X1296Y730D01*
X1296Y732D01*
X1292Y732D01*
X1292Y734D01*
X1290Y734D01*
X1290Y736D01*
X1288Y736D01*
X1288Y738D01*
X1286Y738D01*
X1286Y740D01*
X1284Y740D01*
X1284Y744D01*
X1282Y744D01*
X1282Y746D01*
X1278Y746D01*
X1278Y748D01*
X1272Y748D01*
X1272Y750D01*
X1268Y750D01*
X1268Y752D01*
X1262Y752D01*
X1262Y754D01*
X1258Y754D01*
X1258Y756D01*
X1252Y756D01*
X1252Y758D01*
X1248Y758D01*
X1248Y760D01*
X1242Y760D01*
X1242Y762D01*
X1238Y762D01*
X1238Y764D01*
X1232Y764D01*
X1232Y766D01*
X1228Y766D01*
X1228Y768D01*
X1222Y768D01*
X1222Y770D01*
X1218Y770D01*
X1218Y772D01*
X1212Y772D01*
X1212Y774D01*
X1208Y774D01*
X1208Y776D01*
X1204Y776D01*
X1204Y778D01*
X1198Y778D01*
X1198Y780D01*
X1194Y780D01*
X1194Y782D01*
X1188Y782D01*
X1188Y784D01*
X1184Y784D01*
X1184Y786D01*
X1178Y786D01*
X1178Y788D01*
X1174Y788D01*
X1174Y790D01*
X1170Y790D01*
X1170Y792D01*
X1168Y792D01*
X1168Y794D01*
X1166Y794D01*
X1166Y796D01*
X1164Y796D01*
X1164Y802D01*
X1162Y802D01*
X1162Y826D01*
X806Y826D01*
G37*
D02*
G36*
X806Y788D02*
X806Y728D01*
X980Y728D01*
X980Y730D01*
X972Y730D01*
X972Y732D01*
X968Y732D01*
X968Y734D01*
X966Y734D01*
X966Y736D01*
X962Y736D01*
X962Y740D01*
X960Y740D01*
X960Y742D01*
X958Y742D01*
X958Y746D01*
X956Y746D01*
X956Y750D01*
X954Y750D01*
X954Y766D01*
X956Y766D01*
X956Y772D01*
X958Y772D01*
X958Y774D01*
X960Y774D01*
X960Y778D01*
X962Y778D01*
X962Y780D01*
X964Y780D01*
X964Y782D01*
X968Y782D01*
X968Y784D01*
X970Y784D01*
X970Y786D01*
X976Y786D01*
X976Y788D01*
X806Y788D01*
G37*
D02*
G36*
X1322Y732D02*
X1322Y730D01*
X1316Y730D01*
X1316Y728D01*
X1342Y728D01*
X1342Y732D01*
X1322Y732D01*
G37*
D02*
G36*
X806Y728D02*
X806Y726D01*
X1340Y726D01*
X1340Y728D01*
X806Y728D01*
G37*
D02*
G36*
X806Y728D02*
X806Y726D01*
X1340Y726D01*
X1340Y728D01*
X806Y728D01*
G37*
D02*
G36*
X806Y728D02*
X806Y726D01*
X1340Y726D01*
X1340Y728D01*
X806Y728D01*
G37*
D02*
G36*
X806Y726D02*
X806Y712D01*
X1294Y712D01*
X1294Y710D01*
X1298Y710D01*
X1298Y708D01*
X1302Y708D01*
X1302Y706D01*
X1304Y706D01*
X1304Y704D01*
X1306Y704D01*
X1306Y702D01*
X1308Y702D01*
X1308Y698D01*
X1330Y698D01*
X1330Y704D01*
X1332Y704D01*
X1332Y708D01*
X1334Y708D01*
X1334Y714D01*
X1336Y714D01*
X1336Y718D01*
X1338Y718D01*
X1338Y722D01*
X1340Y722D01*
X1340Y726D01*
X806Y726D01*
G37*
D02*
G36*
X806Y712D02*
X806Y706D01*
X1086Y706D01*
X1086Y704D01*
X1094Y704D01*
X1094Y702D01*
X1096Y702D01*
X1096Y700D01*
X1098Y700D01*
X1098Y698D01*
X1100Y698D01*
X1100Y696D01*
X1102Y696D01*
X1102Y694D01*
X1104Y694D01*
X1104Y688D01*
X1106Y688D01*
X1106Y654D01*
X1174Y654D01*
X1174Y656D01*
X1170Y656D01*
X1170Y658D01*
X1166Y658D01*
X1166Y660D01*
X1164Y660D01*
X1164Y662D01*
X1162Y662D01*
X1162Y664D01*
X1160Y664D01*
X1160Y666D01*
X1158Y666D01*
X1158Y670D01*
X1156Y670D01*
X1156Y676D01*
X1154Y676D01*
X1154Y690D01*
X1156Y690D01*
X1156Y696D01*
X1158Y696D01*
X1158Y700D01*
X1160Y700D01*
X1160Y702D01*
X1162Y702D01*
X1162Y704D01*
X1164Y704D01*
X1164Y706D01*
X1166Y706D01*
X1166Y708D01*
X1170Y708D01*
X1170Y710D01*
X1174Y710D01*
X1174Y712D01*
X806Y712D01*
G37*
D02*
G36*
X1194Y712D02*
X1194Y710D01*
X1198Y710D01*
X1198Y708D01*
X1202Y708D01*
X1202Y706D01*
X1266Y706D01*
X1266Y708D01*
X1270Y708D01*
X1270Y710D01*
X1274Y710D01*
X1274Y712D01*
X1194Y712D01*
G37*
D02*
G36*
X1204Y662D02*
X1204Y660D01*
X1200Y660D01*
X1200Y658D01*
X1198Y658D01*
X1198Y656D01*
X1192Y656D01*
X1192Y654D01*
X1274Y654D01*
X1274Y656D01*
X1270Y656D01*
X1270Y658D01*
X1266Y658D01*
X1266Y660D01*
X1264Y660D01*
X1264Y662D01*
X1204Y662D01*
G37*
D02*
G36*
X1106Y654D02*
X1106Y652D01*
X1308Y652D01*
X1308Y654D01*
X1106Y654D01*
G37*
D02*
G36*
X1106Y654D02*
X1106Y652D01*
X1308Y652D01*
X1308Y654D01*
X1106Y654D01*
G37*
D02*
G36*
X1106Y652D02*
X1106Y538D01*
X1140Y538D01*
X1140Y536D01*
X1146Y536D01*
X1146Y534D01*
X1150Y534D01*
X1150Y532D01*
X1170Y532D01*
X1170Y556D01*
X1270Y556D01*
X1270Y560D01*
X1272Y560D01*
X1272Y564D01*
X1274Y564D01*
X1274Y570D01*
X1276Y570D01*
X1276Y574D01*
X1278Y574D01*
X1278Y580D01*
X1280Y580D01*
X1280Y584D01*
X1282Y584D01*
X1282Y588D01*
X1284Y588D01*
X1284Y594D01*
X1286Y594D01*
X1286Y598D01*
X1288Y598D01*
X1288Y604D01*
X1290Y604D01*
X1290Y608D01*
X1292Y608D01*
X1292Y612D01*
X1294Y612D01*
X1294Y618D01*
X1296Y618D01*
X1296Y622D01*
X1298Y622D01*
X1298Y628D01*
X1300Y628D01*
X1300Y632D01*
X1302Y632D01*
X1302Y636D01*
X1304Y636D01*
X1304Y642D01*
X1306Y642D01*
X1306Y646D01*
X1308Y646D01*
X1308Y652D01*
X1106Y652D01*
G37*
D02*
G36*
X1106Y538D02*
X1106Y536D01*
X1126Y536D01*
X1126Y538D01*
X1106Y538D01*
G37*
D02*
G36*
X1432Y1062D02*
X1432Y1004D01*
X1456Y1004D01*
X1456Y1006D01*
X1540Y1006D01*
X1540Y1008D01*
X1542Y1008D01*
X1542Y1012D01*
X1544Y1012D01*
X1544Y1014D01*
X1546Y1014D01*
X1546Y1016D01*
X1548Y1016D01*
X1548Y1018D01*
X1550Y1018D01*
X1550Y1020D01*
X1552Y1020D01*
X1552Y1022D01*
X1554Y1022D01*
X1554Y1044D01*
X1552Y1044D01*
X1552Y1046D01*
X1550Y1046D01*
X1550Y1048D01*
X1548Y1048D01*
X1548Y1050D01*
X1546Y1050D01*
X1546Y1052D01*
X1544Y1052D01*
X1544Y1054D01*
X1542Y1054D01*
X1542Y1058D01*
X1540Y1058D01*
X1540Y1062D01*
X1432Y1062D01*
G37*
D02*
G36*
X1682Y1062D02*
X1682Y1004D01*
X1706Y1004D01*
X1706Y1006D01*
X1840Y1006D01*
X1840Y1008D01*
X1842Y1008D01*
X1842Y1012D01*
X1844Y1012D01*
X1844Y1014D01*
X1846Y1014D01*
X1846Y1016D01*
X1848Y1016D01*
X1848Y1018D01*
X1850Y1018D01*
X1850Y1020D01*
X1852Y1020D01*
X1852Y1022D01*
X1854Y1022D01*
X1854Y1044D01*
X1852Y1044D01*
X1852Y1046D01*
X1850Y1046D01*
X1850Y1048D01*
X1848Y1048D01*
X1848Y1050D01*
X1846Y1050D01*
X1846Y1052D01*
X1844Y1052D01*
X1844Y1054D01*
X1842Y1054D01*
X1842Y1058D01*
X1840Y1058D01*
X1840Y1062D01*
X1682Y1062D01*
G37*
D02*
G36*
X726Y962D02*
X726Y958D01*
X724Y958D01*
X724Y954D01*
X722Y954D01*
X722Y952D01*
X720Y952D01*
X720Y950D01*
X718Y950D01*
X718Y948D01*
X716Y948D01*
X716Y946D01*
X714Y946D01*
X714Y944D01*
X712Y944D01*
X712Y922D01*
X714Y922D01*
X714Y920D01*
X716Y920D01*
X716Y918D01*
X718Y918D01*
X718Y916D01*
X720Y916D01*
X720Y914D01*
X722Y914D01*
X722Y912D01*
X724Y912D01*
X724Y910D01*
X726Y910D01*
X726Y906D01*
X728Y906D01*
X728Y902D01*
X730Y902D01*
X730Y894D01*
X732Y894D01*
X732Y872D01*
X730Y872D01*
X730Y866D01*
X728Y866D01*
X728Y862D01*
X726Y862D01*
X726Y858D01*
X724Y858D01*
X724Y854D01*
X722Y854D01*
X722Y852D01*
X720Y852D01*
X720Y850D01*
X718Y850D01*
X718Y848D01*
X716Y848D01*
X716Y846D01*
X714Y846D01*
X714Y844D01*
X712Y844D01*
X712Y822D01*
X714Y822D01*
X714Y820D01*
X716Y820D01*
X716Y818D01*
X718Y818D01*
X718Y816D01*
X720Y816D01*
X720Y814D01*
X722Y814D01*
X722Y812D01*
X724Y812D01*
X724Y810D01*
X726Y810D01*
X726Y806D01*
X728Y806D01*
X728Y802D01*
X730Y802D01*
X730Y794D01*
X732Y794D01*
X732Y772D01*
X730Y772D01*
X730Y766D01*
X728Y766D01*
X728Y762D01*
X726Y762D01*
X726Y758D01*
X724Y758D01*
X724Y754D01*
X722Y754D01*
X722Y752D01*
X720Y752D01*
X720Y750D01*
X718Y750D01*
X718Y748D01*
X716Y748D01*
X716Y746D01*
X714Y746D01*
X714Y744D01*
X712Y744D01*
X712Y722D01*
X714Y722D01*
X714Y720D01*
X716Y720D01*
X716Y718D01*
X718Y718D01*
X718Y716D01*
X720Y716D01*
X720Y714D01*
X722Y714D01*
X722Y712D01*
X724Y712D01*
X724Y710D01*
X726Y710D01*
X726Y706D01*
X728Y706D01*
X728Y702D01*
X730Y702D01*
X730Y694D01*
X732Y694D01*
X732Y676D01*
X736Y676D01*
X736Y674D01*
X738Y674D01*
X738Y672D01*
X742Y672D01*
X742Y670D01*
X744Y670D01*
X744Y668D01*
X764Y668D01*
X764Y676D01*
X762Y676D01*
X762Y962D01*
X726Y962D01*
G37*
D02*
G36*
X1482Y962D02*
X1482Y904D01*
X1506Y904D01*
X1506Y906D01*
X1540Y906D01*
X1540Y908D01*
X1542Y908D01*
X1542Y912D01*
X1544Y912D01*
X1544Y914D01*
X1546Y914D01*
X1546Y916D01*
X1548Y916D01*
X1548Y918D01*
X1550Y918D01*
X1550Y920D01*
X1552Y920D01*
X1552Y922D01*
X1554Y922D01*
X1554Y944D01*
X1552Y944D01*
X1552Y946D01*
X1550Y946D01*
X1550Y948D01*
X1548Y948D01*
X1548Y950D01*
X1546Y950D01*
X1546Y952D01*
X1544Y952D01*
X1544Y954D01*
X1542Y954D01*
X1542Y958D01*
X1540Y958D01*
X1540Y962D01*
X1482Y962D01*
G37*
D02*
G36*
X1730Y962D02*
X1730Y904D01*
X1756Y904D01*
X1756Y906D01*
X1840Y906D01*
X1840Y908D01*
X1842Y908D01*
X1842Y912D01*
X1844Y912D01*
X1844Y914D01*
X1846Y914D01*
X1846Y916D01*
X1848Y916D01*
X1848Y918D01*
X1850Y918D01*
X1850Y920D01*
X1852Y920D01*
X1852Y922D01*
X1854Y922D01*
X1854Y944D01*
X1852Y944D01*
X1852Y946D01*
X1850Y946D01*
X1850Y948D01*
X1848Y948D01*
X1848Y950D01*
X1846Y950D01*
X1846Y952D01*
X1844Y952D01*
X1844Y954D01*
X1842Y954D01*
X1842Y958D01*
X1840Y958D01*
X1840Y962D01*
X1730Y962D01*
G37*
D02*
G36*
X132Y884D02*
X132Y864D01*
X134Y864D01*
X134Y862D01*
X136Y862D01*
X136Y860D01*
X138Y860D01*
X138Y858D01*
X140Y858D01*
X140Y856D01*
X142Y856D01*
X142Y854D01*
X144Y854D01*
X144Y852D01*
X146Y852D01*
X146Y850D01*
X148Y850D01*
X148Y848D01*
X150Y848D01*
X150Y846D01*
X152Y846D01*
X152Y844D01*
X154Y844D01*
X154Y842D01*
X156Y842D01*
X156Y840D01*
X158Y840D01*
X158Y838D01*
X160Y838D01*
X160Y836D01*
X162Y836D01*
X162Y834D01*
X164Y834D01*
X164Y832D01*
X166Y832D01*
X166Y830D01*
X168Y830D01*
X168Y828D01*
X170Y828D01*
X170Y826D01*
X172Y826D01*
X172Y824D01*
X174Y824D01*
X174Y822D01*
X176Y822D01*
X176Y820D01*
X178Y820D01*
X178Y818D01*
X180Y818D01*
X180Y816D01*
X182Y816D01*
X182Y814D01*
X184Y814D01*
X184Y812D01*
X186Y812D01*
X186Y810D01*
X188Y810D01*
X188Y808D01*
X190Y808D01*
X190Y806D01*
X300Y806D01*
X300Y826D01*
X296Y826D01*
X296Y828D01*
X292Y828D01*
X292Y830D01*
X288Y830D01*
X288Y832D01*
X284Y832D01*
X284Y834D01*
X280Y834D01*
X280Y836D01*
X200Y836D01*
X200Y838D01*
X196Y838D01*
X196Y840D01*
X194Y840D01*
X194Y842D01*
X190Y842D01*
X190Y844D01*
X188Y844D01*
X188Y846D01*
X186Y846D01*
X186Y848D01*
X184Y848D01*
X184Y850D01*
X182Y850D01*
X182Y854D01*
X180Y854D01*
X180Y856D01*
X178Y856D01*
X178Y858D01*
X176Y858D01*
X176Y860D01*
X174Y860D01*
X174Y862D01*
X172Y862D01*
X172Y864D01*
X170Y864D01*
X170Y866D01*
X168Y866D01*
X168Y868D01*
X166Y868D01*
X166Y870D01*
X164Y870D01*
X164Y872D01*
X162Y872D01*
X162Y874D01*
X160Y874D01*
X160Y876D01*
X158Y876D01*
X158Y878D01*
X156Y878D01*
X156Y880D01*
X154Y880D01*
X154Y882D01*
X152Y882D01*
X152Y884D01*
X132Y884D01*
G37*
D02*
G36*
X1780Y862D02*
X1780Y802D01*
X1800Y802D01*
X1800Y804D01*
X1806Y804D01*
X1806Y806D01*
X1840Y806D01*
X1840Y808D01*
X1842Y808D01*
X1842Y812D01*
X1844Y812D01*
X1844Y814D01*
X1846Y814D01*
X1846Y816D01*
X1848Y816D01*
X1848Y818D01*
X1850Y818D01*
X1850Y820D01*
X1852Y820D01*
X1852Y822D01*
X1854Y822D01*
X1854Y844D01*
X1852Y844D01*
X1852Y846D01*
X1850Y846D01*
X1850Y848D01*
X1848Y848D01*
X1848Y850D01*
X1846Y850D01*
X1846Y852D01*
X1844Y852D01*
X1844Y854D01*
X1842Y854D01*
X1842Y858D01*
X1840Y858D01*
X1840Y862D01*
X1780Y862D01*
G37*
D02*
G36*
X1514Y792D02*
X1514Y788D01*
X1512Y788D01*
X1512Y782D01*
X1510Y782D01*
X1510Y778D01*
X1508Y778D01*
X1508Y774D01*
X1506Y774D01*
X1506Y770D01*
X1504Y770D01*
X1504Y764D01*
X1502Y764D01*
X1502Y760D01*
X1500Y760D01*
X1500Y756D01*
X1498Y756D01*
X1498Y750D01*
X1496Y750D01*
X1496Y746D01*
X1494Y746D01*
X1494Y742D01*
X1492Y742D01*
X1492Y738D01*
X1490Y738D01*
X1490Y734D01*
X1510Y734D01*
X1510Y738D01*
X1512Y738D01*
X1512Y742D01*
X1514Y742D01*
X1514Y744D01*
X1516Y744D01*
X1516Y748D01*
X1518Y748D01*
X1518Y750D01*
X1520Y750D01*
X1520Y752D01*
X1522Y752D01*
X1522Y754D01*
X1524Y754D01*
X1524Y756D01*
X1526Y756D01*
X1526Y758D01*
X1528Y758D01*
X1528Y760D01*
X1530Y760D01*
X1530Y762D01*
X1532Y762D01*
X1532Y764D01*
X1534Y764D01*
X1534Y792D01*
X1514Y792D01*
G37*
D02*
G36*
X132Y784D02*
X132Y774D01*
X134Y774D01*
X134Y772D01*
X136Y772D01*
X136Y770D01*
X138Y770D01*
X138Y768D01*
X142Y768D01*
X142Y766D01*
X144Y766D01*
X144Y764D01*
X146Y764D01*
X146Y762D01*
X150Y762D01*
X150Y760D01*
X152Y760D01*
X152Y758D01*
X154Y758D01*
X154Y756D01*
X158Y756D01*
X158Y754D01*
X160Y754D01*
X160Y752D01*
X162Y752D01*
X162Y750D01*
X166Y750D01*
X166Y748D01*
X168Y748D01*
X168Y746D01*
X170Y746D01*
X170Y744D01*
X172Y744D01*
X172Y742D01*
X176Y742D01*
X176Y740D01*
X178Y740D01*
X178Y738D01*
X180Y738D01*
X180Y736D01*
X184Y736D01*
X184Y734D01*
X186Y734D01*
X186Y732D01*
X188Y732D01*
X188Y730D01*
X332Y730D01*
X332Y750D01*
X328Y750D01*
X328Y752D01*
X324Y752D01*
X324Y754D01*
X318Y754D01*
X318Y756D01*
X314Y756D01*
X314Y758D01*
X310Y758D01*
X310Y760D01*
X306Y760D01*
X306Y762D01*
X176Y762D01*
X176Y764D01*
X172Y764D01*
X172Y766D01*
X168Y766D01*
X168Y768D01*
X166Y768D01*
X166Y770D01*
X164Y770D01*
X164Y772D01*
X162Y772D01*
X162Y774D01*
X160Y774D01*
X160Y776D01*
X158Y776D01*
X158Y778D01*
X156Y778D01*
X156Y780D01*
X154Y780D01*
X154Y782D01*
X152Y782D01*
X152Y784D01*
X132Y784D01*
G37*
D02*
G36*
X128Y708D02*
X128Y702D01*
X130Y702D01*
X130Y694D01*
X132Y694D01*
X132Y678D01*
X134Y678D01*
X134Y676D01*
X136Y676D01*
X136Y674D01*
X140Y674D01*
X140Y672D01*
X142Y672D01*
X142Y670D01*
X146Y670D01*
X146Y668D01*
X148Y668D01*
X148Y666D01*
X152Y666D01*
X152Y664D01*
X154Y664D01*
X154Y662D01*
X158Y662D01*
X158Y660D01*
X160Y660D01*
X160Y658D01*
X164Y658D01*
X164Y656D01*
X380Y656D01*
X380Y676D01*
X374Y676D01*
X374Y678D01*
X370Y678D01*
X370Y680D01*
X364Y680D01*
X364Y682D01*
X360Y682D01*
X360Y684D01*
X354Y684D01*
X354Y686D01*
X176Y686D01*
X176Y688D01*
X172Y688D01*
X172Y690D01*
X168Y690D01*
X168Y692D01*
X166Y692D01*
X166Y694D01*
X164Y694D01*
X164Y696D01*
X160Y696D01*
X160Y698D01*
X158Y698D01*
X158Y700D01*
X156Y700D01*
X156Y702D01*
X152Y702D01*
X152Y704D01*
X150Y704D01*
X150Y706D01*
X148Y706D01*
X148Y708D01*
X128Y708D01*
G37*
D02*
G36*
X1830Y648D02*
X1830Y634D01*
X1872Y634D01*
X1872Y636D01*
X1866Y636D01*
X1866Y638D01*
X1862Y638D01*
X1862Y640D01*
X1858Y640D01*
X1858Y642D01*
X1854Y642D01*
X1854Y644D01*
X1852Y644D01*
X1852Y646D01*
X1850Y646D01*
X1850Y648D01*
X1830Y648D01*
G37*
D02*
G36*
X1902Y638D02*
X1902Y636D01*
X1894Y636D01*
X1894Y634D01*
X1922Y634D01*
X1922Y638D01*
X1902Y638D01*
G37*
D02*
G36*
X1830Y634D02*
X1830Y632D01*
X1922Y632D01*
X1922Y634D01*
X1830Y634D01*
G37*
D02*
G36*
X1830Y634D02*
X1830Y632D01*
X1922Y632D01*
X1922Y634D01*
X1830Y634D01*
G37*
D02*
G36*
X1830Y632D02*
X1830Y532D01*
X1894Y532D01*
X1894Y530D01*
X1900Y530D01*
X1900Y528D01*
X1922Y528D01*
X1922Y632D01*
X1830Y632D01*
G37*
D02*
G36*
X1830Y532D02*
X1830Y518D01*
X1850Y518D01*
X1850Y520D01*
X1852Y520D01*
X1852Y522D01*
X1856Y522D01*
X1856Y524D01*
X1858Y524D01*
X1858Y526D01*
X1862Y526D01*
X1862Y528D01*
X1866Y528D01*
X1866Y530D01*
X1874Y530D01*
X1874Y532D01*
X1830Y532D01*
G37*
D02*
G36*
X1544Y582D02*
X1544Y580D01*
X1542Y580D01*
X1542Y576D01*
X1540Y576D01*
X1540Y572D01*
X1538Y572D01*
X1538Y568D01*
X1536Y568D01*
X1536Y564D01*
X1534Y564D01*
X1534Y560D01*
X1532Y560D01*
X1532Y558D01*
X1530Y558D01*
X1530Y554D01*
X1528Y554D01*
X1528Y550D01*
X1526Y550D01*
X1526Y546D01*
X1524Y546D01*
X1524Y542D01*
X1522Y542D01*
X1522Y538D01*
X1520Y538D01*
X1520Y536D01*
X1518Y536D01*
X1518Y532D01*
X1516Y532D01*
X1516Y528D01*
X1514Y528D01*
X1514Y524D01*
X1512Y524D01*
X1512Y520D01*
X1510Y520D01*
X1510Y516D01*
X1508Y516D01*
X1508Y514D01*
X1506Y514D01*
X1506Y510D01*
X1504Y510D01*
X1504Y506D01*
X1502Y506D01*
X1502Y502D01*
X1500Y502D01*
X1500Y498D01*
X1498Y498D01*
X1498Y494D01*
X1496Y494D01*
X1496Y492D01*
X1494Y492D01*
X1494Y488D01*
X1492Y488D01*
X1492Y484D01*
X1490Y484D01*
X1490Y482D01*
X1510Y482D01*
X1510Y484D01*
X1512Y484D01*
X1512Y488D01*
X1514Y488D01*
X1514Y490D01*
X1516Y490D01*
X1516Y494D01*
X1518Y494D01*
X1518Y498D01*
X1520Y498D01*
X1520Y500D01*
X1522Y500D01*
X1522Y504D01*
X1524Y504D01*
X1524Y506D01*
X1526Y506D01*
X1526Y510D01*
X1528Y510D01*
X1528Y512D01*
X1530Y512D01*
X1530Y516D01*
X1532Y516D01*
X1532Y520D01*
X1534Y520D01*
X1534Y522D01*
X1536Y522D01*
X1536Y526D01*
X1538Y526D01*
X1538Y528D01*
X1540Y528D01*
X1540Y532D01*
X1542Y532D01*
X1542Y534D01*
X1544Y534D01*
X1544Y538D01*
X1546Y538D01*
X1546Y542D01*
X1548Y542D01*
X1548Y544D01*
X1550Y544D01*
X1550Y548D01*
X1552Y548D01*
X1552Y550D01*
X1554Y550D01*
X1554Y554D01*
X1556Y554D01*
X1556Y556D01*
X1558Y556D01*
X1558Y560D01*
X1560Y560D01*
X1560Y564D01*
X1562Y564D01*
X1562Y566D01*
X1564Y566D01*
X1564Y582D01*
X1544Y582D01*
G37*
D02*
G36*
X726Y562D02*
X726Y558D01*
X724Y558D01*
X724Y554D01*
X722Y554D01*
X722Y552D01*
X720Y552D01*
X720Y550D01*
X718Y550D01*
X718Y548D01*
X716Y548D01*
X716Y546D01*
X714Y546D01*
X714Y544D01*
X712Y544D01*
X712Y522D01*
X714Y522D01*
X714Y520D01*
X716Y520D01*
X716Y518D01*
X718Y518D01*
X718Y516D01*
X720Y516D01*
X720Y514D01*
X722Y514D01*
X722Y512D01*
X724Y512D01*
X724Y510D01*
X726Y510D01*
X726Y506D01*
X784Y506D01*
X784Y562D01*
X726Y562D01*
G37*
D02*
G36*
X884Y508D02*
X884Y478D01*
X930Y478D01*
X930Y480D01*
X922Y480D01*
X922Y482D01*
X918Y482D01*
X918Y484D01*
X916Y484D01*
X916Y486D01*
X912Y486D01*
X912Y490D01*
X910Y490D01*
X910Y492D01*
X908Y492D01*
X908Y496D01*
X906Y496D01*
X906Y500D01*
X904Y500D01*
X904Y508D01*
X884Y508D01*
G37*
D02*
G36*
X938Y480D02*
X938Y478D01*
X962Y478D01*
X962Y480D01*
X938Y480D01*
G37*
D02*
G36*
X884Y478D02*
X884Y476D01*
X962Y476D01*
X962Y478D01*
X884Y478D01*
G37*
D02*
G36*
X884Y478D02*
X884Y476D01*
X962Y476D01*
X962Y478D01*
X884Y478D01*
G37*
D02*
G36*
X884Y476D02*
X884Y456D01*
X894Y456D01*
X894Y454D01*
X962Y454D01*
X962Y476D01*
X884Y476D01*
G37*
D02*
G36*
X126Y562D02*
X126Y558D01*
X124Y558D01*
X124Y554D01*
X374Y554D01*
X374Y556D01*
X370Y556D01*
X370Y558D01*
X366Y558D01*
X366Y560D01*
X364Y560D01*
X364Y562D01*
X126Y562D01*
G37*
D02*
G36*
X392Y556D02*
X392Y554D01*
X412Y554D01*
X412Y556D01*
X392Y556D01*
G37*
D02*
G36*
X122Y554D02*
X122Y552D01*
X412Y552D01*
X412Y554D01*
X122Y554D01*
G37*
D02*
G36*
X122Y554D02*
X122Y552D01*
X412Y552D01*
X412Y554D01*
X122Y554D01*
G37*
D02*
G36*
X120Y552D02*
X120Y550D01*
X118Y550D01*
X118Y548D01*
X116Y548D01*
X116Y546D01*
X114Y546D01*
X114Y544D01*
X112Y544D01*
X112Y522D01*
X114Y522D01*
X114Y520D01*
X116Y520D01*
X116Y518D01*
X118Y518D01*
X118Y516D01*
X120Y516D01*
X120Y514D01*
X122Y514D01*
X122Y512D01*
X124Y512D01*
X124Y510D01*
X126Y510D01*
X126Y506D01*
X128Y506D01*
X128Y502D01*
X130Y502D01*
X130Y494D01*
X132Y494D01*
X132Y472D01*
X130Y472D01*
X130Y466D01*
X128Y466D01*
X128Y462D01*
X126Y462D01*
X126Y458D01*
X124Y458D01*
X124Y454D01*
X122Y454D01*
X122Y452D01*
X120Y452D01*
X120Y450D01*
X118Y450D01*
X118Y448D01*
X116Y448D01*
X116Y446D01*
X114Y446D01*
X114Y444D01*
X112Y444D01*
X112Y442D01*
X108Y442D01*
X108Y440D01*
X104Y440D01*
X104Y438D01*
X340Y438D01*
X340Y436D01*
X346Y436D01*
X346Y434D01*
X350Y434D01*
X350Y432D01*
X352Y432D01*
X352Y430D01*
X354Y430D01*
X354Y428D01*
X356Y428D01*
X356Y426D01*
X358Y426D01*
X358Y422D01*
X360Y422D01*
X360Y418D01*
X362Y418D01*
X362Y400D01*
X360Y400D01*
X360Y396D01*
X358Y396D01*
X358Y392D01*
X356Y392D01*
X356Y390D01*
X354Y390D01*
X354Y388D01*
X352Y388D01*
X352Y386D01*
X350Y386D01*
X350Y384D01*
X348Y384D01*
X348Y382D01*
X344Y382D01*
X344Y376D01*
X342Y376D01*
X342Y372D01*
X340Y372D01*
X340Y366D01*
X338Y366D01*
X338Y362D01*
X336Y362D01*
X336Y358D01*
X334Y358D01*
X334Y352D01*
X332Y352D01*
X332Y348D01*
X330Y348D01*
X330Y344D01*
X328Y344D01*
X328Y338D01*
X326Y338D01*
X326Y334D01*
X324Y334D01*
X324Y330D01*
X322Y330D01*
X322Y324D01*
X320Y324D01*
X320Y320D01*
X318Y320D01*
X318Y314D01*
X316Y314D01*
X316Y310D01*
X314Y310D01*
X314Y306D01*
X312Y306D01*
X312Y300D01*
X310Y300D01*
X310Y296D01*
X308Y296D01*
X308Y292D01*
X306Y292D01*
X306Y286D01*
X304Y286D01*
X304Y282D01*
X302Y282D01*
X302Y278D01*
X300Y278D01*
X300Y272D01*
X298Y272D01*
X298Y268D01*
X296Y268D01*
X296Y262D01*
X294Y262D01*
X294Y258D01*
X292Y258D01*
X292Y254D01*
X290Y254D01*
X290Y248D01*
X288Y248D01*
X288Y226D01*
X286Y226D01*
X286Y220D01*
X284Y220D01*
X284Y216D01*
X282Y216D01*
X282Y214D01*
X280Y214D01*
X280Y212D01*
X278Y212D01*
X278Y210D01*
X276Y210D01*
X276Y208D01*
X274Y208D01*
X274Y206D01*
X270Y206D01*
X270Y204D01*
X260Y204D01*
X260Y202D01*
X488Y202D01*
X488Y204D01*
X476Y204D01*
X476Y206D01*
X464Y206D01*
X464Y208D01*
X450Y208D01*
X450Y210D01*
X438Y210D01*
X438Y212D01*
X426Y212D01*
X426Y214D01*
X422Y214D01*
X422Y216D01*
X418Y216D01*
X418Y218D01*
X416Y218D01*
X416Y222D01*
X414Y222D01*
X414Y224D01*
X412Y224D01*
X412Y232D01*
X410Y232D01*
X410Y298D01*
X412Y298D01*
X412Y552D01*
X120Y552D01*
G37*
D02*
G36*
X44Y438D02*
X44Y434D01*
X76Y434D01*
X76Y436D01*
X68Y436D01*
X68Y438D01*
X44Y438D01*
G37*
D02*
G36*
X100Y438D02*
X100Y436D01*
X92Y436D01*
X92Y434D01*
X320Y434D01*
X320Y436D01*
X324Y436D01*
X324Y438D01*
X100Y438D01*
G37*
D02*
G36*
X44Y434D02*
X44Y432D01*
X316Y432D01*
X316Y434D01*
X44Y434D01*
G37*
D02*
G36*
X44Y434D02*
X44Y432D01*
X316Y432D01*
X316Y434D01*
X44Y434D01*
G37*
D02*
G36*
X44Y432D02*
X44Y258D01*
X112Y258D01*
X112Y256D01*
X122Y256D01*
X122Y254D01*
X128Y254D01*
X128Y252D01*
X132Y252D01*
X132Y250D01*
X136Y250D01*
X136Y248D01*
X138Y248D01*
X138Y246D01*
X140Y246D01*
X140Y244D01*
X144Y244D01*
X144Y240D01*
X146Y240D01*
X146Y238D01*
X148Y238D01*
X148Y236D01*
X150Y236D01*
X150Y232D01*
X152Y232D01*
X152Y228D01*
X154Y228D01*
X154Y224D01*
X156Y224D01*
X156Y216D01*
X158Y216D01*
X158Y202D01*
X256Y202D01*
X256Y204D01*
X248Y204D01*
X248Y206D01*
X244Y206D01*
X244Y208D01*
X240Y208D01*
X240Y210D01*
X238Y210D01*
X238Y212D01*
X236Y212D01*
X236Y214D01*
X234Y214D01*
X234Y218D01*
X232Y218D01*
X232Y220D01*
X230Y220D01*
X230Y228D01*
X228Y228D01*
X228Y236D01*
X230Y236D01*
X230Y244D01*
X232Y244D01*
X232Y248D01*
X234Y248D01*
X234Y250D01*
X236Y250D01*
X236Y254D01*
X240Y254D01*
X240Y256D01*
X242Y256D01*
X242Y258D01*
X246Y258D01*
X246Y262D01*
X248Y262D01*
X248Y268D01*
X250Y268D01*
X250Y272D01*
X252Y272D01*
X252Y276D01*
X254Y276D01*
X254Y282D01*
X256Y282D01*
X256Y286D01*
X258Y286D01*
X258Y290D01*
X260Y290D01*
X260Y296D01*
X262Y296D01*
X262Y300D01*
X264Y300D01*
X264Y304D01*
X266Y304D01*
X266Y310D01*
X268Y310D01*
X268Y314D01*
X270Y314D01*
X270Y320D01*
X272Y320D01*
X272Y324D01*
X274Y324D01*
X274Y328D01*
X276Y328D01*
X276Y334D01*
X278Y334D01*
X278Y338D01*
X280Y338D01*
X280Y342D01*
X282Y342D01*
X282Y348D01*
X284Y348D01*
X284Y352D01*
X286Y352D01*
X286Y356D01*
X288Y356D01*
X288Y362D01*
X290Y362D01*
X290Y366D01*
X292Y366D01*
X292Y372D01*
X294Y372D01*
X294Y376D01*
X296Y376D01*
X296Y380D01*
X298Y380D01*
X298Y386D01*
X300Y386D01*
X300Y390D01*
X302Y390D01*
X302Y394D01*
X304Y394D01*
X304Y418D01*
X306Y418D01*
X306Y422D01*
X308Y422D01*
X308Y426D01*
X310Y426D01*
X310Y428D01*
X312Y428D01*
X312Y430D01*
X314Y430D01*
X314Y432D01*
X44Y432D01*
G37*
D02*
G36*
X44Y258D02*
X44Y226D01*
X64Y226D01*
X64Y230D01*
X66Y230D01*
X66Y234D01*
X68Y234D01*
X68Y236D01*
X70Y236D01*
X70Y240D01*
X72Y240D01*
X72Y242D01*
X74Y242D01*
X74Y244D01*
X76Y244D01*
X76Y246D01*
X80Y246D01*
X80Y248D01*
X82Y248D01*
X82Y250D01*
X86Y250D01*
X86Y252D01*
X88Y252D01*
X88Y254D01*
X94Y254D01*
X94Y256D01*
X104Y256D01*
X104Y258D01*
X44Y258D01*
G37*
D02*
G36*
X156Y202D02*
X156Y200D01*
X502Y200D01*
X502Y202D01*
X156Y202D01*
G37*
D02*
G36*
X156Y202D02*
X156Y200D01*
X502Y200D01*
X502Y202D01*
X156Y202D01*
G37*
D02*
G36*
X156Y200D02*
X156Y194D01*
X154Y194D01*
X154Y188D01*
X152Y188D01*
X152Y184D01*
X150Y184D01*
X150Y180D01*
X148Y180D01*
X148Y178D01*
X146Y178D01*
X146Y176D01*
X144Y176D01*
X144Y174D01*
X142Y174D01*
X142Y172D01*
X140Y172D01*
X140Y170D01*
X138Y170D01*
X138Y168D01*
X136Y168D01*
X136Y164D01*
X420Y164D01*
X420Y46D01*
X548Y46D01*
X548Y164D01*
X618Y164D01*
X618Y184D01*
X604Y184D01*
X604Y186D01*
X592Y186D01*
X592Y188D01*
X578Y188D01*
X578Y190D01*
X566Y190D01*
X566Y192D01*
X554Y192D01*
X554Y194D01*
X540Y194D01*
X540Y196D01*
X528Y196D01*
X528Y198D01*
X514Y198D01*
X514Y200D01*
X156Y200D01*
G37*
D02*
G36*
X136Y164D02*
X136Y148D01*
X138Y148D01*
X138Y146D01*
X140Y146D01*
X140Y144D01*
X144Y144D01*
X144Y140D01*
X146Y140D01*
X146Y138D01*
X148Y138D01*
X148Y136D01*
X150Y136D01*
X150Y132D01*
X152Y132D01*
X152Y128D01*
X154Y128D01*
X154Y124D01*
X156Y124D01*
X156Y116D01*
X158Y116D01*
X158Y102D01*
X156Y102D01*
X156Y94D01*
X154Y94D01*
X154Y88D01*
X152Y88D01*
X152Y84D01*
X150Y84D01*
X150Y80D01*
X148Y80D01*
X148Y78D01*
X146Y78D01*
X146Y76D01*
X144Y76D01*
X144Y74D01*
X142Y74D01*
X142Y72D01*
X140Y72D01*
X140Y70D01*
X138Y70D01*
X138Y68D01*
X134Y68D01*
X134Y66D01*
X132Y66D01*
X132Y46D01*
X348Y46D01*
X348Y164D01*
X136Y164D01*
G37*
D02*
G36*
X1646Y436D02*
X1646Y434D01*
X1644Y434D01*
X1644Y432D01*
X1642Y432D01*
X1642Y428D01*
X1640Y428D01*
X1640Y426D01*
X1638Y426D01*
X1638Y422D01*
X1636Y422D01*
X1636Y418D01*
X1634Y418D01*
X1634Y416D01*
X1632Y416D01*
X1632Y412D01*
X1630Y412D01*
X1630Y410D01*
X1628Y410D01*
X1628Y406D01*
X1692Y406D01*
X1692Y404D01*
X1698Y404D01*
X1698Y402D01*
X1704Y402D01*
X1704Y400D01*
X1730Y400D01*
X1730Y402D01*
X1736Y402D01*
X1736Y404D01*
X1740Y404D01*
X1740Y406D01*
X1746Y406D01*
X1746Y408D01*
X1750Y408D01*
X1750Y410D01*
X1756Y410D01*
X1756Y412D01*
X1760Y412D01*
X1760Y414D01*
X1766Y414D01*
X1766Y416D01*
X1770Y416D01*
X1770Y436D01*
X1646Y436D01*
G37*
D02*
G36*
X1626Y406D02*
X1626Y404D01*
X1624Y404D01*
X1624Y400D01*
X1622Y400D01*
X1622Y396D01*
X1620Y396D01*
X1620Y394D01*
X1618Y394D01*
X1618Y390D01*
X1616Y390D01*
X1616Y388D01*
X1614Y388D01*
X1614Y384D01*
X1612Y384D01*
X1612Y382D01*
X1610Y382D01*
X1610Y378D01*
X1608Y378D01*
X1608Y374D01*
X1606Y374D01*
X1606Y372D01*
X1604Y372D01*
X1604Y368D01*
X1602Y368D01*
X1602Y366D01*
X1600Y366D01*
X1600Y362D01*
X1598Y362D01*
X1598Y360D01*
X1596Y360D01*
X1596Y356D01*
X1594Y356D01*
X1594Y352D01*
X1592Y352D01*
X1592Y350D01*
X1590Y350D01*
X1590Y346D01*
X1588Y346D01*
X1588Y344D01*
X1586Y344D01*
X1586Y340D01*
X1584Y340D01*
X1584Y338D01*
X1582Y338D01*
X1582Y334D01*
X1580Y334D01*
X1580Y330D01*
X1578Y330D01*
X1578Y328D01*
X1576Y328D01*
X1576Y324D01*
X1574Y324D01*
X1574Y322D01*
X1572Y322D01*
X1572Y318D01*
X1570Y318D01*
X1570Y316D01*
X1568Y316D01*
X1568Y312D01*
X1566Y312D01*
X1566Y308D01*
X1564Y308D01*
X1564Y306D01*
X1562Y306D01*
X1562Y302D01*
X1560Y302D01*
X1560Y300D01*
X1558Y300D01*
X1558Y296D01*
X1556Y296D01*
X1556Y294D01*
X1554Y294D01*
X1554Y290D01*
X1552Y290D01*
X1552Y286D01*
X1550Y286D01*
X1550Y284D01*
X1548Y284D01*
X1548Y280D01*
X1546Y280D01*
X1546Y278D01*
X1544Y278D01*
X1544Y274D01*
X1542Y274D01*
X1542Y270D01*
X1540Y270D01*
X1540Y268D01*
X1538Y268D01*
X1538Y264D01*
X1536Y264D01*
X1536Y262D01*
X1534Y262D01*
X1534Y258D01*
X1532Y258D01*
X1532Y256D01*
X1530Y256D01*
X1530Y252D01*
X1528Y252D01*
X1528Y248D01*
X1526Y248D01*
X1526Y246D01*
X1524Y246D01*
X1524Y242D01*
X1522Y242D01*
X1522Y240D01*
X1520Y240D01*
X1520Y236D01*
X1518Y236D01*
X1518Y234D01*
X1516Y234D01*
X1516Y230D01*
X1514Y230D01*
X1514Y226D01*
X1512Y226D01*
X1512Y224D01*
X1510Y224D01*
X1510Y220D01*
X1508Y220D01*
X1508Y218D01*
X1506Y218D01*
X1506Y214D01*
X1504Y214D01*
X1504Y212D01*
X1502Y212D01*
X1502Y210D01*
X1636Y210D01*
X1636Y306D01*
X1650Y306D01*
X1650Y326D01*
X1648Y326D01*
X1648Y328D01*
X1646Y328D01*
X1646Y330D01*
X1644Y330D01*
X1644Y334D01*
X1642Y334D01*
X1642Y338D01*
X1640Y338D01*
X1640Y342D01*
X1638Y342D01*
X1638Y350D01*
X1636Y350D01*
X1636Y366D01*
X1638Y366D01*
X1638Y374D01*
X1640Y374D01*
X1640Y378D01*
X1642Y378D01*
X1642Y382D01*
X1644Y382D01*
X1644Y386D01*
X1646Y386D01*
X1646Y388D01*
X1648Y388D01*
X1648Y390D01*
X1650Y390D01*
X1650Y392D01*
X1652Y392D01*
X1652Y394D01*
X1654Y394D01*
X1654Y396D01*
X1656Y396D01*
X1656Y398D01*
X1660Y398D01*
X1660Y400D01*
X1664Y400D01*
X1664Y402D01*
X1668Y402D01*
X1668Y404D01*
X1676Y404D01*
X1676Y406D01*
X1626Y406D01*
G37*
D02*
G36*
X1814Y388D02*
X1814Y386D01*
X1808Y386D01*
X1808Y384D01*
X1804Y384D01*
X1804Y382D01*
X1798Y382D01*
X1798Y380D01*
X1794Y380D01*
X1794Y378D01*
X1788Y378D01*
X1788Y376D01*
X1784Y376D01*
X1784Y374D01*
X1778Y374D01*
X1778Y372D01*
X1774Y372D01*
X1774Y370D01*
X1768Y370D01*
X1768Y368D01*
X1764Y368D01*
X1764Y366D01*
X1758Y366D01*
X1758Y364D01*
X1754Y364D01*
X1754Y362D01*
X1750Y362D01*
X1750Y360D01*
X1744Y360D01*
X1744Y358D01*
X1740Y358D01*
X1740Y356D01*
X1734Y356D01*
X1734Y354D01*
X1730Y354D01*
X1730Y346D01*
X1728Y346D01*
X1728Y340D01*
X1726Y340D01*
X1726Y336D01*
X1724Y336D01*
X1724Y334D01*
X1876Y334D01*
X1876Y336D01*
X1868Y336D01*
X1868Y338D01*
X1862Y338D01*
X1862Y340D01*
X1860Y340D01*
X1860Y342D01*
X1856Y342D01*
X1856Y344D01*
X1854Y344D01*
X1854Y346D01*
X1850Y346D01*
X1850Y348D01*
X1848Y348D01*
X1848Y350D01*
X1846Y350D01*
X1846Y354D01*
X1844Y354D01*
X1844Y356D01*
X1842Y356D01*
X1842Y360D01*
X1840Y360D01*
X1840Y364D01*
X1838Y364D01*
X1838Y368D01*
X1836Y368D01*
X1836Y378D01*
X1834Y378D01*
X1834Y388D01*
X1814Y388D01*
G37*
D02*
G36*
X1900Y338D02*
X1900Y336D01*
X1892Y336D01*
X1892Y334D01*
X1922Y334D01*
X1922Y338D01*
X1900Y338D01*
G37*
D02*
G36*
X1724Y334D02*
X1724Y332D01*
X1922Y332D01*
X1922Y334D01*
X1724Y334D01*
G37*
D02*
G36*
X1724Y334D02*
X1724Y332D01*
X1922Y332D01*
X1922Y334D01*
X1724Y334D01*
G37*
D02*
G36*
X1722Y332D02*
X1722Y330D01*
X1720Y330D01*
X1720Y326D01*
X1718Y326D01*
X1718Y306D01*
X1730Y306D01*
X1730Y304D01*
X1732Y304D01*
X1732Y258D01*
X1862Y258D01*
X1862Y256D01*
X1872Y256D01*
X1872Y254D01*
X1878Y254D01*
X1878Y252D01*
X1882Y252D01*
X1882Y250D01*
X1886Y250D01*
X1886Y248D01*
X1888Y248D01*
X1888Y246D01*
X1890Y246D01*
X1890Y244D01*
X1894Y244D01*
X1894Y240D01*
X1896Y240D01*
X1896Y238D01*
X1898Y238D01*
X1898Y236D01*
X1900Y236D01*
X1900Y232D01*
X1902Y232D01*
X1902Y228D01*
X1922Y228D01*
X1922Y332D01*
X1722Y332D01*
G37*
D02*
G36*
X1732Y258D02*
X1732Y212D01*
X1730Y212D01*
X1730Y210D01*
X1810Y210D01*
X1810Y220D01*
X1812Y220D01*
X1812Y226D01*
X1814Y226D01*
X1814Y230D01*
X1816Y230D01*
X1816Y234D01*
X1818Y234D01*
X1818Y236D01*
X1820Y236D01*
X1820Y240D01*
X1822Y240D01*
X1822Y242D01*
X1824Y242D01*
X1824Y244D01*
X1826Y244D01*
X1826Y246D01*
X1830Y246D01*
X1830Y248D01*
X1832Y248D01*
X1832Y250D01*
X1836Y250D01*
X1836Y252D01*
X1838Y252D01*
X1838Y254D01*
X1844Y254D01*
X1844Y256D01*
X1854Y256D01*
X1854Y258D01*
X1732Y258D01*
G37*
D02*
G36*
X1502Y210D02*
X1502Y208D01*
X1810Y208D01*
X1810Y210D01*
X1502Y210D01*
G37*
D02*
G36*
X1502Y210D02*
X1502Y208D01*
X1810Y208D01*
X1810Y210D01*
X1502Y210D01*
G37*
D02*
G36*
X1500Y208D02*
X1500Y204D01*
X1498Y204D01*
X1498Y202D01*
X1496Y202D01*
X1496Y198D01*
X1494Y198D01*
X1494Y196D01*
X1492Y196D01*
X1492Y192D01*
X1490Y192D01*
X1490Y190D01*
X1488Y190D01*
X1488Y186D01*
X1486Y186D01*
X1486Y182D01*
X1484Y182D01*
X1484Y180D01*
X1482Y180D01*
X1482Y176D01*
X1480Y176D01*
X1480Y174D01*
X1478Y174D01*
X1478Y170D01*
X1476Y170D01*
X1476Y168D01*
X1474Y168D01*
X1474Y166D01*
X1472Y166D01*
X1472Y164D01*
X1620Y164D01*
X1620Y46D01*
X1836Y46D01*
X1836Y66D01*
X1832Y66D01*
X1832Y68D01*
X1830Y68D01*
X1830Y70D01*
X1828Y70D01*
X1828Y72D01*
X1824Y72D01*
X1824Y74D01*
X1822Y74D01*
X1822Y78D01*
X1820Y78D01*
X1820Y80D01*
X1818Y80D01*
X1818Y82D01*
X1816Y82D01*
X1816Y86D01*
X1814Y86D01*
X1814Y90D01*
X1812Y90D01*
X1812Y98D01*
X1810Y98D01*
X1810Y120D01*
X1812Y120D01*
X1812Y126D01*
X1814Y126D01*
X1814Y130D01*
X1816Y130D01*
X1816Y134D01*
X1818Y134D01*
X1818Y136D01*
X1820Y136D01*
X1820Y140D01*
X1822Y140D01*
X1822Y142D01*
X1824Y142D01*
X1824Y144D01*
X1826Y144D01*
X1826Y146D01*
X1830Y146D01*
X1830Y148D01*
X1832Y148D01*
X1832Y168D01*
X1830Y168D01*
X1830Y170D01*
X1828Y170D01*
X1828Y172D01*
X1824Y172D01*
X1824Y174D01*
X1822Y174D01*
X1822Y178D01*
X1820Y178D01*
X1820Y180D01*
X1818Y180D01*
X1818Y182D01*
X1816Y182D01*
X1816Y186D01*
X1814Y186D01*
X1814Y190D01*
X1812Y190D01*
X1812Y198D01*
X1810Y198D01*
X1810Y208D01*
X1500Y208D01*
G37*
D02*
G36*
X1468Y164D02*
X1468Y162D01*
X1420Y162D01*
X1420Y46D01*
X1548Y46D01*
X1548Y164D01*
X1468Y164D01*
G37*
D02*
G36*
X44Y190D02*
X44Y126D01*
X64Y126D01*
X64Y130D01*
X66Y130D01*
X66Y134D01*
X68Y134D01*
X68Y136D01*
X70Y136D01*
X70Y140D01*
X72Y140D01*
X72Y142D01*
X74Y142D01*
X74Y144D01*
X76Y144D01*
X76Y146D01*
X80Y146D01*
X80Y148D01*
X82Y148D01*
X82Y168D01*
X80Y168D01*
X80Y170D01*
X78Y170D01*
X78Y172D01*
X74Y172D01*
X74Y174D01*
X72Y174D01*
X72Y178D01*
X70Y178D01*
X70Y180D01*
X68Y180D01*
X68Y182D01*
X66Y182D01*
X66Y186D01*
X64Y186D01*
X64Y190D01*
X44Y190D01*
G37*
D02*
G36*
X1902Y188D02*
X1902Y184D01*
X1900Y184D01*
X1900Y180D01*
X1898Y180D01*
X1898Y178D01*
X1896Y178D01*
X1896Y176D01*
X1894Y176D01*
X1894Y174D01*
X1892Y174D01*
X1892Y172D01*
X1890Y172D01*
X1890Y170D01*
X1888Y170D01*
X1888Y168D01*
X1886Y168D01*
X1886Y148D01*
X1888Y148D01*
X1888Y146D01*
X1890Y146D01*
X1890Y144D01*
X1894Y144D01*
X1894Y140D01*
X1896Y140D01*
X1896Y138D01*
X1898Y138D01*
X1898Y136D01*
X1900Y136D01*
X1900Y132D01*
X1902Y132D01*
X1902Y128D01*
X1922Y128D01*
X1922Y188D01*
X1902Y188D01*
G37*
D02*
G36*
X1042Y364D02*
X1042Y362D01*
X884Y362D01*
X884Y162D01*
X944Y162D01*
X944Y160D01*
X948Y160D01*
X948Y158D01*
X952Y158D01*
X952Y156D01*
X954Y156D01*
X954Y154D01*
X956Y154D01*
X956Y152D01*
X958Y152D01*
X958Y148D01*
X960Y148D01*
X960Y144D01*
X962Y144D01*
X962Y136D01*
X964Y136D01*
X964Y130D01*
X962Y130D01*
X962Y128D01*
X1078Y128D01*
X1078Y130D01*
X1072Y130D01*
X1072Y132D01*
X1068Y132D01*
X1068Y134D01*
X1064Y134D01*
X1064Y136D01*
X1062Y136D01*
X1062Y138D01*
X1060Y138D01*
X1060Y142D01*
X1058Y142D01*
X1058Y144D01*
X1056Y144D01*
X1056Y150D01*
X1054Y150D01*
X1054Y166D01*
X1056Y166D01*
X1056Y170D01*
X1058Y170D01*
X1058Y174D01*
X1060Y174D01*
X1060Y176D01*
X1062Y176D01*
X1062Y364D01*
X1042Y364D01*
G37*
D02*
G36*
X620Y180D02*
X620Y110D01*
X784Y110D01*
X784Y162D01*
X746Y162D01*
X746Y164D01*
X734Y164D01*
X734Y166D01*
X720Y166D01*
X720Y168D01*
X708Y168D01*
X708Y170D01*
X694Y170D01*
X694Y172D01*
X682Y172D01*
X682Y174D01*
X668Y174D01*
X668Y176D01*
X656Y176D01*
X656Y178D01*
X644Y178D01*
X644Y180D01*
X620Y180D01*
G37*
D02*
G36*
X884Y162D02*
X884Y110D01*
X914Y110D01*
X914Y112D01*
X912Y112D01*
X912Y114D01*
X910Y114D01*
X910Y116D01*
X908Y116D01*
X908Y120D01*
X906Y120D01*
X906Y126D01*
X904Y126D01*
X904Y140D01*
X906Y140D01*
X906Y146D01*
X908Y146D01*
X908Y150D01*
X910Y150D01*
X910Y152D01*
X912Y152D01*
X912Y154D01*
X914Y154D01*
X914Y156D01*
X916Y156D01*
X916Y158D01*
X920Y158D01*
X920Y160D01*
X924Y160D01*
X924Y162D01*
X884Y162D01*
G37*
D02*
G36*
X1270Y162D02*
X1270Y110D01*
X1348Y110D01*
X1348Y162D01*
X1270Y162D01*
G37*
D02*
G36*
X1090Y130D02*
X1090Y128D01*
X1114Y128D01*
X1114Y130D01*
X1090Y130D01*
G37*
D02*
G36*
X962Y128D02*
X962Y126D01*
X1114Y126D01*
X1114Y128D01*
X962Y128D01*
G37*
D02*
G36*
X962Y128D02*
X962Y126D01*
X1114Y126D01*
X1114Y128D01*
X962Y128D01*
G37*
D02*
G36*
X962Y126D02*
X962Y122D01*
X960Y122D01*
X960Y118D01*
X958Y118D01*
X958Y116D01*
X956Y116D01*
X956Y112D01*
X954Y112D01*
X954Y110D01*
X1170Y110D01*
X1170Y112D01*
X1128Y112D01*
X1128Y114D01*
X1124Y114D01*
X1124Y116D01*
X1120Y116D01*
X1120Y118D01*
X1118Y118D01*
X1118Y120D01*
X1116Y120D01*
X1116Y124D01*
X1114Y124D01*
X1114Y126D01*
X962Y126D01*
G37*
D02*
G36*
X620Y110D02*
X620Y108D01*
X916Y108D01*
X916Y110D01*
X620Y110D01*
G37*
D02*
G36*
X620Y110D02*
X620Y108D01*
X916Y108D01*
X916Y110D01*
X620Y110D01*
G37*
D02*
G36*
X950Y110D02*
X950Y108D01*
X1348Y108D01*
X1348Y110D01*
X950Y110D01*
G37*
D02*
G36*
X950Y110D02*
X950Y108D01*
X1348Y108D01*
X1348Y110D01*
X950Y110D01*
G37*
D02*
G36*
X620Y108D02*
X620Y104D01*
X924Y104D01*
X924Y106D01*
X920Y106D01*
X920Y108D01*
X620Y108D01*
G37*
D02*
G36*
X948Y108D02*
X948Y106D01*
X942Y106D01*
X942Y104D01*
X1348Y104D01*
X1348Y108D01*
X948Y108D01*
G37*
D02*
G36*
X620Y104D02*
X620Y102D01*
X1348Y102D01*
X1348Y104D01*
X620Y104D01*
G37*
D02*
G36*
X620Y104D02*
X620Y102D01*
X1348Y102D01*
X1348Y104D01*
X620Y104D01*
G37*
D02*
G36*
X620Y102D02*
X620Y46D01*
X1348Y46D01*
X1348Y102D01*
X620Y102D01*
G37*
D02*
G36*
X1900Y407D02*
X1926Y407D01*
X1926Y362D01*
X1900Y362D01*
X1900Y407D01*
G37*
D02*
G36*
X1632Y282D02*
X1664Y282D01*
X1664Y239D01*
X1632Y239D01*
X1632Y282D01*
G37*
D02*
G36*
X1164Y1304D02*
X1199Y1304D01*
X1199Y1264D01*
X1164Y1264D01*
X1164Y1304D01*
G37*
D02*
G36*
X780Y144D02*
X830Y144D01*
X830Y125D01*
X780Y125D01*
X780Y144D01*
G37*
D02*
G36*
X1566Y168D02*
X1597Y168D01*
X1597Y86D01*
X1566Y86D01*
X1566Y168D01*
G37*
D02*
G36*
X1566Y84D02*
X1597Y84D01*
X1597Y8D01*
X1566Y8D01*
X1566Y84D01*
G37*
D02*
G36*
X1835Y92D02*
X1880Y92D01*
X1880Y60D01*
X1835Y60D01*
X1835Y92D01*
G37*
D02*
G36*
X1876Y133D02*
X1908Y133D01*
X1908Y88D01*
X1876Y88D01*
X1876Y133D01*
G37*
D02*
G36*
X36Y1307D02*
X62Y1307D01*
X62Y1262D01*
X36Y1262D01*
X36Y1307D01*
G37*
D02*
G36*
X700Y1507D02*
X732Y1507D01*
X732Y1462D01*
X700Y1462D01*
X700Y1507D01*
G37*
D02*
G36*
X1860Y1584D02*
X1903Y1584D01*
X1903Y1552D01*
X1860Y1552D01*
X1860Y1584D01*
G37*
D02*
G36*
X1860Y1518D02*
X1903Y1518D01*
X1903Y1486D01*
X1860Y1486D01*
X1860Y1518D01*
G37*
D02*
G36*
X1898Y1556D02*
X1926Y1556D01*
X1926Y1513D01*
X1898Y1513D01*
X1898Y1556D01*
G37*
D02*
G36*
X1860Y1360D02*
X1903Y1360D01*
X1903Y1328D01*
X1860Y1328D01*
X1860Y1360D01*
G37*
D02*
G36*
X1898Y1332D02*
X1926Y1332D01*
X1926Y1289D01*
X1898Y1289D01*
X1898Y1332D01*
G37*
D02*
G36*
X361Y1124D02*
X402Y1124D01*
X402Y1094D01*
X361Y1094D01*
X361Y1124D01*
G37*
D02*
G36*
X398Y1161D02*
X428Y1161D01*
X428Y1120D01*
X398Y1120D01*
X398Y1161D01*
G37*
D02*
G36*
X85Y92D02*
X130Y92D01*
X130Y60D01*
X85Y60D01*
X85Y92D01*
G37*
D02*
G36*
X56Y133D02*
X88Y133D01*
X88Y88D01*
X56Y88D01*
X56Y133D01*
G37*
D02*
G36*
X566Y84D02*
X597Y84D01*
X597Y8D01*
X566Y8D01*
X566Y84D01*
G37*
D02*
G36*
X1366Y84D02*
X1397Y84D01*
X1397Y8D01*
X1366Y8D01*
X1366Y84D01*
G37*
D02*
G36*
X1069Y1278D02*
X1094Y1278D01*
X1094Y1254D01*
X1069Y1254D01*
X1069Y1278D01*
G37*
D02*
G36*
X919Y166D02*
X944Y166D01*
X944Y142D01*
X919Y142D01*
X919Y166D01*
G37*
D02*
G36*
X938Y147D02*
X964Y147D01*
X964Y122D01*
X938Y122D01*
X938Y147D01*
G37*
D02*
G36*
X366Y168D02*
X397Y168D01*
X397Y86D01*
X366Y86D01*
X366Y168D01*
G37*
D02*
G36*
X366Y84D02*
X397Y84D01*
X397Y8D01*
X366Y8D01*
X366Y84D01*
G37*
D02*
G36*
X1069Y892D02*
X1094Y892D01*
X1094Y868D01*
X1069Y868D01*
X1069Y892D01*
G37*
D02*
G36*
X1088Y873D02*
X1114Y873D01*
X1114Y848D01*
X1088Y848D01*
X1088Y873D01*
G37*
D02*
G36*
X950Y773D02*
X974Y773D01*
X974Y748D01*
X950Y748D01*
X950Y773D01*
G37*
D02*
G04 End of Copper1*
M02*