G04 MADE WITH FRITZING*
G04 WWW.FRITZING.ORG*
G04 DOUBLE SIDED*
G04 HOLES PLATED*
G04 CONTOUR ON CENTER OF CONTOUR VECTOR*
%ASAXBY*%
%FSLAX23Y23*%
%MOIN*%
%OFA0B0*%
%SFA1.0B1.0*%
%ADD10C,0.049370*%
%ADD11C,0.135984*%
%ADD12C,0.088000*%
%ADD13C,0.085000*%
%ADD14C,0.080000*%
%ADD15C,0.089370*%
%ADD16R,0.085000X0.085000*%
%ADD17R,0.060000X0.035000*%
%ADD18R,0.061181X0.151823*%
%ADD19R,0.069055X0.065118*%
%ADD20R,0.098000X0.058000*%
%ADD21R,0.096614X0.151732*%
%ADD22R,0.001000X0.001000*%
%LNMASK0*%
G90*
G70*
G54D10*
X284Y1334D03*
X333Y409D03*
X258Y233D03*
X1084Y859D03*
X984Y759D03*
X934Y134D03*
X1284Y684D03*
X1184Y684D03*
X1084Y158D03*
X1309Y758D03*
G54D11*
X1811Y1788D03*
X157Y1790D03*
X985Y983D03*
G54D10*
X934Y509D03*
X384Y584D03*
X1134Y509D03*
G54D12*
X1859Y209D03*
X1859Y109D03*
X109Y209D03*
X109Y109D03*
G54D10*
X1484Y1584D03*
X1484Y1384D03*
X1084Y1384D03*
X1009Y1234D03*
X1084Y1534D03*
X1084Y1284D03*
G54D13*
X1884Y1309D03*
X1784Y1309D03*
X1884Y1534D03*
X1784Y1534D03*
X1684Y259D03*
X1684Y359D03*
G54D12*
X1884Y484D03*
X1884Y384D03*
X1284Y1084D03*
X1284Y984D03*
X1284Y884D03*
G54D14*
X384Y1140D03*
X384Y884D03*
X384Y1140D03*
X384Y884D03*
X384Y1140D03*
X384Y884D03*
G54D15*
X1884Y1084D03*
X1884Y984D03*
X1884Y884D03*
X1884Y784D03*
X1884Y684D03*
X1584Y1084D03*
X1584Y984D03*
X1584Y884D03*
X1584Y784D03*
X1584Y684D03*
G54D12*
X84Y1584D03*
X84Y1484D03*
X84Y1384D03*
X84Y1284D03*
X84Y1184D03*
X84Y1084D03*
X84Y984D03*
X84Y884D03*
X84Y784D03*
X84Y684D03*
X84Y584D03*
X84Y484D03*
X684Y1584D03*
X684Y1484D03*
X684Y1384D03*
X684Y1284D03*
X684Y1184D03*
X684Y1084D03*
X684Y984D03*
X684Y884D03*
X684Y784D03*
X684Y684D03*
X684Y584D03*
X684Y484D03*
G54D16*
X1884Y1309D03*
X1884Y1534D03*
X1684Y259D03*
G54D17*
X784Y1734D03*
X784Y1769D03*
X784Y1804D03*
G54D18*
X384Y84D03*
X584Y84D03*
X1384Y84D03*
X1584Y84D03*
G54D19*
X1384Y334D03*
X1384Y253D03*
X1584Y334D03*
X1584Y253D03*
X584Y334D03*
X584Y253D03*
X384Y334D03*
X384Y253D03*
G54D20*
X1109Y784D03*
X1109Y693D03*
X1109Y602D03*
G54D21*
X865Y693D03*
G54D22*
X934Y1882D02*
X1032Y1882D01*
X1554Y1882D02*
X1652Y1882D01*
X934Y1881D02*
X1032Y1881D01*
X1554Y1881D02*
X1652Y1881D01*
X934Y1880D02*
X1032Y1880D01*
X1554Y1880D02*
X1652Y1880D01*
X934Y1879D02*
X1032Y1879D01*
X1554Y1879D02*
X1652Y1879D01*
X934Y1878D02*
X1032Y1878D01*
X1554Y1878D02*
X1652Y1878D01*
X934Y1877D02*
X1032Y1877D01*
X1554Y1877D02*
X1652Y1877D01*
X934Y1876D02*
X1032Y1876D01*
X1554Y1876D02*
X1652Y1876D01*
X934Y1875D02*
X1032Y1875D01*
X1554Y1875D02*
X1652Y1875D01*
X934Y1874D02*
X1032Y1874D01*
X1554Y1874D02*
X1652Y1874D01*
X934Y1873D02*
X1032Y1873D01*
X1554Y1873D02*
X1652Y1873D01*
X934Y1872D02*
X1032Y1872D01*
X1554Y1872D02*
X1652Y1872D01*
X934Y1871D02*
X1032Y1871D01*
X1554Y1871D02*
X1652Y1871D01*
X934Y1870D02*
X1032Y1870D01*
X1554Y1870D02*
X1652Y1870D01*
X934Y1869D02*
X1032Y1869D01*
X1554Y1869D02*
X1652Y1869D01*
X934Y1868D02*
X1032Y1868D01*
X1554Y1868D02*
X1652Y1868D01*
X934Y1867D02*
X1032Y1867D01*
X1554Y1867D02*
X1652Y1867D01*
X934Y1866D02*
X1032Y1866D01*
X1554Y1866D02*
X1652Y1866D01*
X934Y1865D02*
X1032Y1865D01*
X1554Y1865D02*
X1652Y1865D01*
X934Y1864D02*
X1032Y1864D01*
X1554Y1864D02*
X1652Y1864D01*
X934Y1863D02*
X1032Y1863D01*
X1554Y1863D02*
X1652Y1863D01*
X934Y1862D02*
X1032Y1862D01*
X1554Y1862D02*
X1652Y1862D01*
X934Y1861D02*
X1005Y1861D01*
X1009Y1861D02*
X1032Y1861D01*
X1554Y1861D02*
X1577Y1861D01*
X1581Y1861D02*
X1652Y1861D01*
X934Y1860D02*
X1002Y1860D01*
X1011Y1860D02*
X1032Y1860D01*
X1554Y1860D02*
X1574Y1860D01*
X1583Y1860D02*
X1652Y1860D01*
X934Y1859D02*
X1001Y1859D01*
X1012Y1859D02*
X1032Y1859D01*
X1554Y1859D02*
X1573Y1859D01*
X1584Y1859D02*
X1652Y1859D01*
X934Y1858D02*
X1000Y1858D01*
X1013Y1858D02*
X1032Y1858D01*
X1554Y1858D02*
X1572Y1858D01*
X1585Y1858D02*
X1652Y1858D01*
X934Y1857D02*
X1000Y1857D01*
X1014Y1857D02*
X1032Y1857D01*
X1554Y1857D02*
X1572Y1857D01*
X1586Y1857D02*
X1652Y1857D01*
X934Y1856D02*
X999Y1856D01*
X1014Y1856D02*
X1032Y1856D01*
X1554Y1856D02*
X1571Y1856D01*
X1586Y1856D02*
X1652Y1856D01*
X934Y1855D02*
X999Y1855D01*
X1014Y1855D02*
X1032Y1855D01*
X1554Y1855D02*
X1571Y1855D01*
X1586Y1855D02*
X1652Y1855D01*
X934Y1854D02*
X999Y1854D01*
X1014Y1854D02*
X1032Y1854D01*
X1554Y1854D02*
X1571Y1854D01*
X1586Y1854D02*
X1652Y1854D01*
X934Y1853D02*
X999Y1853D01*
X1014Y1853D02*
X1032Y1853D01*
X1554Y1853D02*
X1571Y1853D01*
X1586Y1853D02*
X1652Y1853D01*
X934Y1852D02*
X999Y1852D01*
X1014Y1852D02*
X1032Y1852D01*
X1554Y1852D02*
X1571Y1852D01*
X1586Y1852D02*
X1652Y1852D01*
X934Y1851D02*
X1000Y1851D01*
X1014Y1851D02*
X1032Y1851D01*
X1554Y1851D02*
X1572Y1851D01*
X1586Y1851D02*
X1652Y1851D01*
X934Y1850D02*
X1000Y1850D01*
X1013Y1850D02*
X1032Y1850D01*
X1554Y1850D02*
X1572Y1850D01*
X1585Y1850D02*
X1652Y1850D01*
X934Y1849D02*
X1001Y1849D01*
X1012Y1849D02*
X1032Y1849D01*
X1554Y1849D02*
X1573Y1849D01*
X1584Y1849D02*
X1652Y1849D01*
X934Y1848D02*
X1002Y1848D01*
X1011Y1848D02*
X1032Y1848D01*
X1554Y1848D02*
X1574Y1848D01*
X1583Y1848D02*
X1652Y1848D01*
X934Y1847D02*
X1005Y1847D01*
X1009Y1847D02*
X1032Y1847D01*
X1554Y1847D02*
X1577Y1847D01*
X1581Y1847D02*
X1652Y1847D01*
X934Y1846D02*
X1032Y1846D01*
X1554Y1846D02*
X1652Y1846D01*
X934Y1845D02*
X1032Y1845D01*
X1554Y1845D02*
X1652Y1845D01*
X934Y1844D02*
X1032Y1844D01*
X1554Y1844D02*
X1652Y1844D01*
X934Y1843D02*
X1032Y1843D01*
X1554Y1843D02*
X1652Y1843D01*
X934Y1842D02*
X1032Y1842D01*
X1554Y1842D02*
X1652Y1842D01*
X934Y1841D02*
X1032Y1841D01*
X1554Y1841D02*
X1652Y1841D01*
X934Y1840D02*
X1032Y1840D01*
X1554Y1840D02*
X1652Y1840D01*
X934Y1839D02*
X1032Y1839D01*
X1554Y1839D02*
X1652Y1839D01*
X934Y1838D02*
X1032Y1838D01*
X1554Y1838D02*
X1652Y1838D01*
X934Y1837D02*
X1032Y1837D01*
X1554Y1837D02*
X1652Y1837D01*
X934Y1836D02*
X1032Y1836D01*
X1554Y1836D02*
X1652Y1836D01*
X934Y1835D02*
X1032Y1835D01*
X1554Y1835D02*
X1652Y1835D01*
X934Y1834D02*
X1032Y1834D01*
X1554Y1834D02*
X1652Y1834D01*
X934Y1833D02*
X1032Y1833D01*
X1554Y1833D02*
X1652Y1833D01*
X934Y1832D02*
X1032Y1832D01*
X1554Y1832D02*
X1652Y1832D01*
X934Y1831D02*
X1032Y1831D01*
X1554Y1831D02*
X1652Y1831D01*
X934Y1830D02*
X1032Y1830D01*
X1554Y1830D02*
X1652Y1830D01*
X934Y1829D02*
X1032Y1829D01*
X1554Y1829D02*
X1652Y1829D01*
X934Y1828D02*
X1032Y1828D01*
X1554Y1828D02*
X1652Y1828D01*
X934Y1827D02*
X1032Y1827D01*
X1554Y1827D02*
X1652Y1827D01*
X934Y1826D02*
X1032Y1826D01*
X1554Y1826D02*
X1652Y1826D01*
X934Y1803D02*
X1032Y1803D01*
X1554Y1803D02*
X1652Y1803D01*
X934Y1802D02*
X1032Y1802D01*
X1554Y1802D02*
X1652Y1802D01*
X934Y1801D02*
X1032Y1801D01*
X1554Y1801D02*
X1652Y1801D01*
X934Y1800D02*
X1032Y1800D01*
X1554Y1800D02*
X1652Y1800D01*
X934Y1799D02*
X1032Y1799D01*
X1554Y1799D02*
X1652Y1799D01*
X934Y1798D02*
X1032Y1798D01*
X1554Y1798D02*
X1652Y1798D01*
X934Y1797D02*
X1032Y1797D01*
X1554Y1797D02*
X1652Y1797D01*
X934Y1796D02*
X1032Y1796D01*
X1554Y1796D02*
X1652Y1796D01*
X934Y1795D02*
X1032Y1795D01*
X1554Y1795D02*
X1652Y1795D01*
X934Y1794D02*
X1032Y1794D01*
X1554Y1794D02*
X1652Y1794D01*
X934Y1793D02*
X1032Y1793D01*
X1554Y1793D02*
X1652Y1793D01*
X934Y1792D02*
X1032Y1792D01*
X1554Y1792D02*
X1652Y1792D01*
X934Y1791D02*
X1032Y1791D01*
X1554Y1791D02*
X1652Y1791D01*
X934Y1790D02*
X1032Y1790D01*
X1554Y1790D02*
X1652Y1790D01*
X934Y1789D02*
X1032Y1789D01*
X1554Y1789D02*
X1652Y1789D01*
X934Y1788D02*
X1032Y1788D01*
X1554Y1788D02*
X1652Y1788D01*
X934Y1787D02*
X1032Y1787D01*
X1554Y1787D02*
X1652Y1787D01*
X934Y1786D02*
X1032Y1786D01*
X1554Y1786D02*
X1652Y1786D01*
X934Y1785D02*
X1032Y1785D01*
X1554Y1785D02*
X1652Y1785D01*
X934Y1784D02*
X1032Y1784D01*
X1554Y1784D02*
X1652Y1784D01*
X934Y1783D02*
X1032Y1783D01*
X1554Y1783D02*
X1652Y1783D01*
X934Y1782D02*
X1004Y1782D01*
X1010Y1782D02*
X1032Y1782D01*
X1554Y1782D02*
X1576Y1782D01*
X1582Y1782D02*
X1652Y1782D01*
X934Y1781D02*
X1002Y1781D01*
X1012Y1781D02*
X1032Y1781D01*
X1554Y1781D02*
X1574Y1781D01*
X1584Y1781D02*
X1652Y1781D01*
X934Y1780D02*
X1001Y1780D01*
X1013Y1780D02*
X1032Y1780D01*
X1554Y1780D02*
X1573Y1780D01*
X1585Y1780D02*
X1652Y1780D01*
X934Y1779D02*
X1000Y1779D01*
X1013Y1779D02*
X1032Y1779D01*
X1554Y1779D02*
X1572Y1779D01*
X1585Y1779D02*
X1652Y1779D01*
X934Y1778D02*
X1000Y1778D01*
X1014Y1778D02*
X1032Y1778D01*
X1554Y1778D02*
X1572Y1778D01*
X1586Y1778D02*
X1652Y1778D01*
X934Y1777D02*
X999Y1777D01*
X1014Y1777D02*
X1032Y1777D01*
X1554Y1777D02*
X1571Y1777D01*
X1586Y1777D02*
X1652Y1777D01*
X934Y1776D02*
X999Y1776D01*
X1014Y1776D02*
X1032Y1776D01*
X1554Y1776D02*
X1571Y1776D01*
X1586Y1776D02*
X1652Y1776D01*
X934Y1775D02*
X999Y1775D01*
X1014Y1775D02*
X1032Y1775D01*
X1554Y1775D02*
X1571Y1775D01*
X1586Y1775D02*
X1652Y1775D01*
X934Y1774D02*
X999Y1774D01*
X1014Y1774D02*
X1032Y1774D01*
X1554Y1774D02*
X1571Y1774D01*
X1586Y1774D02*
X1652Y1774D01*
X934Y1773D02*
X999Y1773D01*
X1014Y1773D02*
X1032Y1773D01*
X1554Y1773D02*
X1572Y1773D01*
X1586Y1773D02*
X1652Y1773D01*
X934Y1772D02*
X1000Y1772D01*
X1014Y1772D02*
X1032Y1772D01*
X1554Y1772D02*
X1572Y1772D01*
X1586Y1772D02*
X1652Y1772D01*
X934Y1771D02*
X1001Y1771D01*
X1013Y1771D02*
X1032Y1771D01*
X1554Y1771D02*
X1573Y1771D01*
X1585Y1771D02*
X1652Y1771D01*
X934Y1770D02*
X1001Y1770D01*
X1012Y1770D02*
X1032Y1770D01*
X1554Y1770D02*
X1573Y1770D01*
X1584Y1770D02*
X1652Y1770D01*
X934Y1769D02*
X1003Y1769D01*
X1011Y1769D02*
X1032Y1769D01*
X1554Y1769D02*
X1575Y1769D01*
X1583Y1769D02*
X1652Y1769D01*
X934Y1768D02*
X1032Y1768D01*
X1554Y1768D02*
X1652Y1768D01*
X934Y1767D02*
X1032Y1767D01*
X1554Y1767D02*
X1652Y1767D01*
X934Y1766D02*
X1032Y1766D01*
X1554Y1766D02*
X1652Y1766D01*
X934Y1765D02*
X1032Y1765D01*
X1554Y1765D02*
X1652Y1765D01*
X934Y1764D02*
X1032Y1764D01*
X1554Y1764D02*
X1652Y1764D01*
X934Y1763D02*
X1032Y1763D01*
X1554Y1763D02*
X1652Y1763D01*
X934Y1762D02*
X1032Y1762D01*
X1554Y1762D02*
X1652Y1762D01*
X934Y1761D02*
X1032Y1761D01*
X1554Y1761D02*
X1652Y1761D01*
X934Y1760D02*
X1032Y1760D01*
X1554Y1760D02*
X1652Y1760D01*
X934Y1759D02*
X1032Y1759D01*
X1554Y1759D02*
X1652Y1759D01*
X934Y1758D02*
X1032Y1758D01*
X1554Y1758D02*
X1652Y1758D01*
X934Y1757D02*
X1032Y1757D01*
X1554Y1757D02*
X1652Y1757D01*
X934Y1756D02*
X1032Y1756D01*
X1554Y1756D02*
X1652Y1756D01*
X934Y1755D02*
X1032Y1755D01*
X1554Y1755D02*
X1652Y1755D01*
X934Y1754D02*
X1032Y1754D01*
X1554Y1754D02*
X1652Y1754D01*
X934Y1753D02*
X1032Y1753D01*
X1554Y1753D02*
X1652Y1753D01*
X934Y1752D02*
X1032Y1752D01*
X1554Y1752D02*
X1652Y1752D01*
X934Y1751D02*
X1032Y1751D01*
X1554Y1751D02*
X1652Y1751D01*
X934Y1750D02*
X1032Y1750D01*
X1554Y1750D02*
X1652Y1750D01*
X934Y1749D02*
X1032Y1749D01*
X1554Y1749D02*
X1652Y1749D01*
X934Y1748D02*
X1032Y1748D01*
X1554Y1748D02*
X1652Y1748D01*
X934Y1747D02*
X1032Y1747D01*
X1554Y1747D02*
X1652Y1747D01*
X934Y1725D02*
X1031Y1725D01*
X1554Y1725D02*
X1651Y1725D01*
X934Y1724D02*
X1032Y1724D01*
X1554Y1724D02*
X1652Y1724D01*
X934Y1723D02*
X1032Y1723D01*
X1554Y1723D02*
X1652Y1723D01*
X934Y1722D02*
X1032Y1722D01*
X1554Y1722D02*
X1652Y1722D01*
X934Y1721D02*
X1032Y1721D01*
X1554Y1721D02*
X1652Y1721D01*
X934Y1720D02*
X1032Y1720D01*
X1554Y1720D02*
X1652Y1720D01*
X934Y1719D02*
X1032Y1719D01*
X1554Y1719D02*
X1652Y1719D01*
X934Y1718D02*
X1032Y1718D01*
X1554Y1718D02*
X1652Y1718D01*
X934Y1717D02*
X1032Y1717D01*
X1554Y1717D02*
X1652Y1717D01*
X934Y1716D02*
X1032Y1716D01*
X1554Y1716D02*
X1652Y1716D01*
X934Y1715D02*
X1032Y1715D01*
X1554Y1715D02*
X1652Y1715D01*
X934Y1714D02*
X1032Y1714D01*
X1554Y1714D02*
X1652Y1714D01*
X934Y1713D02*
X1032Y1713D01*
X1554Y1713D02*
X1652Y1713D01*
X934Y1712D02*
X1032Y1712D01*
X1554Y1712D02*
X1652Y1712D01*
X934Y1711D02*
X1032Y1711D01*
X1554Y1711D02*
X1652Y1711D01*
X934Y1710D02*
X1032Y1710D01*
X1554Y1710D02*
X1652Y1710D01*
X934Y1709D02*
X1032Y1709D01*
X1554Y1709D02*
X1652Y1709D01*
X934Y1708D02*
X1032Y1708D01*
X1554Y1708D02*
X1652Y1708D01*
X934Y1707D02*
X1032Y1707D01*
X1554Y1707D02*
X1652Y1707D01*
X934Y1706D02*
X1032Y1706D01*
X1554Y1706D02*
X1652Y1706D01*
X934Y1705D02*
X1032Y1705D01*
X1554Y1705D02*
X1652Y1705D01*
X934Y1704D02*
X1032Y1704D01*
X1554Y1704D02*
X1652Y1704D01*
X934Y1703D02*
X1003Y1703D01*
X1010Y1703D02*
X1032Y1703D01*
X1554Y1703D02*
X1575Y1703D01*
X1582Y1703D02*
X1652Y1703D01*
X934Y1702D02*
X1002Y1702D01*
X1012Y1702D02*
X1032Y1702D01*
X1554Y1702D02*
X1574Y1702D01*
X1584Y1702D02*
X1652Y1702D01*
X934Y1701D02*
X1001Y1701D01*
X1013Y1701D02*
X1032Y1701D01*
X1554Y1701D02*
X1573Y1701D01*
X1585Y1701D02*
X1652Y1701D01*
X934Y1700D02*
X1000Y1700D01*
X1014Y1700D02*
X1032Y1700D01*
X1554Y1700D02*
X1572Y1700D01*
X1586Y1700D02*
X1652Y1700D01*
X934Y1699D02*
X1000Y1699D01*
X1014Y1699D02*
X1032Y1699D01*
X1554Y1699D02*
X1572Y1699D01*
X1586Y1699D02*
X1652Y1699D01*
X934Y1698D02*
X999Y1698D01*
X1014Y1698D02*
X1032Y1698D01*
X1554Y1698D02*
X1571Y1698D01*
X1586Y1698D02*
X1652Y1698D01*
X934Y1697D02*
X999Y1697D01*
X1014Y1697D02*
X1032Y1697D01*
X1554Y1697D02*
X1571Y1697D01*
X1586Y1697D02*
X1652Y1697D01*
X934Y1696D02*
X999Y1696D01*
X1014Y1696D02*
X1032Y1696D01*
X1554Y1696D02*
X1571Y1696D01*
X1586Y1696D02*
X1652Y1696D01*
X934Y1695D02*
X999Y1695D01*
X1014Y1695D02*
X1032Y1695D01*
X1554Y1695D02*
X1571Y1695D01*
X1586Y1695D02*
X1652Y1695D01*
X934Y1694D02*
X1000Y1694D01*
X1014Y1694D02*
X1032Y1694D01*
X1554Y1694D02*
X1572Y1694D01*
X1586Y1694D02*
X1652Y1694D01*
X934Y1693D02*
X1000Y1693D01*
X1014Y1693D02*
X1032Y1693D01*
X1554Y1693D02*
X1572Y1693D01*
X1586Y1693D02*
X1652Y1693D01*
X934Y1692D02*
X1001Y1692D01*
X1013Y1692D02*
X1032Y1692D01*
X1554Y1692D02*
X1573Y1692D01*
X1585Y1692D02*
X1652Y1692D01*
X934Y1691D02*
X1002Y1691D01*
X1012Y1691D02*
X1032Y1691D01*
X1554Y1691D02*
X1574Y1691D01*
X1584Y1691D02*
X1652Y1691D01*
X934Y1690D02*
X1003Y1690D01*
X1010Y1690D02*
X1032Y1690D01*
X1554Y1690D02*
X1575Y1690D01*
X1583Y1690D02*
X1652Y1690D01*
X934Y1689D02*
X1032Y1689D01*
X1554Y1689D02*
X1652Y1689D01*
X934Y1688D02*
X1032Y1688D01*
X1554Y1688D02*
X1652Y1688D01*
X934Y1687D02*
X1032Y1687D01*
X1554Y1687D02*
X1652Y1687D01*
X934Y1686D02*
X1032Y1686D01*
X1554Y1686D02*
X1652Y1686D01*
X934Y1685D02*
X1032Y1685D01*
X1554Y1685D02*
X1652Y1685D01*
X934Y1684D02*
X1032Y1684D01*
X1554Y1684D02*
X1652Y1684D01*
X934Y1683D02*
X1032Y1683D01*
X1554Y1683D02*
X1652Y1683D01*
X934Y1682D02*
X1032Y1682D01*
X1554Y1682D02*
X1652Y1682D01*
X934Y1681D02*
X1032Y1681D01*
X1554Y1681D02*
X1652Y1681D01*
X934Y1680D02*
X1032Y1680D01*
X1554Y1680D02*
X1652Y1680D01*
X934Y1679D02*
X1032Y1679D01*
X1554Y1679D02*
X1652Y1679D01*
X934Y1678D02*
X1032Y1678D01*
X1554Y1678D02*
X1652Y1678D01*
X934Y1677D02*
X1032Y1677D01*
X1554Y1677D02*
X1652Y1677D01*
X934Y1676D02*
X1032Y1676D01*
X1554Y1676D02*
X1652Y1676D01*
X934Y1675D02*
X1032Y1675D01*
X1554Y1675D02*
X1652Y1675D01*
X934Y1674D02*
X1032Y1674D01*
X1554Y1674D02*
X1652Y1674D01*
X934Y1673D02*
X1032Y1673D01*
X1554Y1673D02*
X1652Y1673D01*
X934Y1672D02*
X1032Y1672D01*
X1554Y1672D02*
X1652Y1672D01*
X934Y1671D02*
X1032Y1671D01*
X1554Y1671D02*
X1652Y1671D01*
X934Y1670D02*
X1032Y1670D01*
X1554Y1670D02*
X1652Y1670D01*
X934Y1669D02*
X1032Y1669D01*
X1554Y1669D02*
X1652Y1669D01*
X934Y1668D02*
X1031Y1668D01*
X1554Y1668D02*
X1651Y1668D01*
X934Y1646D02*
X1032Y1646D01*
X1554Y1646D02*
X1651Y1646D01*
X934Y1645D02*
X1032Y1645D01*
X1554Y1645D02*
X1652Y1645D01*
X934Y1644D02*
X1032Y1644D01*
X1554Y1644D02*
X1652Y1644D01*
X934Y1643D02*
X1032Y1643D01*
X1554Y1643D02*
X1652Y1643D01*
X934Y1642D02*
X1032Y1642D01*
X1554Y1642D02*
X1652Y1642D01*
X934Y1641D02*
X1032Y1641D01*
X1554Y1641D02*
X1652Y1641D01*
X934Y1640D02*
X1032Y1640D01*
X1554Y1640D02*
X1652Y1640D01*
X934Y1639D02*
X1032Y1639D01*
X1554Y1639D02*
X1652Y1639D01*
X934Y1638D02*
X1032Y1638D01*
X1554Y1638D02*
X1652Y1638D01*
X934Y1637D02*
X1032Y1637D01*
X1554Y1637D02*
X1652Y1637D01*
X934Y1636D02*
X1032Y1636D01*
X1554Y1636D02*
X1652Y1636D01*
X934Y1635D02*
X1032Y1635D01*
X1554Y1635D02*
X1652Y1635D01*
X934Y1634D02*
X1032Y1634D01*
X1554Y1634D02*
X1652Y1634D01*
X934Y1633D02*
X1032Y1633D01*
X1554Y1633D02*
X1652Y1633D01*
X934Y1632D02*
X1032Y1632D01*
X1554Y1632D02*
X1652Y1632D01*
X934Y1631D02*
X1032Y1631D01*
X1554Y1631D02*
X1652Y1631D01*
X934Y1630D02*
X1032Y1630D01*
X1554Y1630D02*
X1652Y1630D01*
X934Y1629D02*
X1032Y1629D01*
X1554Y1629D02*
X1652Y1629D01*
X934Y1628D02*
X1032Y1628D01*
X1554Y1628D02*
X1652Y1628D01*
X934Y1627D02*
X1032Y1627D01*
X1554Y1627D02*
X1652Y1627D01*
X934Y1626D02*
X1032Y1626D01*
X1554Y1626D02*
X1652Y1626D01*
X934Y1625D02*
X1032Y1625D01*
X1554Y1625D02*
X1652Y1625D01*
X934Y1624D02*
X1003Y1624D01*
X1011Y1624D02*
X1032Y1624D01*
X1554Y1624D02*
X1575Y1624D01*
X1583Y1624D02*
X1652Y1624D01*
X934Y1623D02*
X1001Y1623D01*
X1012Y1623D02*
X1032Y1623D01*
X1554Y1623D02*
X1573Y1623D01*
X1584Y1623D02*
X1652Y1623D01*
X934Y1622D02*
X1000Y1622D01*
X1013Y1622D02*
X1032Y1622D01*
X1554Y1622D02*
X1573Y1622D01*
X1585Y1622D02*
X1652Y1622D01*
X934Y1621D02*
X1000Y1621D01*
X1014Y1621D02*
X1032Y1621D01*
X1554Y1621D02*
X1572Y1621D01*
X1586Y1621D02*
X1652Y1621D01*
X934Y1620D02*
X999Y1620D01*
X1014Y1620D02*
X1032Y1620D01*
X1554Y1620D02*
X1571Y1620D01*
X1586Y1620D02*
X1652Y1620D01*
X934Y1619D02*
X999Y1619D01*
X1014Y1619D02*
X1032Y1619D01*
X1554Y1619D02*
X1571Y1619D01*
X1586Y1619D02*
X1652Y1619D01*
X934Y1618D02*
X999Y1618D01*
X1014Y1618D02*
X1032Y1618D01*
X1554Y1618D02*
X1571Y1618D01*
X1586Y1618D02*
X1652Y1618D01*
X934Y1617D02*
X999Y1617D01*
X1014Y1617D02*
X1032Y1617D01*
X1554Y1617D02*
X1571Y1617D01*
X1586Y1617D02*
X1652Y1617D01*
X934Y1616D02*
X999Y1616D01*
X1014Y1616D02*
X1032Y1616D01*
X1554Y1616D02*
X1571Y1616D01*
X1586Y1616D02*
X1652Y1616D01*
X934Y1615D02*
X1000Y1615D01*
X1014Y1615D02*
X1032Y1615D01*
X1554Y1615D02*
X1572Y1615D01*
X1586Y1615D02*
X1652Y1615D01*
X934Y1614D02*
X1000Y1614D01*
X1013Y1614D02*
X1032Y1614D01*
X1554Y1614D02*
X1572Y1614D01*
X1585Y1614D02*
X1652Y1614D01*
X934Y1613D02*
X1001Y1613D01*
X1013Y1613D02*
X1032Y1613D01*
X1554Y1613D02*
X1573Y1613D01*
X1585Y1613D02*
X1652Y1613D01*
X934Y1612D02*
X1002Y1612D01*
X1011Y1612D02*
X1032Y1612D01*
X1554Y1612D02*
X1574Y1612D01*
X1584Y1612D02*
X1652Y1612D01*
X934Y1611D02*
X1004Y1611D01*
X1010Y1611D02*
X1032Y1611D01*
X1554Y1611D02*
X1576Y1611D01*
X1582Y1611D02*
X1652Y1611D01*
X934Y1610D02*
X1032Y1610D01*
X1554Y1610D02*
X1652Y1610D01*
X934Y1609D02*
X1032Y1609D01*
X1554Y1609D02*
X1652Y1609D01*
X934Y1608D02*
X1032Y1608D01*
X1554Y1608D02*
X1652Y1608D01*
X934Y1607D02*
X1032Y1607D01*
X1554Y1607D02*
X1652Y1607D01*
X934Y1606D02*
X1032Y1606D01*
X1554Y1606D02*
X1652Y1606D01*
X934Y1605D02*
X1032Y1605D01*
X1554Y1605D02*
X1652Y1605D01*
X934Y1604D02*
X1032Y1604D01*
X1554Y1604D02*
X1652Y1604D01*
X934Y1603D02*
X1032Y1603D01*
X1554Y1603D02*
X1652Y1603D01*
X934Y1602D02*
X1032Y1602D01*
X1554Y1602D02*
X1652Y1602D01*
X934Y1601D02*
X1032Y1601D01*
X1554Y1601D02*
X1652Y1601D01*
X934Y1600D02*
X1032Y1600D01*
X1554Y1600D02*
X1652Y1600D01*
X934Y1599D02*
X1032Y1599D01*
X1554Y1599D02*
X1652Y1599D01*
X934Y1598D02*
X1032Y1598D01*
X1554Y1598D02*
X1652Y1598D01*
X934Y1597D02*
X1032Y1597D01*
X1554Y1597D02*
X1652Y1597D01*
X934Y1596D02*
X1032Y1596D01*
X1554Y1596D02*
X1652Y1596D01*
X934Y1595D02*
X1032Y1595D01*
X1554Y1595D02*
X1652Y1595D01*
X934Y1594D02*
X1032Y1594D01*
X1554Y1594D02*
X1652Y1594D01*
X934Y1593D02*
X1032Y1593D01*
X1554Y1593D02*
X1652Y1593D01*
X934Y1592D02*
X1032Y1592D01*
X1554Y1592D02*
X1652Y1592D01*
X934Y1591D02*
X1032Y1591D01*
X1554Y1591D02*
X1652Y1591D01*
X934Y1590D02*
X1032Y1590D01*
X1554Y1590D02*
X1652Y1590D01*
X934Y1567D02*
X1032Y1567D01*
X1554Y1567D02*
X1652Y1567D01*
X934Y1566D02*
X1032Y1566D01*
X1554Y1566D02*
X1652Y1566D01*
X934Y1565D02*
X1032Y1565D01*
X1554Y1565D02*
X1652Y1565D01*
X934Y1564D02*
X1032Y1564D01*
X1554Y1564D02*
X1652Y1564D01*
X934Y1563D02*
X1032Y1563D01*
X1554Y1563D02*
X1652Y1563D01*
X934Y1562D02*
X1032Y1562D01*
X1554Y1562D02*
X1652Y1562D01*
X934Y1561D02*
X1032Y1561D01*
X1554Y1561D02*
X1652Y1561D01*
X934Y1560D02*
X1032Y1560D01*
X1554Y1560D02*
X1652Y1560D01*
X934Y1559D02*
X1032Y1559D01*
X1554Y1559D02*
X1652Y1559D01*
X934Y1558D02*
X1032Y1558D01*
X1554Y1558D02*
X1652Y1558D01*
X934Y1557D02*
X1032Y1557D01*
X1554Y1557D02*
X1652Y1557D01*
X934Y1556D02*
X1032Y1556D01*
X1554Y1556D02*
X1652Y1556D01*
X934Y1555D02*
X1032Y1555D01*
X1554Y1555D02*
X1652Y1555D01*
X934Y1554D02*
X1032Y1554D01*
X1554Y1554D02*
X1652Y1554D01*
X934Y1553D02*
X1032Y1553D01*
X1554Y1553D02*
X1652Y1553D01*
X934Y1552D02*
X1032Y1552D01*
X1554Y1552D02*
X1652Y1552D01*
X934Y1551D02*
X1032Y1551D01*
X1554Y1551D02*
X1652Y1551D01*
X934Y1550D02*
X1032Y1550D01*
X1554Y1550D02*
X1652Y1550D01*
X934Y1549D02*
X1032Y1549D01*
X1554Y1549D02*
X1652Y1549D01*
X934Y1548D02*
X1032Y1548D01*
X1554Y1548D02*
X1652Y1548D01*
X934Y1547D02*
X1032Y1547D01*
X1554Y1547D02*
X1652Y1547D01*
X934Y1546D02*
X1004Y1546D01*
X1009Y1546D02*
X1032Y1546D01*
X1554Y1546D02*
X1577Y1546D01*
X1581Y1546D02*
X1652Y1546D01*
X934Y1545D02*
X1002Y1545D01*
X1011Y1545D02*
X1032Y1545D01*
X1554Y1545D02*
X1574Y1545D01*
X1583Y1545D02*
X1652Y1545D01*
X934Y1544D02*
X1001Y1544D01*
X1012Y1544D02*
X1032Y1544D01*
X1554Y1544D02*
X1573Y1544D01*
X1584Y1544D02*
X1652Y1544D01*
X934Y1543D02*
X1000Y1543D01*
X1013Y1543D02*
X1032Y1543D01*
X1554Y1543D02*
X1572Y1543D01*
X1585Y1543D02*
X1652Y1543D01*
X934Y1542D02*
X1000Y1542D01*
X1014Y1542D02*
X1032Y1542D01*
X1554Y1542D02*
X1572Y1542D01*
X1586Y1542D02*
X1652Y1542D01*
X934Y1541D02*
X999Y1541D01*
X1014Y1541D02*
X1032Y1541D01*
X1554Y1541D02*
X1571Y1541D01*
X1586Y1541D02*
X1652Y1541D01*
X934Y1540D02*
X999Y1540D01*
X1014Y1540D02*
X1032Y1540D01*
X1554Y1540D02*
X1571Y1540D01*
X1586Y1540D02*
X1652Y1540D01*
X934Y1539D02*
X999Y1539D01*
X1014Y1539D02*
X1032Y1539D01*
X1554Y1539D02*
X1571Y1539D01*
X1586Y1539D02*
X1652Y1539D01*
X934Y1538D02*
X999Y1538D01*
X1014Y1538D02*
X1032Y1538D01*
X1554Y1538D02*
X1571Y1538D01*
X1586Y1538D02*
X1652Y1538D01*
X934Y1537D02*
X999Y1537D01*
X1014Y1537D02*
X1032Y1537D01*
X1554Y1537D02*
X1571Y1537D01*
X1586Y1537D02*
X1652Y1537D01*
X934Y1536D02*
X1000Y1536D01*
X1014Y1536D02*
X1032Y1536D01*
X1554Y1536D02*
X1572Y1536D01*
X1586Y1536D02*
X1652Y1536D01*
X934Y1535D02*
X1000Y1535D01*
X1013Y1535D02*
X1032Y1535D01*
X1554Y1535D02*
X1572Y1535D01*
X1585Y1535D02*
X1652Y1535D01*
X934Y1534D02*
X1001Y1534D01*
X1012Y1534D02*
X1032Y1534D01*
X1554Y1534D02*
X1573Y1534D01*
X1584Y1534D02*
X1652Y1534D01*
X934Y1533D02*
X1002Y1533D01*
X1011Y1533D02*
X1032Y1533D01*
X1554Y1533D02*
X1574Y1533D01*
X1583Y1533D02*
X1652Y1533D01*
X934Y1532D02*
X1005Y1532D01*
X1008Y1532D02*
X1032Y1532D01*
X1554Y1532D02*
X1577Y1532D01*
X1581Y1532D02*
X1652Y1532D01*
X934Y1531D02*
X1032Y1531D01*
X1554Y1531D02*
X1652Y1531D01*
X934Y1530D02*
X1032Y1530D01*
X1554Y1530D02*
X1652Y1530D01*
X934Y1529D02*
X1032Y1529D01*
X1554Y1529D02*
X1652Y1529D01*
X934Y1528D02*
X1032Y1528D01*
X1554Y1528D02*
X1652Y1528D01*
X934Y1527D02*
X1032Y1527D01*
X1554Y1527D02*
X1652Y1527D01*
X934Y1526D02*
X1032Y1526D01*
X1554Y1526D02*
X1652Y1526D01*
X934Y1525D02*
X1032Y1525D01*
X1554Y1525D02*
X1652Y1525D01*
X934Y1524D02*
X1032Y1524D01*
X1554Y1524D02*
X1652Y1524D01*
X934Y1523D02*
X1032Y1523D01*
X1554Y1523D02*
X1652Y1523D01*
X934Y1522D02*
X1032Y1522D01*
X1554Y1522D02*
X1652Y1522D01*
X934Y1521D02*
X1032Y1521D01*
X1554Y1521D02*
X1652Y1521D01*
X934Y1520D02*
X1032Y1520D01*
X1554Y1520D02*
X1652Y1520D01*
X934Y1519D02*
X1032Y1519D01*
X1554Y1519D02*
X1652Y1519D01*
X934Y1518D02*
X1032Y1518D01*
X1554Y1518D02*
X1652Y1518D01*
X934Y1517D02*
X1032Y1517D01*
X1554Y1517D02*
X1652Y1517D01*
X934Y1516D02*
X1032Y1516D01*
X1554Y1516D02*
X1652Y1516D01*
X934Y1515D02*
X1032Y1515D01*
X1554Y1515D02*
X1652Y1515D01*
X934Y1514D02*
X1032Y1514D01*
X1554Y1514D02*
X1652Y1514D01*
X934Y1513D02*
X1032Y1513D01*
X1554Y1513D02*
X1652Y1513D01*
X934Y1512D02*
X1032Y1512D01*
X1554Y1512D02*
X1652Y1512D01*
X934Y1511D02*
X1032Y1511D01*
X1554Y1511D02*
X1652Y1511D01*
X934Y1488D02*
X1032Y1488D01*
X1554Y1488D02*
X1652Y1488D01*
X934Y1487D02*
X1032Y1487D01*
X1554Y1487D02*
X1652Y1487D01*
X934Y1486D02*
X1032Y1486D01*
X1554Y1486D02*
X1652Y1486D01*
X934Y1485D02*
X1032Y1485D01*
X1554Y1485D02*
X1652Y1485D01*
X934Y1484D02*
X1032Y1484D01*
X1554Y1484D02*
X1652Y1484D01*
X934Y1483D02*
X1032Y1483D01*
X1554Y1483D02*
X1652Y1483D01*
X934Y1482D02*
X1032Y1482D01*
X1554Y1482D02*
X1652Y1482D01*
X934Y1481D02*
X1032Y1481D01*
X1554Y1481D02*
X1652Y1481D01*
X934Y1480D02*
X1032Y1480D01*
X1554Y1480D02*
X1652Y1480D01*
X934Y1479D02*
X1032Y1479D01*
X1554Y1479D02*
X1652Y1479D01*
X934Y1478D02*
X1032Y1478D01*
X1554Y1478D02*
X1652Y1478D01*
X934Y1477D02*
X1032Y1477D01*
X1554Y1477D02*
X1652Y1477D01*
X934Y1476D02*
X1032Y1476D01*
X1554Y1476D02*
X1652Y1476D01*
X934Y1475D02*
X1032Y1475D01*
X1554Y1475D02*
X1652Y1475D01*
X934Y1474D02*
X1032Y1474D01*
X1554Y1474D02*
X1652Y1474D01*
X934Y1473D02*
X1032Y1473D01*
X1554Y1473D02*
X1652Y1473D01*
X934Y1472D02*
X1032Y1472D01*
X1554Y1472D02*
X1652Y1472D01*
X934Y1471D02*
X1032Y1471D01*
X1554Y1471D02*
X1652Y1471D01*
X934Y1470D02*
X1032Y1470D01*
X1554Y1470D02*
X1652Y1470D01*
X934Y1469D02*
X1032Y1469D01*
X1554Y1469D02*
X1652Y1469D01*
X934Y1468D02*
X1032Y1468D01*
X1554Y1468D02*
X1652Y1468D01*
X934Y1467D02*
X1004Y1467D01*
X1010Y1467D02*
X1032Y1467D01*
X1554Y1467D02*
X1576Y1467D01*
X1582Y1467D02*
X1652Y1467D01*
X934Y1466D02*
X1002Y1466D01*
X1012Y1466D02*
X1032Y1466D01*
X1554Y1466D02*
X1574Y1466D01*
X1584Y1466D02*
X1652Y1466D01*
X934Y1465D02*
X1001Y1465D01*
X1013Y1465D02*
X1032Y1465D01*
X1554Y1465D02*
X1573Y1465D01*
X1585Y1465D02*
X1652Y1465D01*
X934Y1464D02*
X1000Y1464D01*
X1013Y1464D02*
X1032Y1464D01*
X1554Y1464D02*
X1572Y1464D01*
X1586Y1464D02*
X1652Y1464D01*
X934Y1463D02*
X1000Y1463D01*
X1014Y1463D02*
X1032Y1463D01*
X1554Y1463D02*
X1572Y1463D01*
X1586Y1463D02*
X1652Y1463D01*
X934Y1462D02*
X999Y1462D01*
X1014Y1462D02*
X1032Y1462D01*
X1554Y1462D02*
X1571Y1462D01*
X1586Y1462D02*
X1652Y1462D01*
X934Y1461D02*
X999Y1461D01*
X1014Y1461D02*
X1032Y1461D01*
X1554Y1461D02*
X1571Y1461D01*
X1586Y1461D02*
X1652Y1461D01*
X934Y1460D02*
X999Y1460D01*
X1014Y1460D02*
X1032Y1460D01*
X1554Y1460D02*
X1571Y1460D01*
X1586Y1460D02*
X1652Y1460D01*
X934Y1459D02*
X999Y1459D01*
X1014Y1459D02*
X1032Y1459D01*
X1554Y1459D02*
X1571Y1459D01*
X1586Y1459D02*
X1652Y1459D01*
X934Y1458D02*
X999Y1458D01*
X1014Y1458D02*
X1032Y1458D01*
X1554Y1458D02*
X1572Y1458D01*
X1586Y1458D02*
X1652Y1458D01*
X934Y1457D02*
X1000Y1457D01*
X1014Y1457D02*
X1032Y1457D01*
X1554Y1457D02*
X1572Y1457D01*
X1586Y1457D02*
X1652Y1457D01*
X934Y1456D02*
X1001Y1456D01*
X1013Y1456D02*
X1032Y1456D01*
X1554Y1456D02*
X1573Y1456D01*
X1585Y1456D02*
X1652Y1456D01*
X934Y1455D02*
X1002Y1455D01*
X1012Y1455D02*
X1032Y1455D01*
X1554Y1455D02*
X1574Y1455D01*
X1584Y1455D02*
X1652Y1455D01*
X934Y1454D02*
X1003Y1454D01*
X1011Y1454D02*
X1032Y1454D01*
X1554Y1454D02*
X1575Y1454D01*
X1583Y1454D02*
X1652Y1454D01*
X934Y1453D02*
X1032Y1453D01*
X1554Y1453D02*
X1652Y1453D01*
X934Y1452D02*
X1032Y1452D01*
X1554Y1452D02*
X1652Y1452D01*
X934Y1451D02*
X1032Y1451D01*
X1554Y1451D02*
X1652Y1451D01*
X934Y1450D02*
X1032Y1450D01*
X1554Y1450D02*
X1652Y1450D01*
X934Y1449D02*
X1032Y1449D01*
X1554Y1449D02*
X1652Y1449D01*
X934Y1448D02*
X1032Y1448D01*
X1554Y1448D02*
X1652Y1448D01*
X934Y1447D02*
X1032Y1447D01*
X1554Y1447D02*
X1652Y1447D01*
X934Y1446D02*
X1032Y1446D01*
X1554Y1446D02*
X1652Y1446D01*
X934Y1445D02*
X1032Y1445D01*
X1554Y1445D02*
X1652Y1445D01*
X934Y1444D02*
X1032Y1444D01*
X1554Y1444D02*
X1652Y1444D01*
X934Y1443D02*
X1032Y1443D01*
X1554Y1443D02*
X1652Y1443D01*
X934Y1442D02*
X1032Y1442D01*
X1554Y1442D02*
X1652Y1442D01*
X934Y1441D02*
X1032Y1441D01*
X1554Y1441D02*
X1652Y1441D01*
X934Y1440D02*
X1032Y1440D01*
X1554Y1440D02*
X1652Y1440D01*
X934Y1439D02*
X1032Y1439D01*
X1554Y1439D02*
X1652Y1439D01*
X934Y1438D02*
X1032Y1438D01*
X1554Y1438D02*
X1652Y1438D01*
X934Y1437D02*
X1032Y1437D01*
X1554Y1437D02*
X1652Y1437D01*
X934Y1436D02*
X1032Y1436D01*
X1554Y1436D02*
X1652Y1436D01*
X934Y1435D02*
X1032Y1435D01*
X1554Y1435D02*
X1652Y1435D01*
X934Y1434D02*
X1032Y1434D01*
X1554Y1434D02*
X1652Y1434D01*
X934Y1433D02*
X1032Y1433D01*
X1554Y1433D02*
X1652Y1433D01*
X934Y1432D02*
X1031Y1432D01*
X1554Y1432D02*
X1651Y1432D01*
X934Y1412D02*
X1032Y1412D01*
X1554Y1412D02*
X1652Y1412D01*
X934Y1411D02*
X1032Y1411D01*
X1554Y1411D02*
X1652Y1411D01*
X934Y1410D02*
X1032Y1410D01*
X1554Y1410D02*
X1652Y1410D01*
X934Y1409D02*
X1032Y1409D01*
X1554Y1409D02*
X1652Y1409D01*
X934Y1408D02*
X1032Y1408D01*
X1554Y1408D02*
X1652Y1408D01*
X934Y1407D02*
X1032Y1407D01*
X1554Y1407D02*
X1652Y1407D01*
X934Y1406D02*
X1032Y1406D01*
X1554Y1406D02*
X1652Y1406D01*
X934Y1405D02*
X1032Y1405D01*
X1554Y1405D02*
X1652Y1405D01*
X934Y1404D02*
X1032Y1404D01*
X1554Y1404D02*
X1652Y1404D01*
X934Y1403D02*
X1032Y1403D01*
X1554Y1403D02*
X1652Y1403D01*
X934Y1402D02*
X1032Y1402D01*
X1554Y1402D02*
X1652Y1402D01*
X934Y1401D02*
X1032Y1401D01*
X1554Y1401D02*
X1652Y1401D01*
X934Y1400D02*
X1032Y1400D01*
X1554Y1400D02*
X1652Y1400D01*
X934Y1399D02*
X1032Y1399D01*
X1554Y1399D02*
X1652Y1399D01*
X934Y1398D02*
X1032Y1398D01*
X1554Y1398D02*
X1652Y1398D01*
X934Y1397D02*
X1032Y1397D01*
X1554Y1397D02*
X1652Y1397D01*
X934Y1396D02*
X1032Y1396D01*
X1554Y1396D02*
X1652Y1396D01*
X934Y1395D02*
X1032Y1395D01*
X1554Y1395D02*
X1652Y1395D01*
X934Y1394D02*
X1032Y1394D01*
X1554Y1394D02*
X1652Y1394D01*
X934Y1393D02*
X1032Y1393D01*
X1554Y1393D02*
X1652Y1393D01*
X934Y1392D02*
X1032Y1392D01*
X1554Y1392D02*
X1652Y1392D01*
X934Y1391D02*
X1032Y1391D01*
X1554Y1391D02*
X1652Y1391D01*
X934Y1390D02*
X1003Y1390D01*
X1011Y1390D02*
X1032Y1390D01*
X1554Y1390D02*
X1575Y1390D01*
X1583Y1390D02*
X1652Y1390D01*
X934Y1389D02*
X1001Y1389D01*
X1012Y1389D02*
X1032Y1389D01*
X1554Y1389D02*
X1573Y1389D01*
X1584Y1389D02*
X1652Y1389D01*
X934Y1388D02*
X1000Y1388D01*
X1013Y1388D02*
X1032Y1388D01*
X1554Y1388D02*
X1573Y1388D01*
X1585Y1388D02*
X1652Y1388D01*
X934Y1387D02*
X1000Y1387D01*
X1014Y1387D02*
X1032Y1387D01*
X1554Y1387D02*
X1572Y1387D01*
X1586Y1387D02*
X1652Y1387D01*
X934Y1386D02*
X999Y1386D01*
X1014Y1386D02*
X1032Y1386D01*
X1554Y1386D02*
X1571Y1386D01*
X1586Y1386D02*
X1652Y1386D01*
X934Y1385D02*
X999Y1385D01*
X1014Y1385D02*
X1032Y1385D01*
X1554Y1385D02*
X1571Y1385D01*
X1586Y1385D02*
X1652Y1385D01*
X934Y1384D02*
X999Y1384D01*
X1014Y1384D02*
X1032Y1384D01*
X1554Y1384D02*
X1571Y1384D01*
X1586Y1384D02*
X1652Y1384D01*
X934Y1383D02*
X999Y1383D01*
X1014Y1383D02*
X1032Y1383D01*
X1554Y1383D02*
X1571Y1383D01*
X1586Y1383D02*
X1652Y1383D01*
X934Y1382D02*
X999Y1382D01*
X1014Y1382D02*
X1032Y1382D01*
X1554Y1382D02*
X1571Y1382D01*
X1586Y1382D02*
X1652Y1382D01*
X934Y1381D02*
X1000Y1381D01*
X1014Y1381D02*
X1032Y1381D01*
X1554Y1381D02*
X1572Y1381D01*
X1586Y1381D02*
X1652Y1381D01*
X934Y1380D02*
X1000Y1380D01*
X1013Y1380D02*
X1032Y1380D01*
X1554Y1380D02*
X1572Y1380D01*
X1585Y1380D02*
X1652Y1380D01*
X934Y1379D02*
X1001Y1379D01*
X1013Y1379D02*
X1032Y1379D01*
X1554Y1379D02*
X1573Y1379D01*
X1585Y1379D02*
X1652Y1379D01*
X934Y1378D02*
X1002Y1378D01*
X1011Y1378D02*
X1032Y1378D01*
X1554Y1378D02*
X1574Y1378D01*
X1583Y1378D02*
X1652Y1378D01*
X934Y1377D02*
X1004Y1377D01*
X1010Y1377D02*
X1032Y1377D01*
X1554Y1377D02*
X1576Y1377D01*
X1582Y1377D02*
X1652Y1377D01*
X934Y1376D02*
X1032Y1376D01*
X1554Y1376D02*
X1652Y1376D01*
X934Y1375D02*
X1032Y1375D01*
X1554Y1375D02*
X1652Y1375D01*
X934Y1374D02*
X1032Y1374D01*
X1554Y1374D02*
X1652Y1374D01*
X934Y1373D02*
X1032Y1373D01*
X1554Y1373D02*
X1652Y1373D01*
X934Y1372D02*
X1032Y1372D01*
X1554Y1372D02*
X1652Y1372D01*
X934Y1371D02*
X1032Y1371D01*
X1554Y1371D02*
X1652Y1371D01*
X934Y1370D02*
X1032Y1370D01*
X1554Y1370D02*
X1652Y1370D01*
X934Y1369D02*
X1032Y1369D01*
X1554Y1369D02*
X1652Y1369D01*
X934Y1368D02*
X1032Y1368D01*
X1554Y1368D02*
X1652Y1368D01*
X934Y1367D02*
X1032Y1367D01*
X1554Y1367D02*
X1652Y1367D01*
X934Y1366D02*
X1032Y1366D01*
X1554Y1366D02*
X1652Y1366D01*
X934Y1365D02*
X1032Y1365D01*
X1554Y1365D02*
X1652Y1365D01*
X934Y1364D02*
X1032Y1364D01*
X1554Y1364D02*
X1652Y1364D01*
X934Y1363D02*
X1032Y1363D01*
X1554Y1363D02*
X1652Y1363D01*
X934Y1362D02*
X1032Y1362D01*
X1554Y1362D02*
X1652Y1362D01*
X934Y1361D02*
X1032Y1361D01*
X1554Y1361D02*
X1652Y1361D01*
X934Y1360D02*
X1032Y1360D01*
X1554Y1360D02*
X1652Y1360D01*
X934Y1359D02*
X1032Y1359D01*
X1554Y1359D02*
X1652Y1359D01*
X934Y1358D02*
X1032Y1358D01*
X1554Y1358D02*
X1652Y1358D01*
X934Y1357D02*
X1032Y1357D01*
X1554Y1357D02*
X1652Y1357D01*
X934Y1356D02*
X1032Y1356D01*
X1554Y1356D02*
X1652Y1356D01*
X934Y1331D02*
X1032Y1331D01*
X1554Y1331D02*
X1651Y1331D01*
X934Y1330D02*
X1032Y1330D01*
X1554Y1330D02*
X1652Y1330D01*
X934Y1329D02*
X1032Y1329D01*
X1554Y1329D02*
X1652Y1329D01*
X934Y1328D02*
X1032Y1328D01*
X1554Y1328D02*
X1652Y1328D01*
X934Y1327D02*
X1032Y1327D01*
X1554Y1327D02*
X1652Y1327D01*
X934Y1326D02*
X1032Y1326D01*
X1554Y1326D02*
X1652Y1326D01*
X934Y1325D02*
X1032Y1325D01*
X1554Y1325D02*
X1652Y1325D01*
X934Y1324D02*
X1032Y1324D01*
X1554Y1324D02*
X1652Y1324D01*
X934Y1323D02*
X1032Y1323D01*
X1554Y1323D02*
X1652Y1323D01*
X934Y1322D02*
X1032Y1322D01*
X1554Y1322D02*
X1652Y1322D01*
X934Y1321D02*
X1032Y1321D01*
X1554Y1321D02*
X1652Y1321D01*
X934Y1320D02*
X1032Y1320D01*
X1554Y1320D02*
X1652Y1320D01*
X934Y1319D02*
X1032Y1319D01*
X1554Y1319D02*
X1652Y1319D01*
X934Y1318D02*
X1032Y1318D01*
X1554Y1318D02*
X1652Y1318D01*
X934Y1317D02*
X1032Y1317D01*
X1554Y1317D02*
X1652Y1317D01*
X934Y1316D02*
X1032Y1316D01*
X1554Y1316D02*
X1652Y1316D01*
X934Y1315D02*
X1032Y1315D01*
X1554Y1315D02*
X1652Y1315D01*
X934Y1314D02*
X1032Y1314D01*
X1554Y1314D02*
X1652Y1314D01*
X934Y1313D02*
X1032Y1313D01*
X1554Y1313D02*
X1652Y1313D01*
X934Y1312D02*
X1032Y1312D01*
X1554Y1312D02*
X1652Y1312D01*
X934Y1311D02*
X1032Y1311D01*
X1554Y1311D02*
X1652Y1311D01*
X934Y1310D02*
X1005Y1310D01*
X1008Y1310D02*
X1032Y1310D01*
X1554Y1310D02*
X1652Y1310D01*
X934Y1309D02*
X1002Y1309D01*
X1011Y1309D02*
X1032Y1309D01*
X1554Y1309D02*
X1575Y1309D01*
X1583Y1309D02*
X1652Y1309D01*
X934Y1308D02*
X1001Y1308D01*
X1012Y1308D02*
X1032Y1308D01*
X1554Y1308D02*
X1573Y1308D01*
X1584Y1308D02*
X1652Y1308D01*
X934Y1307D02*
X1000Y1307D01*
X1013Y1307D02*
X1032Y1307D01*
X1554Y1307D02*
X1572Y1307D01*
X1585Y1307D02*
X1652Y1307D01*
X934Y1306D02*
X1000Y1306D01*
X1014Y1306D02*
X1032Y1306D01*
X1554Y1306D02*
X1572Y1306D01*
X1586Y1306D02*
X1652Y1306D01*
X934Y1305D02*
X999Y1305D01*
X1014Y1305D02*
X1032Y1305D01*
X1554Y1305D02*
X1571Y1305D01*
X1586Y1305D02*
X1652Y1305D01*
X934Y1304D02*
X999Y1304D01*
X1014Y1304D02*
X1032Y1304D01*
X1554Y1304D02*
X1571Y1304D01*
X1586Y1304D02*
X1652Y1304D01*
X934Y1303D02*
X999Y1303D01*
X1014Y1303D02*
X1032Y1303D01*
X1554Y1303D02*
X1571Y1303D01*
X1586Y1303D02*
X1652Y1303D01*
X934Y1302D02*
X999Y1302D01*
X1014Y1302D02*
X1032Y1302D01*
X1554Y1302D02*
X1571Y1302D01*
X1586Y1302D02*
X1652Y1302D01*
X934Y1301D02*
X999Y1301D01*
X1014Y1301D02*
X1032Y1301D01*
X1554Y1301D02*
X1571Y1301D01*
X1586Y1301D02*
X1652Y1301D01*
X934Y1300D02*
X1000Y1300D01*
X1014Y1300D02*
X1032Y1300D01*
X1554Y1300D02*
X1572Y1300D01*
X1586Y1300D02*
X1652Y1300D01*
X934Y1299D02*
X1000Y1299D01*
X1013Y1299D02*
X1032Y1299D01*
X1554Y1299D02*
X1572Y1299D01*
X1585Y1299D02*
X1652Y1299D01*
X934Y1298D02*
X1001Y1298D01*
X1012Y1298D02*
X1032Y1298D01*
X1554Y1298D02*
X1573Y1298D01*
X1585Y1298D02*
X1652Y1298D01*
X934Y1297D02*
X1002Y1297D01*
X1011Y1297D02*
X1032Y1297D01*
X1554Y1297D02*
X1574Y1297D01*
X1583Y1297D02*
X1652Y1297D01*
X934Y1296D02*
X1004Y1296D01*
X1009Y1296D02*
X1032Y1296D01*
X1554Y1296D02*
X1576Y1296D01*
X1582Y1296D02*
X1652Y1296D01*
X934Y1295D02*
X1032Y1295D01*
X1554Y1295D02*
X1652Y1295D01*
X934Y1294D02*
X1032Y1294D01*
X1554Y1294D02*
X1652Y1294D01*
X934Y1293D02*
X1032Y1293D01*
X1554Y1293D02*
X1652Y1293D01*
X934Y1292D02*
X1032Y1292D01*
X1554Y1292D02*
X1652Y1292D01*
X934Y1291D02*
X1032Y1291D01*
X1554Y1291D02*
X1652Y1291D01*
X934Y1290D02*
X1032Y1290D01*
X1554Y1290D02*
X1652Y1290D01*
X934Y1289D02*
X1032Y1289D01*
X1554Y1289D02*
X1652Y1289D01*
X934Y1288D02*
X1032Y1288D01*
X1554Y1288D02*
X1652Y1288D01*
X934Y1287D02*
X1032Y1287D01*
X1554Y1287D02*
X1652Y1287D01*
X934Y1286D02*
X1032Y1286D01*
X1554Y1286D02*
X1652Y1286D01*
X934Y1285D02*
X1032Y1285D01*
X1554Y1285D02*
X1652Y1285D01*
X934Y1284D02*
X1032Y1284D01*
X1554Y1284D02*
X1652Y1284D01*
X934Y1283D02*
X1032Y1283D01*
X1554Y1283D02*
X1652Y1283D01*
X934Y1282D02*
X1032Y1282D01*
X1554Y1282D02*
X1652Y1282D01*
X934Y1281D02*
X1032Y1281D01*
X1554Y1281D02*
X1652Y1281D01*
X934Y1280D02*
X1032Y1280D01*
X1554Y1280D02*
X1652Y1280D01*
X934Y1279D02*
X1032Y1279D01*
X1554Y1279D02*
X1652Y1279D01*
X934Y1278D02*
X1032Y1278D01*
X1554Y1278D02*
X1652Y1278D01*
X934Y1277D02*
X1032Y1277D01*
X1554Y1277D02*
X1652Y1277D01*
X934Y1276D02*
X1032Y1276D01*
X1554Y1276D02*
X1652Y1276D01*
X934Y1275D02*
X1032Y1275D01*
X1554Y1275D02*
X1652Y1275D01*
D02*
G04 End of Mask0*
M02*