G04 MADE WITH FRITZING*
G04 WWW.FRITZING.ORG*
G04 DOUBLE SIDED*
G04 HOLES PLATED*
G04 CONTOUR ON CENTER OF CONTOUR VECTOR*
%ASAXBY*%
%FSLAX23Y23*%
%MOIN*%
%OFA0B0*%
%SFA1.0B1.0*%
%ADD10C,0.049370*%
%ADD11C,0.135984*%
%ADD12C,0.088000*%
%ADD13C,0.085000*%
%ADD14C,0.080000*%
%ADD15C,0.089370*%
%ADD16R,0.085000X0.085000*%
%ADD17R,0.069055X0.065118*%
%ADD18R,0.061181X0.151823*%
%ADD19R,0.090000X0.036000*%
%LNMASK1*%
G90*
G70*
G54D10*
X284Y1334D03*
X333Y409D03*
X258Y233D03*
X1084Y859D03*
X984Y759D03*
X934Y134D03*
X1284Y684D03*
X1184Y684D03*
X1084Y158D03*
X1309Y758D03*
G54D11*
X1811Y1788D03*
X157Y1790D03*
X985Y983D03*
G54D10*
X934Y509D03*
X384Y584D03*
X1134Y509D03*
G54D12*
X1859Y209D03*
X1859Y109D03*
X109Y209D03*
X109Y109D03*
G54D10*
X1484Y1584D03*
X1484Y1384D03*
X1084Y1384D03*
X1009Y1234D03*
X1084Y1534D03*
X1084Y1284D03*
G54D13*
X1884Y1309D03*
X1784Y1309D03*
X1884Y1534D03*
X1784Y1534D03*
X1684Y259D03*
X1684Y359D03*
G54D12*
X1884Y484D03*
X1884Y384D03*
X1284Y1084D03*
X1284Y984D03*
X1284Y884D03*
G54D14*
X384Y1140D03*
X384Y884D03*
X384Y1140D03*
X384Y884D03*
X384Y1140D03*
X384Y884D03*
G54D15*
X1884Y1084D03*
X1884Y984D03*
X1884Y884D03*
X1884Y784D03*
X1884Y684D03*
X1584Y1084D03*
X1584Y984D03*
X1584Y884D03*
X1584Y784D03*
X1584Y684D03*
G54D12*
X84Y1584D03*
X84Y1484D03*
X84Y1384D03*
X84Y1284D03*
X84Y1184D03*
X84Y1084D03*
X84Y984D03*
X84Y884D03*
X84Y784D03*
X84Y684D03*
X84Y584D03*
X84Y484D03*
X684Y1584D03*
X684Y1484D03*
X684Y1384D03*
X684Y1284D03*
X684Y1184D03*
X684Y1084D03*
X684Y984D03*
X684Y884D03*
X684Y784D03*
X684Y684D03*
X684Y584D03*
X684Y484D03*
G54D16*
X1884Y1309D03*
X1884Y1534D03*
X1684Y259D03*
G54D17*
X1184Y1384D03*
X1184Y1303D03*
X1184Y1584D03*
X1184Y1503D03*
X1384Y1584D03*
X1384Y1503D03*
G54D18*
X1384Y84D03*
X1584Y84D03*
X584Y84D03*
X384Y84D03*
G54D19*
X834Y534D03*
X834Y484D03*
X834Y434D03*
X834Y384D03*
X834Y334D03*
X834Y284D03*
X834Y234D03*
X834Y184D03*
X1220Y184D03*
X1220Y234D03*
X1220Y284D03*
X1220Y334D03*
X1220Y384D03*
X1220Y434D03*
X1220Y484D03*
X1220Y534D03*
X834Y134D03*
X1220Y134D03*
G04 End of Mask1*
M02*